<?xml version="1.0" encoding="utf-8"?>
<!-- Generator: Adobe Illustrator 26.0.1, SVG Export Plug-In . SVG Version: 6.00 Build 0)  -->
<svg version="1.1" id="Layer_1" xmlns="http://www.w3.org/2000/svg" xmlns:xlink="http://www.w3.org/1999/xlink" x="0px" y="0px"
	 viewBox="0 0 1440 577" style="enable-background:new 0 0 1440 577;" xml:space="preserve">
<style type="text/css">
	
		.st0{clip-path:url(#SVGID_00000065767536360944370610000009080057337552224143_);fill:url(#SVGID_00000038409894171515233380000000545668790179255469_);}
	.st1{clip-path:url(#SVGID_00000065767536360944370610000009080057337552224143_);}
	.st2{opacity:0.5;}
	.st3{fill:none;stroke:#FFFFFF;stroke-width:0.7135;stroke-linejoin:round;stroke-dasharray:4.0353,6.7256;}
	.st4{fill:#FFFFFF;}
	.st5{fill:none;}
	.st6{opacity:0.25;}
	.st7{opacity:0.8;}
	.st8{opacity:0.4;fill:#FFFFFF;}
	.st9{fill:#FBAD40;}
	.st10{opacity:0.1;fill:#FFFFFF;}
	.st11{fill:#FF6633;}
	.st12{fill:#941FBA;}
	.st13{fill:#0055DC;}
	.st14{fill:#188B44;}
	.st15{fill:#6ECCE5;}
	.st16{clip-path:url(#SVGID_00000178888247994463441530000009946297364999145356_);fill:#000A34;}
	.st17{clip-path:url(#SVGID_00000178888247994463441530000009946297364999145356_);fill:#001854;}
	.st18{fill:#FFFFFF;stroke:#000A34;stroke-width:1.003;stroke-miterlimit:10;enable-background:new    ;}
	.st19{fill:#000A34;stroke:#000A34;stroke-width:1.003;stroke-miterlimit:10;enable-background:new    ;}
	.st20{fill:#FFFFFF;stroke:#000A34;stroke-width:1.0417;stroke-miterlimit:10;enable-background:new    ;}
	.st21{fill:#FFFFFF;enable-background:new    ;}
</style>
<g>
	<defs>
		<rect id="SVGID_1_" width="1440" height="577"/>
	</defs>
	<clipPath id="SVGID_00000016780100709633609000000017792851573313053824_">
		<use xlink:href="#SVGID_1_"  style="overflow:visible;"/>
	</clipPath>
	
		<linearGradient id="SVGID_00000127034457652086825900000007069500373665669258_" gradientUnits="userSpaceOnUse" x1="720" y1="577" x2="720" y2="0">
		<stop  offset="1.839155e-03" style="stop-color:#0255DC"/>
		<stop  offset="0.1006" style="stop-color:#0244B7"/>
		<stop  offset="0.2231" style="stop-color:#013390"/>
		<stop  offset="0.3445" style="stop-color:#012571"/>
		<stop  offset="0.4627" style="stop-color:#011B5C"/>
		<stop  offset="0.5762" style="stop-color:#01154E"/>
		<stop  offset="0.6801" style="stop-color:#01134A"/>
		<stop  offset="0.7054" style="stop-color:#011247"/>
		<stop  offset="0.8641" style="stop-color:#000C39"/>
		<stop  offset="1" style="stop-color:#000A34"/>
	</linearGradient>
	
		<rect style="clip-path:url(#SVGID_00000016780100709633609000000017792851573313053824_);fill:url(#SVGID_00000127034457652086825900000007069500373665669258_);" width="1440" height="577"/>
	<g style="clip-path:url(#SVGID_00000016780100709633609000000017792851573313053824_);">
		<g class="st2">
			<g>
				<line class="st3" x1="1509.94" y1="-57.4" x2="1407.2" y2="45.51"/>
				<g>
					<path class="st4" d="M1405.12,43.42c-1.15,1.15-1.15,3.02,0,4.17c1.15,1.15,3.02,1.15,4.17,0c1.15-1.15,1.15-3.02,0-4.17
						C1408.14,42.27,1406.27,42.27,1405.12,43.42z"/>
				</g>
			</g>
		</g>
		<g class="st2">
			<g>
				<line class="st3" x1="1304.47" y1="250.81" x2="1098.99" y2="353.55"/>
				<g>
					<path class="st4" d="M1303.15,248.17c1.46-0.73,3.23-0.14,3.96,1.32c0.73,1.46,0.14,3.23-1.32,3.96
						c-1.46,0.73-3.23,0.14-3.96-1.32C1301.1,250.68,1301.69,248.9,1303.15,248.17z"/>
				</g>
				<g>
					<path class="st4" d="M1097.67,350.91c-1.46,0.73-2.05,2.5-1.32,3.96c0.73,1.46,2.5,2.05,3.96,1.32
						c1.46-0.73,2.05-2.5,1.32-3.96C1100.9,350.77,1099.13,350.18,1097.67,350.91z"/>
				</g>
			</g>
		</g>
		<g class="st2">
			<g>
				<line class="st3" x1="1304.47" y1="250.81" x2="1612.68" y2="250.81"/>
				<g>
					<circle class="st4" cx="1304.47" cy="250.81" r="2.95"/>
				</g>
			</g>
		</g>
		<g class="st2">
			<g>
				<line class="st3" x1="1098.99" y1="353.55" x2="1612.68" y2="456.29"/>
				<g>
					<path class="st4" d="M1098.42,356.44c-1.6-0.32-2.63-1.87-2.31-3.47c0.32-1.6,1.87-2.63,3.47-2.31
						c1.6,0.32,2.63,1.87,2.31,3.47C1101.57,355.73,1100.01,356.76,1098.42,356.44z"/>
				</g>
			</g>
		</g>
		<g class="st2">
			<g>
				<line class="st3" x1="1098.99" y1="661.76" x2="1201.73" y2="559.02"/>
				<g>
					<path class="st4" d="M1203.82,561.11c1.15-1.15,1.15-3.02,0-4.17c-1.15-1.15-3.02-1.15-4.17,0c-1.15,1.15-1.15,3.02,0,4.17
						C1200.8,562.26,1202.66,562.26,1203.82,561.11z"/>
				</g>
			</g>
		</g>
		<g class="st2">
			<g>
				<line class="st3" x1="688.05" y1="559.02" x2="1201.73" y2="559.02"/>
				<g>
					<path class="st4" d="M688.05,561.97c-1.63,0-2.95-1.32-2.95-2.95c0-1.63,1.32-2.95,2.95-2.95s2.95,1.32,2.95,2.95
						C691,560.65,689.68,561.97,688.05,561.97z"/>
				</g>
				<g>
					<path class="st4" d="M1201.73,561.97c1.63,0,2.95-1.32,2.95-2.95c0-1.63-1.32-2.95-2.95-2.95s-2.95,1.32-2.95,2.95
						C1198.78,560.65,1200.1,561.97,1201.73,561.97z"/>
				</g>
			</g>
		</g>
		<g class="st2">
			<g>
				<line class="st3" x1="1612.68" y1="45.34" x2="1407.2" y2="45.34"/>
				<g>
					<circle class="st4" cx="1407.2" cy="45.34" r="2.95"/>
				</g>
			</g>
		</g>
		<g class="st2">
			<g>
				<line class="st3" x1="1304.47" y1="-57.4" x2="1407.2" y2="45.34"/>
				<g>
					<path class="st4" d="M1405.12,47.43c1.15,1.15,3.02,1.15,4.17,0c1.15-1.15,1.15-3.02,0-4.17c-1.15-1.15-3.02-1.15-4.17,0
						C1403.97,44.41,1403.97,46.27,1405.12,47.43z"/>
				</g>
			</g>
		</g>
		<g class="st6">
			<g>
				<line class="st3" x1="1098.99" y1="661.76" x2="1201.73" y2="558.86"/>
				<g>
					<path class="st4" d="M1203.82,560.94c1.15-1.15,1.15-3.02,0-4.17c-1.15-1.15-3.02-1.15-4.17,0c-1.15,1.15-1.15,3.02,0,4.17
						C1200.8,562.1,1202.67,562.09,1203.82,560.94z"/>
				</g>
			</g>
		</g>
		<g class="st6">
			<g>
				<line class="st3" x1="893.52" y1="456.29" x2="893.52" y2="661.76"/>
				<g>
					<circle class="st4" cx="893.52" cy="456.29" r="2.95"/>
				</g>
			</g>
		</g>
		<g class="st2">
			<g>
				<line class="st3" x1="893.52" y1="456.29" x2="1098.99" y2="353.55"/>
				<g>
					<path class="st4" d="M894.84,458.93c-1.46,0.73-3.23,0.14-3.96-1.32c-0.73-1.46-0.14-3.23,1.32-3.96
						c1.46-0.73,3.23-0.14,3.96,1.32C896.89,456.42,896.3,458.2,894.84,458.93z"/>
				</g>
				<g>
					<path class="st4" d="M1100.31,356.19c1.46-0.73,2.05-2.5,1.32-3.96c-0.73-1.46-2.5-2.05-3.96-1.32
						c-1.46,0.73-2.05,2.5-1.32,3.96C1097.08,356.33,1098.86,356.92,1100.31,356.19z"/>
				</g>
			</g>
		</g>
		<g class="st6">
			<g>
				<line class="st3" x1="1098.99" y1="353.55" x2="1304.47" y2="250.81"/>
				<g>
					<path class="st4" d="M1100.31,356.19c-1.46,0.73-3.23,0.14-3.96-1.32c-0.73-1.46-0.14-3.23,1.32-3.96
						c1.46-0.73,3.23-0.14,3.96,1.32C1102.36,353.69,1101.77,355.46,1100.31,356.19z"/>
				</g>
				<g>
					<path class="st4" d="M1305.79,253.45c1.46-0.73,2.05-2.5,1.32-3.96c-0.73-1.46-2.5-2.05-3.96-1.32
						c-1.46,0.73-2.05,2.5-1.32,3.96C1302.56,253.59,1304.33,254.18,1305.79,253.45z"/>
				</g>
			</g>
		</g>
		<g class="st2">
			<g>
				<line class="st3" x1="1304.47" y1="250.81" x2="996.26" y2="148.08"/>
				<g>
					<path class="st4" d="M1305.4,248.01c1.55,0.52,2.38,2.19,1.87,3.73c-0.52,1.55-2.19,2.38-3.73,1.87
						c-1.55-0.52-2.38-2.19-1.87-3.73C1302.18,248.33,1303.85,247.5,1305.4,248.01z"/>
				</g>
				<g>
					<path class="st4" d="M997.19,145.28c-1.55-0.52-3.22,0.32-3.73,1.87c-0.52,1.55,0.32,3.22,1.87,3.73
						c1.55,0.52,3.22-0.32,3.73-1.87C999.57,147.46,998.74,145.79,997.19,145.28z"/>
				</g>
			</g>
		</g>
		<g class="st6">
			<g>
				<line class="st3" x1="996.26" y1="-57.4" x2="996.26" y2="148.08"/>
				<g>
					<path class="st4" d="M993.31,148.08c0,1.63,1.32,2.95,2.95,2.95c1.63,0,2.95-1.32,2.95-2.95s-1.32-2.95-2.95-2.95
						C994.63,145.13,993.31,146.45,993.31,148.08z"/>
				</g>
			</g>
		</g>
		<g class="st6">
			<g>
				<line class="st3" x1="1509.94" y1="-57.4" x2="1407.2" y2="45.34"/>
				<g>
					<circle class="st4" cx="1407.2" cy="45.34" r="2.95"/>
				</g>
			</g>
		</g>
		<g class="st7">
			<g class="st2">
				<g>
					<line class="st3" x1="1407.2" y1="559.02" x2="1200.17" y2="661.76"/>
					<g>
						<path class="st4" d="M1405.89,556.38c1.46-0.72,3.23-0.13,3.96,1.33c0.72,1.46,0.13,3.23-1.33,3.96
							c-1.46,0.72-3.23,0.13-3.96-1.33C1403.84,558.88,1404.43,557.11,1405.89,556.38z"/>
					</g>
				</g>
			</g>
		</g>
		<g class="st7">
			<g class="st2">
				<g>
					<line class="st3" x1="1098.99" y1="559.02" x2="1150.36" y2="610.39"/>
					<g>
						<path class="st4" d="M1096.91,561.11c-1.15-1.15-1.15-3.02,0-4.17c1.15-1.15,3.02-1.15,4.17,0c1.15,1.15,1.15,3.02,0,4.17
							C1099.93,562.26,1098.06,562.26,1096.91,561.11z"/>
					</g>
				</g>
			</g>
			<g class="st2">
				<g>
					<line class="st3" x1="1098.99" y1="559.02" x2="1098.99" y2="353.55"/>
					<g>
						<path class="st4" d="M1101.94,559.02c0,1.63-1.32,2.95-2.95,2.95s-2.95-1.32-2.95-2.95c0-1.63,1.32-2.95,2.95-2.95
							S1101.94,557.4,1101.94,559.02z"/>
					</g>
					<g>
						<circle class="st4" cx="1098.99" cy="353.55" r="2.95"/>
					</g>
				</g>
			</g>
			<g class="st2">
				<g>
					<line class="st3" x1="1098.99" y1="353.55" x2="1407.2" y2="559.02"/>
					<g>
						<circle class="st4" cx="1098.99" cy="353.55" r="2.95"/>
					</g>
					<g>
						<path class="st4" d="M1405.57,561.48c1.36,0.9,3.19,0.54,4.09-0.82c0.9-1.36,0.54-3.19-0.82-4.09
							c-1.36-0.9-3.19-0.54-4.09,0.82C1403.85,558.74,1404.21,560.58,1405.57,561.48z"/>
					</g>
				</g>
			</g>
			<g class="st2">
				<g>
					<line class="st3" x1="1509.94" y1="661.76" x2="1407.2" y2="559.02"/>
					<g>
						<path class="st4" d="M1409.29,556.94c-1.15-1.15-3.02-1.15-4.17,0c-1.15,1.15-1.15,3.02,0,4.17c1.15,1.15,3.02,1.15,4.17,0
							C1410.44,559.96,1410.44,558.09,1409.29,556.94z"/>
					</g>
				</g>
			</g>
		</g>
		<g class="st2">
			<g>
				<line class="st3" x1="1200.17" y1="558.86" x2="1200.17" y2="867.24"/>
				<g>
					<circle class="st4" cx="1200.17" cy="558.86" r="2.95"/>
				</g>
			</g>
		</g>
		<g class="st7">
			<g class="st2">
				<g>
					<line class="st3" x1="996.26" y1="404.92" x2="996.26" y2="148.08"/>
					<g>
						<path class="st4" d="M999.21,404.92c0,1.63-1.32,2.95-2.95,2.95c-1.63,0-2.95-1.32-2.95-2.95s1.32-2.95,2.95-2.95
							C997.89,401.97,999.21,403.29,999.21,404.92z"/>
					</g>
					<g>
						<path class="st4" d="M999.21,148.08c0-1.63-1.32-2.95-2.95-2.95c-1.63,0-2.95,1.32-2.95,2.95c0,1.63,1.32,2.95,2.95,2.95
							C997.89,151.03,999.21,149.71,999.21,148.08z"/>
					</g>
				</g>
			</g>
			<g class="st2">
				<g>
					<line class="st3" x1="996.26" y1="404.92" x2="996.26" y2="148.08"/>
					<g>
						<path class="st4" d="M999.21,404.92c0,1.63-1.32,2.95-2.95,2.95c-1.63,0-2.95-1.32-2.95-2.95s1.32-2.95,2.95-2.95
							C997.89,401.97,999.21,403.29,999.21,404.92z"/>
					</g>
					<g>
						<path class="st4" d="M999.21,148.08c0-1.63-1.32-2.95-2.95-2.95c-1.63,0-2.95,1.32-2.95,2.95c0,1.63,1.32,2.95,2.95,2.95
							C997.89,151.03,999.21,149.71,999.21,148.08z"/>
					</g>
				</g>
			</g>
			<g class="st2">
				<g>
					<line class="st3" x1="1304.47" y1="-57.4" x2="996.26" y2="148.08"/>
					<g>
						<path class="st4" d="M994.62,145.62c-1.36,0.9-1.72,2.74-0.82,4.09c0.9,1.36,2.74,1.72,4.09,0.82
							c1.36-0.9,1.72-2.74,0.82-4.09C997.81,145.08,995.98,144.72,994.62,145.62z"/>
					</g>
				</g>
			</g>
			<g class="st2">
				<g>
					<line class="st3" x1="1098.99" y1="353.55" x2="996.26" y2="148.08"/>
					<g>
						<path class="st4" d="M1101.63,352.23c0.73,1.46,0.14,3.23-1.32,3.96c-1.46,0.73-3.23,0.14-3.96-1.32
							c-0.73-1.46-0.14-3.23,1.32-3.96C1099.13,350.18,1100.9,350.77,1101.63,352.23z"/>
					</g>
					<g>
						<path class="st4" d="M998.9,146.76c-0.73-1.46-2.5-2.05-3.96-1.32c-1.46,0.73-2.05,2.5-1.32,3.96
							c0.73,1.46,2.5,2.05,3.96,1.32C999.03,149.99,999.62,148.21,998.9,146.76z"/>
					</g>
				</g>
			</g>
			<g class="st2">
				<g>
					<line class="st3" x1="790.78" y1="148.08" x2="996.26" y2="148.08"/>
					<g>
						<path class="st4" d="M790.78,151.03c-1.63,0-2.95-1.32-2.95-2.95s1.32-2.95,2.95-2.95s2.95,1.32,2.95,2.95
							S792.41,151.03,790.78,151.03z"/>
					</g>
					<g>
						<path class="st4" d="M996.26,151.03c1.63,0,2.95-1.32,2.95-2.95s-1.32-2.95-2.95-2.95s-2.95,1.32-2.95,2.95
							S994.63,151.03,996.26,151.03z"/>
					</g>
				</g>
			</g>
			<g class="st2">
				<g>
					<line class="st3" x1="790.78" y1="-57.4" x2="996.26" y2="148.08"/>
					<g>
						<circle class="st4" cx="996.26" cy="148.08" r="2.95"/>
					</g>
				</g>
			</g>
			<g class="st2">
				<g>
					<line class="st3" x1="790.78" y1="148.08" x2="893.52" y2="456.29"/>
					<g>
						<path class="st4" d="M787.98,149.01c-0.52-1.55,0.32-3.22,1.87-3.73c1.55-0.52,3.22,0.32,3.73,1.87
							c0.52,1.55-0.32,3.22-1.87,3.73C790.17,151.39,788.5,150.56,787.98,149.01z"/>
					</g>
					<g>
						<path class="st4" d="M890.72,457.22c0.52,1.55,2.19,2.38,3.73,1.87c1.55-0.52,2.38-2.19,1.87-3.73
							c-0.52-1.55-2.19-2.38-3.73-1.87C891.04,454,890.21,455.67,890.72,457.22z"/>
					</g>
				</g>
			</g>
			<g class="st2">
				<g>
					<line class="st3" x1="996.26" y1="-262.87" x2="996.26" y2="148.08"/>
					<g>
						<path class="st4" d="M993.31,148.08c0,1.63,1.32,2.95,2.95,2.95c1.63,0,2.95-1.32,2.95-2.95s-1.32-2.95-2.95-2.95
							C994.63,145.13,993.31,146.45,993.31,148.08z"/>
					</g>
				</g>
			</g>
			<g class="st2">
				<g>
					<line class="st3" x1="1612.68" y1="148.08" x2="996.26" y2="148.08"/>
					<g>
						<path class="st4" d="M996.26,145.13c-1.63,0-2.95,1.32-2.95,2.95s1.32,2.95,2.95,2.95c1.63,0,2.95-1.32,2.95-2.95
							S997.89,145.13,996.26,145.13z"/>
					</g>
				</g>
			</g>
		</g>
		<g class="st2">
			<g>
				<line class="st3" x1="585.31" y1="456.29" x2="688.05" y2="559.02"/>
				<g>
					<circle class="st4" cx="585.31" cy="456.29" r="2.95"/>
				</g>
				<g>
					<circle class="st4" cx="688.05" cy="559.02" r="2.95"/>
				</g>
			</g>
		</g>
		<g class="st2">
			<g>
				<line class="st3" x1="277.1" y1="661.76" x2="277.1" y2="559.02"/>
				<g>
					<path class="st4" d="M280.05,559.02c0-1.63-1.32-2.95-2.95-2.95s-2.95,1.32-2.95,2.95c0,1.63,1.32,2.95,2.95,2.95
						S280.05,560.65,280.05,559.02z"/>
				</g>
			</g>
		</g>
		<g class="st2">
			<g>
				<line class="st3" x1="277.1" y1="559.02" x2="174.36" y2="456.29"/>
				<g>
					<circle class="st4" cx="277.1" cy="559.02" r="2.95"/>
				</g>
				<g>
					<circle class="st4" cx="174.36" cy="456.29" r="2.95"/>
				</g>
			</g>
		</g>
		<g class="st2">
			<g>
				<line class="st3" x1="277.1" y1="353.55" x2="174.36" y2="456.29"/>
				<g>
					<circle class="st4" cx="277.1" cy="353.55" r="2.95"/>
				</g>
				<g>
					<circle class="st4" cx="174.36" cy="456.29" r="2.95"/>
				</g>
			</g>
		</g>
		<g class="st2">
			<g>
				<line class="st3" x1="277.1" y1="353.55" x2="378.27" y2="456.29"/>
				<g>
					<path class="st4" d="M275,355.62c-1.14-1.16-1.13-3.03,0.03-4.17c1.16-1.14,3.03-1.13,4.17,0.03c1.14,1.16,1.13,3.03-0.03,4.17
						C278.01,356.8,276.14,356.78,275,355.62z"/>
				</g>
				<g>
					<path class="st4" d="M376.17,458.36c1.14,1.16,3.01,1.18,4.17,0.03c1.16-1.14,1.18-3.01,0.03-4.17
						c-1.14-1.16-3.01-1.18-4.17-0.03C375.04,455.33,375.02,457.2,376.17,458.36z"/>
				</g>
			</g>
		</g>
		<g class="st2">
			<g>
				<line class="st3" x1="174.36" y1="661.76" x2="174.36" y2="456.29"/>
				<g>
					<circle class="st4" cx="174.36" cy="456.29" r="2.95"/>
				</g>
			</g>
		</g>
		<g class="st2">
			<g>
				<line class="st3" x1="71.62" y1="353.55" x2="174.36" y2="456.29"/>
				<g>
					<circle class="st4" cx="71.62" cy="353.55" r="2.95"/>
				</g>
				<g>
					<circle class="st4" cx="174.36" cy="456.29" r="2.95"/>
				</g>
			</g>
		</g>
		<g class="st2">
			<g>
				<line class="st3" x1="-133.85" y1="456.29" x2="71.62" y2="148.02"/>
				<g>
					<path class="st4" d="M74.08,149.66c0.9-1.36,0.54-3.19-0.82-4.09c-1.36-0.9-3.19-0.54-4.09,0.82s-0.54,3.19,0.82,4.09
						S73.18,151.01,74.08,149.66z"/>
				</g>
			</g>
		</g>
		<g class="st2">
			<g>
				<line class="st3" x1="-31.11" y1="45.34" x2="174.36" y2="45.34"/>
				<g>
					<circle class="st4" cx="174.36" cy="45.34" r="2.95"/>
				</g>
			</g>
		</g>
		<g class="st2">
			<g>
				<line class="st3" x1="277.1" y1="148.08" x2="174.36" y2="45.34"/>
				<g>
					<circle class="st4" cx="277.1" cy="148.08" r="2.95"/>
				</g>
				<g>
					<circle class="st4" cx="174.36" cy="45.34" r="2.95"/>
				</g>
			</g>
		</g>
		<g class="st2">
			<g>
				<line class="st3" x1="277.1" y1="148.08" x2="790.78" y2="148.08"/>
				<g>
					<path class="st4" d="M277.1,151.03c-1.63,0-2.95-1.32-2.95-2.95s1.32-2.95,2.95-2.95s2.95,1.32,2.95,2.95
						S278.73,151.03,277.1,151.03z"/>
				</g>
				<g>
					<path class="st4" d="M790.78,151.03c1.63,0,2.95-1.32,2.95-2.95s-1.32-2.95-2.95-2.95s-2.95,1.32-2.95,2.95
						S789.15,151.03,790.78,151.03z"/>
				</g>
			</g>
		</g>
		<g class="st2">
			<g>
				<line class="st3" x1="482.57" y1="145.76" x2="482.57" y2="353.55"/>
				<g>
					<circle class="st4" cx="482.57" cy="145.76" r="2.95"/>
				</g>
				<g>
					<circle class="st4" cx="482.57" cy="353.55" r="2.95"/>
				</g>
			</g>
		</g>
		<g class="st2">
			<g>
				<line class="st3" x1="482.57" y1="145.76" x2="688.05" y2="353.55"/>
				<g>
					<path class="st4" d="M480.47,147.84c-1.15-1.16-1.14-3.03,0.02-4.17c1.16-1.15,3.03-1.14,4.17,0.02
						c1.15,1.16,1.14,3.03-0.02,4.17C483.49,149.01,481.62,149,480.47,147.84z"/>
				</g>
				<g>
					<path class="st4" d="M685.95,355.63c1.15,1.16,3.01,1.17,4.17,0.02s1.17-3.01,0.02-4.17c-1.15-1.16-3.01-1.17-4.17-0.02
						C684.81,352.6,684.8,354.47,685.95,355.63z"/>
				</g>
			</g>
		</g>
		<g class="st2">
			<g>
				<line class="st3" x1="688.05" y1="353.55" x2="482.57" y2="353.55"/>
				<g>
					<circle class="st4" cx="688.05" cy="353.55" r="2.95"/>
				</g>
				<g>
					<circle class="st4" cx="482.57" cy="353.55" r="2.95"/>
				</g>
			</g>
		</g>
		<g class="st2">
			<g>
				<line class="st3" x1="688.05" y1="353.55" x2="688.05" y2="661.76"/>
				<g>
					<circle class="st4" cx="688.05" cy="353.55" r="2.95"/>
				</g>
			</g>
		</g>
		<g class="st2">
			<g>
				<line class="st3" x1="277.36" y1="41.27" x2="379.83" y2="-160.13"/>
				<g>
					<path class="st4" d="M279.99,42.61c-0.74,1.45-2.52,2.03-3.97,1.29c-1.45-0.74-2.03-2.52-1.29-3.97
						c0.74-1.45,2.52-2.03,3.97-1.29S280.73,41.16,279.99,42.61z"/>
				</g>
			</g>
		</g>
		<g class="st2">
			<g>
				<line class="st3" x1="-31.11" y1="148.08" x2="277.1" y2="148.08"/>
				<g>
					<path class="st4" d="M277.1,151.03c1.63,0,2.95-1.32,2.95-2.95s-1.32-2.95-2.95-2.95s-2.95,1.32-2.95,2.95
						S275.47,151.03,277.1,151.03z"/>
				</g>
			</g>
		</g>
		<g class="st7">
			<g class="st2">
				<g>
					<line class="st3" x1="277.36" y1="41.27" x2="482.57" y2="-57.57"/>
					<g>
						<path class="st4" d="M278.65,43.93c-1.47,0.71-3.23,0.09-3.94-1.38c-0.71-1.47-0.09-3.23,1.38-3.94
							c1.47-0.71,3.23-0.09,3.94,1.38C280.73,41.46,280.11,43.22,278.65,43.93z"/>
					</g>
				</g>
			</g>
			<g class="st2">
				<g>
					<line class="st3" x1="790.78" y1="148.08" x2="482.57" y2="-57.57"/>
					<g>
						<path class="st4" d="M792.42,145.62c1.36,0.9,1.72,2.74,0.82,4.09c-0.9,1.35-2.74,1.72-4.09,0.82s-1.72-2.74-0.82-4.09
							C789.23,145.08,791.06,144.72,792.42,145.62z"/>
					</g>
				</g>
			</g>
			<g class="st2">
				<g>
					<line class="st3" x1="482.57" y1="148.08" x2="482.57" y2="-57.57"/>
					<g>
						<circle class="st4" cx="482.57" cy="148.08" r="2.95"/>
					</g>
				</g>
			</g>
			<g class="st2">
				<g>
					<line class="st3" x1="277.36" y1="41.27" x2="174.36" y2="45.34"/>
					<g>
						<path class="st4" d="M277.25,38.32c1.63-0.06,3,1.2,3.06,2.83c0.06,1.63-1.2,3-2.83,3.06s-3-1.2-3.06-2.83
							C274.35,39.76,275.62,38.39,277.25,38.32z"/>
					</g>
					<g>
						<path class="st4" d="M174.24,42.39c-1.63,0.06-2.9,1.44-2.83,3.06c0.06,1.63,1.44,2.9,3.06,2.83c1.63-0.06,2.9-1.44,2.83-3.06
							C177.25,43.59,175.87,42.33,174.24,42.39z"/>
					</g>
				</g>
			</g>
			<g class="st2">
				<g>
					<line class="st3" x1="174.36" y1="-160.13" x2="174.36" y2="45.34"/>
					<g>
						<circle class="st4" cx="174.36" cy="45.34" r="2.95"/>
					</g>
				</g>
			</g>
			<g class="st2">
				<g>
					<line class="st3" x1="585.31" y1="-262.87" x2="790.78" y2="148.08"/>
					<g>
						<path class="st4" d="M788.14,149.4c0.73,1.46,2.5,2.05,3.96,1.32c1.46-0.73,2.05-2.5,1.32-3.96s-2.5-2.05-3.96-1.32
							C788.01,146.17,787.42,147.94,788.14,149.4z"/>
					</g>
				</g>
			</g>
		</g>
		<g class="st7">
			<g class="st2">
				<g>
					<line class="st3" x1="277.1" y1="559.02" x2="174.36" y2="661.76"/>
					<g>
						<path class="st4" d="M275.01,556.94c1.15-1.15,3.02-1.15,4.17,0c1.15,1.15,1.15,3.02,0,4.17c-1.15,1.15-3.02,1.15-4.17,0
							C273.86,559.96,273.86,558.09,275.01,556.94z"/>
					</g>
				</g>
			</g>
			<g class="st2">
				<g>
					<line class="st3" x1="277.1" y1="559.02" x2="482.57" y2="764.5"/>
					<g>
						<path class="st4" d="M275.01,561.11c-1.15-1.15-1.15-3.02,0-4.17c1.15-1.15,3.02-1.15,4.17,0c1.15,1.15,1.15,3.02,0,4.17
							C278.03,562.26,276.16,562.26,275.01,561.11z"/>
					</g>
				</g>
			</g>
			<g class="st2">
				<g>
					<line class="st3" x1="893.52" y1="661.76" x2="893.52" y2="456.29"/>
					<g>
						<circle class="st4" cx="893.52" cy="456.29" r="2.95"/>
					</g>
				</g>
			</g>
			<g class="st2">
				<g>
					<line class="st3" x1="893.52" y1="661.76" x2="893.52" y2="559.02"/>
					<g>
						<path class="st4" d="M896.47,559.02c0-1.63-1.32-2.95-2.95-2.95s-2.95,1.32-2.95,2.95c0,1.63,1.32,2.95,2.95,2.95
							S896.47,560.65,896.47,559.02z"/>
					</g>
				</g>
			</g>
			<g class="st2">
				<g>
					<line class="st3" x1="277.1" y1="559.02" x2="688.05" y2="559.02"/>
					<g>
						<path class="st4" d="M277.1,561.97c-1.63,0-2.95-1.32-2.95-2.95c0-1.63,1.32-2.95,2.95-2.95s2.95,1.32,2.95,2.95
							C280.05,560.65,278.73,561.97,277.1,561.97z"/>
					</g>
					<g>
						<path class="st4" d="M688.05,561.97c1.63,0,2.95-1.32,2.95-2.95c0-1.63-1.32-2.95-2.95-2.95s-2.95,1.32-2.95,2.95
							C685.1,560.65,686.42,561.97,688.05,561.97z"/>
					</g>
				</g>
			</g>
		</g>
		<g class="st7">
		</g>
		<g class="st7">
			<g class="st2">
				<g>
					<line class="st3" x1="174.36" y1="-160.13" x2="277.36" y2="41.27"/>
					<g>
						<path class="st4" d="M274.74,42.61c0.74,1.45,2.52,2.03,3.97,1.28c1.45-0.74,2.03-2.52,1.28-3.97
							c-0.74-1.45-2.52-2.03-3.97-1.28C274.57,39.38,274,41.16,274.74,42.61z"/>
					</g>
				</g>
			</g>
			<g class="st2">
				<g>
					<line class="st3" x1="277.1" y1="148.08" x2="277.36" y2="41.27"/>
					<g>
						<path class="st4" d="M280.05,148.08c0,1.63-1.33,2.95-2.96,2.94c-1.63,0-2.95-1.33-2.94-2.96c0-1.63,1.33-2.95,2.96-2.94
							C278.73,145.13,280.05,146.45,280.05,148.08z"/>
					</g>
					<g>
						<path class="st4" d="M280.32,41.28c0-1.63-1.31-2.95-2.94-2.96c-1.63,0-2.95,1.31-2.96,2.94c0,1.63,1.31,2.95,2.94,2.96
							C278.99,44.22,280.31,42.91,280.32,41.28z"/>
					</g>
				</g>
			</g>
			<g class="st2">
				<g>
					<line class="st3" x1="174.51" y1="45.51" x2="-31.11" y2="-160.13"/>
					<g>
						<path class="st4" d="M176.6,43.42c1.15,1.15,1.15,3.02,0,4.17c-1.15,1.15-3.02,1.15-4.17,0c-1.15-1.15-1.15-3.02,0-4.17
							C173.57,42.27,175.44,42.27,176.6,43.42z"/>
					</g>
				</g>
			</g>
			<g class="st2">
				<g>
					<line class="st3" x1="-236.59" y1="456.29" x2="174.36" y2="456.29"/>
					<g>
						<circle class="st4" cx="174.36" cy="456.29" r="2.95"/>
					</g>
				</g>
			</g>
			<g class="st2">
				<g>
					<line class="st3" x1="277.1" y1="456.29" x2="585.31" y2="456.29"/>
					<g>
						<circle class="st4" cx="277.1" cy="456.29" r="2.95"/>
					</g>
					<g>
						<circle class="st4" cx="585.31" cy="456.29" r="2.95"/>
					</g>
				</g>
			</g>
			<g class="st2">
				<g>
					<line class="st3" x1="71.62" y1="148.02" x2="71.62" y2="353.55"/>
					<g>
						<circle class="st4" cx="71.62" cy="148.02" r="2.95"/>
					</g>
					<g>
						<circle class="st4" cx="71.62" cy="353.55" r="2.95"/>
					</g>
				</g>
			</g>
			<g class="st2">
				<g>
					<line class="st3" x1="71.62" y1="353.55" x2="-133.85" y2="456.29"/>
					<g>
						<path class="st4" d="M70.3,350.91c1.46-0.73,3.23-0.14,3.96,1.32c0.73,1.46,0.14,3.23-1.32,3.96s-3.23,0.14-3.96-1.32
							C68.26,353.41,68.85,351.64,70.3,350.91z"/>
					</g>
				</g>
			</g>
			<g class="st2">
				<g>
					<line class="st3" x1="71.62" y1="353.55" x2="277.1" y2="353.55"/>
					<g>
						<circle class="st4" cx="71.62" cy="353.55" r="2.95"/>
					</g>
					<g>
						<circle class="st4" cx="277.1" cy="353.55" r="2.95"/>
					</g>
				</g>
			</g>
			<g class="st2">
				<g>
					<line class="st3" x1="277.1" y1="559.02" x2="277.1" y2="353.55"/>
					<g>
						<path class="st4" d="M280.05,559.02c0,1.63-1.32,2.95-2.95,2.95s-2.95-1.32-2.95-2.95c0-1.63,1.32-2.95,2.95-2.95
							S280.05,557.4,280.05,559.02z"/>
					</g>
					<g>
						<circle class="st4" cx="277.1" cy="353.55" r="2.95"/>
					</g>
				</g>
			</g>
		</g>
		<g class="st2">
			<g>
				<line class="st3" x1="688.05" y1="559.02" x2="585.31" y2="661.76"/>
				<g>
					<path class="st4" d="M685.96,556.94c1.15-1.15,3.02-1.15,4.17,0c1.15,1.15,1.15,3.02,0,4.17c-1.15,1.15-3.02,1.15-4.17,0
						C684.81,559.96,684.81,558.09,685.96,556.94z"/>
				</g>
			</g>
		</g>
		<g class="st7">
			<g class="st2">
				<g>
					<line class="st3" x1="688.05" y1="559.02" x2="688.05" y2="353.55"/>
					<g>
						<path class="st4" d="M691,559.02c0,1.63-1.32,2.95-2.95,2.95s-2.95-1.32-2.95-2.95c0-1.63,1.32-2.95,2.95-2.95
							S691,557.4,691,559.02z"/>
					</g>
					<g>
						<circle class="st4" cx="688.05" cy="353.55" r="2.95"/>
					</g>
				</g>
			</g>
			<g class="st2">
				<g>
					<line class="st3" x1="790.78" y1="148.08" x2="688.05" y2="353.55"/>
					<g>
						<path class="st4" d="M788.14,146.76c0.73-1.46,2.5-2.05,3.96-1.32c1.46,0.73,2.05,2.5,1.32,3.96s-2.5,2.05-3.96,1.32
							C788.01,149.99,787.42,148.21,788.14,146.76z"/>
					</g>
					<g>
						<path class="st4" d="M685.41,352.23c-0.73,1.46-0.14,3.23,1.32,3.96c1.46,0.73,3.23,0.14,3.96-1.32
							c0.73-1.46,0.14-3.23-1.32-3.96C687.91,350.18,686.14,350.77,685.41,352.23z"/>
					</g>
				</g>
			</g>
			<g class="st2">
				<g>
					<line class="st3" x1="893.52" y1="456.29" x2="688.05" y2="353.55"/>
					<g>
						<path class="st4" d="M894.84,453.65c1.46,0.73,2.05,2.5,1.32,3.96c-0.73,1.46-2.5,2.05-3.96,1.32
							c-1.46-0.73-2.05-2.5-1.32-3.96C891.61,453.51,893.38,452.92,894.84,453.65z"/>
					</g>
					<g>
						<path class="st4" d="M689.37,350.91c-1.46-0.73-3.23-0.14-3.96,1.32c-0.73,1.46-0.14,3.23,1.32,3.96
							c1.46,0.73,3.23,0.14,3.96-1.32C691.41,353.41,690.82,351.64,689.37,350.91z"/>
					</g>
				</g>
			</g>
			<g class="st2">
				<g>
					<line class="st3" x1="585.31" y1="456.29" x2="688.05" y2="353.55"/>
					<g>
						<circle class="st4" cx="585.31" cy="456.29" r="2.95"/>
					</g>
					<g>
						<circle class="st4" cx="688.05" cy="353.55" r="2.95"/>
					</g>
				</g>
			</g>
		</g>
		<g class="st2">
			<g>
				<line class="st3" x1="482.57" y1="353.55" x2="277.1" y2="353.55"/>
				<g>
					<circle class="st4" cx="482.57" cy="353.55" r="2.95"/>
				</g>
				<g>
					<circle class="st4" cx="277.1" cy="353.55" r="2.95"/>
				</g>
			</g>
		</g>
		<circle class="st4" cx="174.51" cy="45.51" r="2.31"/>
		<circle class="st4" cx="482.57" cy="148.08" r="2.31"/>
		<circle class="st4" cx="277.36" cy="148.08" r="2.31"/>
		<circle class="st4" cx="1304.23" cy="251.09" r="2.31"/>
		<circle class="st4" cx="893.52" cy="558.06" r="2.31"/>
		<circle class="st9" cx="1407.2" cy="559.02" r="2.31"/>
		<circle class="st4" cx="1200.37" cy="559.02" r="2.31"/>
		<circle class="st9" cx="174.51" cy="45.51" r="3.15"/>
		<circle class="st4" cx="174.51" cy="456.77" r="2.31"/>
		<circle class="st4" cx="996.86" cy="148.13" r="6.93"/>
		<circle class="st8" cx="996.86" cy="148.13" r="17.64"/>
		<circle class="st10" cx="996.86" cy="148.13" r="28.87"/>
		<g>
			<circle class="st4" cx="688.71" cy="353.32" r="4.24"/>
			<circle class="st8" cx="688.71" cy="353.32" r="10.79"/>
			<circle class="st10" cx="688.71" cy="353.32" r="17.64"/>
			<circle class="st4" cx="688.71" cy="353.32" r="4.24"/>
			<circle class="st11" cx="996.26" cy="404.92" r="4.24"/>
		</g>
		<g>
			<circle class="st4" cx="277.36" cy="41.27" r="4.24"/>
			<circle class="st8" cx="277.36" cy="41.27" r="10.79"/>
			<circle class="st10" cx="277.36" cy="41.27" r="17.64"/>
			<circle class="st4" cx="277.36" cy="41.27" r="4.24"/>
		</g>
		<circle class="st12" cx="277.1" cy="353.55" r="8.43"/>
		<circle class="st13" cx="71.62" cy="148.02" r="8.43"/>
		<circle class="st13" cx="1304.23" cy="252.12" r="5.15"/>
		<circle class="st14" cx="1407.2" cy="45.34" r="5.15"/>
		<circle class="st15" cx="1200.37" cy="558.96" r="5.15"/>
		<circle class="st14" cx="893.25" cy="558.43" r="5.15"/>
		<circle class="st15" cx="482.57" cy="148.32" r="7.88"/>
	</g>
	<g style="clip-path:url(#SVGID_00000016780100709633609000000017792851573313053824_);">
		<defs>
			<rect id="SVGID_00000070109933632505083620000008630203265011053992_" y="255.7" width="1440" height="321.3"/>
		</defs>
		<clipPath id="SVGID_00000061447639636731081730000017675068374365292163_">
			<use xlink:href="#SVGID_00000070109933632505083620000008630203265011053992_"  style="overflow:visible;"/>
		</clipPath>
		<path style="clip-path:url(#SVGID_00000061447639636731081730000017675068374365292163_);fill:#000A34;" d="M1017.46,581.95
			c-17.4,9.58-42,5.35-61.88,5.35c-23.52,0-47.03,0-70.55,0c-46.49,0-92.98,0-139.48,0c-90.08,0-180.16,0-270.24,0
			c-162.58,0-325.15,0-487.73,0c-127.74,0-255.49,0-383.23,0c-79.25,0-158.51,0-237.76,0c-2.85,0-58.2,0-58.2,0c0,0,0-51.64,0-51.64
			c133.81-25.16,391.48-156.85,805.8-156.85c155.12,0,308.07,28.02,455.04,69.69c112.09,31.78,219.63,74.11,331.3,106.71
			c19,5.55,38.22,10.73,57.81,14.47C977.69,573.38,1001.57,571.47,1017.46,581.95z"/>
		<path style="clip-path:url(#SVGID_00000061447639636731081730000017675068374365292163_);fill:#001854;" d="M-1899.14,649.19
			H1713.3v-45.86c-118.85-22.35-347.7-139.31-715.69-139.31c-367.99,0-601.8,120.4-720.8,139.26
			c-154.13,24.42-370.4,63.2-592.17,63.2s-290.56-63.19-489.98-63.19c-199.39,0-332.85-47.86-515-47.86s-277.96,47.86-348.51,47.86
			S-1901,506.43-1901,506.43L-1899.14,649.19z"/>
	</g>
	<g style="clip-path:url(#SVGID_00000016780100709633609000000017792851573313053824_);">
		<g>
			<path class="st18" d="M125.28,324.69l-19.66,55.93l1.94-0.03l20.74-54.8L125.28,324.69z"/>
			<path class="st18" d="M106.56,380.61l1.01,0l20.74-54.8l-1.51-0.56"/>
			<path class="st18" d="M134.48,324.7l-3.02,1.11l20.74,54.8l2.02,0.02L134.48,324.7z"/>
			<path class="st18" d="M154.23,380.63l-19.74-55.93l-1.51,0.58"/>
			<path class="st18" d="M131.49,325.79h-3.22l0.63,59.02h1.95L131.49,325.79z"/>
			<path class="st18" d="M129.89,384.81h0.97l0.63-59.02h-1.61"/>
			<path class="st19" d="M165.68,276.16c5.62-1.96,11.77,1.01,13.73,6.63c0.91,2.61,0.78,5.48-0.36,8c-1.17,2.58-3.3,4.59-5.94,5.61
				L165.68,276.16z"/>
			<path class="st18" d="M169.97,285.1l-3.23-8.8c0.71-0.16,1.43-0.25,2.15-0.25c4,0,7.97,2.72,8.59,6.88
				C178.13,287.27,172.03,289.37,169.97,285.1L169.97,285.1z"/>
			<path class="st18" d="M163.82,277.17l-25.7,9.3l7.2,19.9l25.7-9.3L163.82,277.17z"/>
			<path class="st18" d="M171.43,298.06l4.36-1.58l-8.1-22.36l-4.36,1.58L171.43,298.06z"/>
			<path class="st18" d="M144.66,304.44l-35.27,12.93l-5.88-16.43l35.21-12.91L144.66,304.44z"/>
			<path class="st18" d="M108.63,315.25l-18.46,6.69l-4.41-12.35l18.45-6.69L108.63,315.25z"/>
			<path class="st18" d="M136.59,310.65l-17.65,6.46l-1.07-2.85l17.64-6.47L136.59,310.65z"/>
			<path class="st18" d="M135.17,314.49l-12.61,4.54l-1.07-2.85l12.58-4.6L135.17,314.49z M134.48,289.59l4.24-1.55l5.95,16.4
				l-4.29,1.57L134.48,289.59z M100.88,304.11l3.34-1.21l4.42,12.35l-3.31,1.2L100.88,304.11z M85.77,309.59l3.11-1.13l4.48,12.33
				l-3.18,1.15L85.77,309.59z"/>
			<path class="st18" d="M130.03,326.82c3.18,0,5.76-2.58,5.76-5.76c0-3.18-2.58-5.76-5.76-5.76c-3.18,0-5.76,2.58-5.76,5.76
				C124.27,324.25,126.85,326.82,130.03,326.82z"/>
			<path class="st20" d="M130.03,326.82v-11.51"/>
		</g>
		<path class="st21" d="M178.81,284.42c0.29,1.42,0.24,2.9-0.14,4.3c-0.39,1.45-1.12,2.78-2.12,3.89c-0.18,0.21-0.5,0.22-0.71,0.04
			c-0.21-0.18-0.22-0.5-0.04-0.71c0,0,0,0,0,0l0.04-0.04c1.03-0.91,1.83-2.05,2.34-3.33C178.72,287.26,178.94,285.84,178.81,284.42
			L178.81,284.42z"/>
	</g>
</g>
</svg>
