<svg width="48" height="48" viewBox="0 0 48 48" fill="none" xmlns="http://www.w3.org/2000/svg">
<path d="M23.4375 11.88H12.03V14.88H23.4375V11.88Z" fill="#0055DC"/>
<path d="M43.5 24.3824C43.4968 22.2477 42.7442 20.1818 41.3735 18.5452C40.0028 16.9086 38.1011 15.8052 36 15.4274V7.31995L34.5 5.81995H7.35001L5.85001 7.31995V40.2749L7.35001 41.7749H26.85V43.4999L29.4525 44.5199L34.35 39.2249L39.2475 44.5199L41.8725 43.4999V29.5424C42.9284 28.0286 43.4962 26.2281 43.5 24.3824ZM40.5 24.3824C40.5 25.5914 40.1415 26.7732 39.4699 27.7784C38.7982 28.7836 37.8436 29.567 36.7267 30.0297C35.6097 30.4923 34.3807 30.6133 33.195 30.3775C32.0093 30.1416 30.9202 29.5595 30.0653 28.7046C29.2105 27.8498 28.6283 26.7606 28.3925 25.5749C28.1566 24.3892 28.2777 23.1602 28.7403 22.0433C29.2029 20.9264 29.9864 19.9717 30.9916 19.3001C31.9968 18.6284 33.1786 18.2699 34.3875 18.2699C36.008 18.2719 37.5616 18.9166 38.7075 20.0624C39.8534 21.2083 40.498 22.7619 40.5 24.3824ZM8.85001 38.7749V8.81995H33V15.3899C31.0581 15.6854 29.2638 16.601 27.885 17.9999H12.075V20.9999H25.92C25.5388 21.9565 25.3233 22.971 25.2825 23.9999H12.075V26.9999H25.65C25.9221 27.9108 26.3345 28.7737 26.8725 29.5574V38.7749H8.85001ZM35.4675 35.9999L34.3725 34.8149L33.2775 35.9999L29.8725 39.6749V32.2949C31.2419 33.0812 32.7934 33.4949 34.3725 33.4949C35.9516 33.4949 37.5031 33.0812 38.8725 32.2949V39.6674L35.4675 35.9999Z" fill="#0055DC"/>
</svg>
