<svg width="48" height="48" viewBox="0 0 48 48" fill="none" xmlns="http://www.w3.org/2000/svg">
<path d="M24.6292 4.509C24.5047 4.5 24.3795 4.5 24.2542 4.5H24.009C18.8372 4.5 13.8773 6.55446 10.2204 10.2114C6.56343 13.8684 4.50897 18.8283 4.50897 24C4.50897 29.1717 6.56343 34.1316 10.2204 37.7886C13.8773 41.4455 18.8372 43.5 24.009 43.5H24.2542C24.3817 43.5 24.5085 43.4963 24.6345 43.4895C29.6969 43.3287 34.4981 41.2044 38.022 37.5663C41.5459 33.9282 43.516 29.0617 43.5153 23.9967C43.5146 18.9317 41.5432 14.0658 38.0183 10.4286C34.4934 6.79143 29.6917 4.66846 24.6292 4.509ZM38.9542 17.0048H35.1037C34.5617 14.4076 33.572 11.9246 32.1787 9.66675C35.1354 11.3605 37.4999 13.9222 38.952 17.0048H38.9542ZM25.5 7.6845C28.2877 8.5095 30.777 12.0548 32.025 17.0048H25.5V7.6845ZM22.5 7.86675V17.0048H16.488C17.6565 12.3577 19.9207 8.9505 22.5 7.86675ZM16.6035 9.2565C15.0596 11.6151 13.9746 14.2438 13.4055 17.0048H9.06597C10.6445 13.654 13.2975 10.9268 16.6035 9.2565ZM8.93547 30.7102H13.3425C13.8984 33.5688 15 36.2935 16.587 38.7352C13.1923 37.016 10.4911 34.1829 8.93547 30.7102ZM22.5 40.137C19.8592 39.0368 17.5627 35.5155 16.4175 30.7102H22.5V40.137ZM25.5 40.3177V30.7102H32.0917C30.8737 35.8222 28.35 39.48 25.5 40.3177ZM32.1937 38.3228C33.6288 35.9819 34.6356 33.4041 35.1667 30.7102H39.0817C37.648 33.9125 35.2366 36.5783 32.1937 38.325V38.3228ZM7.92972 27.7102C7.34653 25.1721 7.36991 22.5322 7.99797 20.0048H40.023C40.651 22.5322 40.6744 25.1721 40.0912 27.7102H7.92972Z" fill="#0055DC"/>
<path d="M18.7072 24.4965H18.6757L18.129 22.1542H16.9815L16.449 24.5122H16.4182L15.9217 22.1542H14.745L15.7035 25.836H16.9597L17.535 23.691H17.5755L18.1507 25.836H19.4047L20.3655 22.1542H19.1887L18.7072 24.4965Z" fill="#0055DC"/>
<path d="M24.5295 24.4965H24.498L23.952 22.1542H22.8038L22.2713 24.5122H22.2405L21.744 22.1542H20.5673L21.5258 25.836H22.782L23.3573 23.691H23.3978L23.973 25.836H25.227L26.1878 22.1542H25.011L24.5295 24.4965Z" fill="#0055DC"/>
<path d="M30.3518 24.4965H30.3203L29.7743 22.1542H28.626L28.0935 24.5122H28.0628L27.5663 22.1542H26.3895L27.348 25.836H28.6043L29.1795 23.691H29.22L29.796 25.836H31.0493L32.0108 22.1542H30.8333L30.3518 24.4965Z" fill="#0055DC"/>
<path d="M32.643 24.666C32.5608 24.6644 32.4793 24.6797 32.4033 24.7109C32.3273 24.7421 32.2585 24.7886 32.2012 24.8475C32.1422 24.9032 32.0955 24.9708 32.0642 25.0457C32.0329 25.1206 32.0178 25.2013 32.0197 25.2825C32.0176 25.3646 32.0326 25.4462 32.0639 25.5222C32.0952 25.5981 32.1419 25.6667 32.2012 25.7235C32.2585 25.7825 32.3272 25.8291 32.4032 25.8605C32.4792 25.8918 32.5608 25.9073 32.643 25.9057C32.7509 25.9066 32.8569 25.8773 32.949 25.821C33.0411 25.7654 33.1184 25.6882 33.174 25.596C33.2325 25.5016 33.2636 25.3928 33.264 25.2817C33.2642 25.2 33.2474 25.1191 33.2146 25.0442C33.1818 24.9693 33.1337 24.902 33.0735 24.8468C33.0174 24.7894 32.9505 24.7438 32.8765 24.7128C32.8026 24.6817 32.7232 24.6658 32.643 24.666Z" fill="#0055DC"/>
</svg>
