<svg width="32" height="32" viewBox="0 0 32 32" fill="none" xmlns="http://www.w3.org/2000/svg">
<g clip-path="url(#clip0)">
<path d="M31 9.50003H15.295C14.0214 8.26737 12.413 7.437 10.6706 7.11254C8.92808 6.78807 7.12864 6.98387 5.49672 7.67549C3.86481 8.36712 2.47267 9.52396 1.49399 11.0017C0.515305 12.4794 -0.0065918 14.2126 -0.0065918 15.985C-0.0065918 17.7575 0.515305 19.4906 1.49399 20.9684C2.47267 22.4461 3.86481 23.6029 5.49672 24.2946C7.12864 24.9862 8.92808 25.182 10.6706 24.8575C12.413 24.533 14.0214 23.7027 15.295 22.47H31L32 21.47V10.5L31 9.50003ZM9.02498 23C7.63472 22.999 6.27601 22.5855 5.12088 21.8119C3.96575 21.0383 3.06614 19.9393 2.53594 18.6541C2.00575 17.3689 1.86881 15.9553 2.14247 14.5922C2.41612 13.2292 3.08807 11.978 4.07324 10.997C5.0584 10.016 6.31248 9.34944 7.6767 9.08162C9.04093 8.81379 10.4539 8.95677 11.7369 9.49246C13.0198 10.0281 14.1149 10.9324 14.8836 12.0909C15.6523 13.2493 16.0599 14.6098 16.055 16C16.0537 17.8636 15.3124 19.6505 13.9942 20.9678C12.6759 22.2851 10.8886 23.025 9.02498 23.025V23ZM30 20.5H16.85C17.6448 19.1335 18.0635 17.5809 18.0635 16C18.0635 14.4192 17.6448 12.8665 16.85 11.5H30V20.5Z" fill="#0055DC"/>
<path d="M7.81499 17.135L5.74999 14.975L4.30499 16.36L7.78999 20.005L13.74 13.99L12.315 12.585L7.81499 17.135Z" fill="#0055DC"/>
</g>
<defs>
<clipPath id="clip0">
<rect width="32" height="32" fill="white"/>
</clipPath>
</defs>
</svg>
