<svg id="Layer_1" data-name="Layer 1" xmlns="http://www.w3.org/2000/svg" xmlns:xlink="http://www.w3.org/1999/xlink" viewBox="0 0 449 400"><defs><style>.cls-1,.cls-10,.cls-6,.cls-7,.cls-8{fill:none;}.cls-2{fill:#003486;}.cls-3{clip-path:url(#clip-path);}.cls-4{fill:#003487;}.cls-5{fill:#0050e5;}.cls-10,.cls-14,.cls-6{stroke:#0050e5;}.cls-10,.cls-14,.cls-6,.cls-7,.cls-8{stroke-miterlimit:10;}.cls-14,.cls-6,.cls-7,.cls-8{stroke-width:1.5px;}.cls-7{stroke:#47cee8;}.cls-8{stroke:#bcecf7;}.cls-14,.cls-9{fill:#bcecf7;}.cls-10{stroke-width:2px;}.cls-11{fill:#ff5912;}.cls-12{fill:#fa1;}.cls-13{fill:#fff;}</style><clipPath id="clip-path"><circle class="cls-1" cx="284.09" cy="162.84" r="160.91"/></clipPath></defs><circle class="cls-2" cx="284.09" cy="162.84" r="160.91"/><g class="cls-3"><path class="cls-4" d="M75,304.69l-.14-.58c-.06-.24-5.57-24-3-45.08,1.24-10.23,8.82-21.25,20.29-29.48,16.7-12,41.07-18.7,72.43-20,2.19-.09,4.44-.13,6.67-.13,43.05,0,85.84,16.64,117.09,28.79,19.34,7.52,34.61,13.46,44,13.46,11.5,0,26.4-4.33,43.65-9.35,22.32-6.49,47.63-13.84,76.09-15.48,3.94-.23,7.81-.34,11.51-.34,41.64,0,54.07,14.09,54.58,14.69l.16.19v.26c0,.06.3,6.09.16,12.84-.36,18-7,49.27-7,49.58l-.13.6Z"/><path class="cls-5" d="M171.26,210.2c68.91,0,135.8,42.25,161.11,42.25,26.13,0,68.74-21.9,119.78-24.83q6.08-.35,11.47-.34c41.77,0,54,14.42,54,14.42s.3,6,.16,12.8c-.37,18.17-7,49.44-7,49.44H75.61s-5.57-23.64-3-44.82c1.83-15.06,20.81-45.9,92-48.79q3.33-.14,6.64-.13m0-1.5c-2.24,0-4.5,0-6.7.13-31.51,1.28-56,8-72.84,20.11-11.63,8.35-19.33,19.56-20.6,30-2.57,21.2,2.8,44.37,3,45.34l.27,1.16H512l.25-1.19c.07-.31,6.67-31.62,7-49.72.14-6.78-.15-12.84-.16-12.9l0-.51-.33-.39c-.52-.61-13.16-14.95-55.14-14.95-3.72,0-7.61.11-11.57.34-28.54,1.64-53.89,9-76.25,15.51-17.2,5-32.05,9.32-43.44,9.32-9.27,0-24.48-5.92-43.75-13.41-31.3-12.17-74.17-28.84-117.36-28.84Z"/><path class="cls-4" d="M57.29,314.58l-.22-.36c-.36-.61-8.74-14.89-5.5-20.58.89-1.56,2.5-2.35,4.8-2.35.21,0,.42,0,.65,0,2.44.15,4.92.22,7.35.22,26.71,0,48.76-8.78,72.11-18.07,24.92-9.92,50.69-20.18,83.94-20.18,38.54,0,73.89,12.39,105.07,23.31,22.53,7.9,42,14.72,57.34,14.72,17.14,0,42.77-14.1,75.22-32l5.06-2.78c5.39-3,11.74-5,15.44-5,2.3,0,3,.85,3.12,1.56,3.46,15.94-4.9,59-5.26,60.88l-.12.6Z"/><path class="cls-5" d="M478.55,252.29c1.37,0,2.25.31,2.39,1,3.46,16-5.27,60.57-5.27,60.57H57.72S44.81,292,56.37,292c.19,0,.4,0,.61,0q3.75.22,7.39.22c55.66,0,92.06-38.25,156-38.25,66.79,0,126,38,162.41,38,18.22,0,45.7-15.63,80.64-34.83,5.79-3.18,11.83-4.94,15.08-4.94m0-1.5v0c-3.87,0-10.22,2.06-15.81,5.13l-5.05,2.78c-32.36,17.8-57.92,31.86-74.86,31.86-15.22,0-34.62-6.8-57.09-14.67-31.24-10.95-66.65-23.36-105.32-23.36-33.4,0-59.23,10.29-84.22,20.23-23.27,9.27-45.26,18-71.83,18-2.42,0-4.88-.07-7.3-.22l-.7,0c-3.22,0-4.74,1.49-5.46,2.73-3.39,6,4.59,19.77,5.52,21.33l.43.73H476.91l.24-1.21c.35-1.83,8.74-45.09,5.25-61.18-.21-1-1-2.15-3.85-2.15Z"/><path class="cls-4" d="M7.07,382.17l-.13-.59C6.88,381.27.28,350-.08,332c-.27-13.33-.06-13.37.75-13.54l1.42-.31c21-4.5,42.75-9.16,71.07-9.16,27.56,0,55.17,1,79.54,1.91,17.67.65,32.93,1.21,44,1.21,8.63,0,22.87-4.88,40.91-11.06,29.85-10.24,70.74-24.26,112.11-24.26a168.66,168.66,0,0,1,22.8,1.51c69.23,9.51,72.15,39.17,73.71,55.11.11,1.1.21,2.14.33,3.11,2.56,21.06-3,44.84-3,45.08l-.14.57Z"/><path class="cls-5" d="M349.74,277.54a167.91,167.91,0,0,1,22.69,1.51c73.39,10.07,71.58,42.5,73.41,57.56,2.56,21.17-3,44.81-3,44.81H7.68S1,350.16.67,332c-.14-6.8-.19-12.72.15-12.79,21.54-4.61,43.47-9.45,72.34-9.45,47.89,0,97.43,3.12,123.56,3.12,23.43,0,87.16-35.32,153-35.32m0-1.5v0c-41.5,0-82.45,14-112.35,24.3-18,6.16-32.17,11-40.67,11-11.07,0-26.33-.56-44-1.21-24.37-.9-52-1.91-79.56-1.91-28.4,0-50.17,4.66-71.23,9.18l-1.42.3c-1.41.31-1.42,1.67-1.44,5.33,0,2.07,0,5,.1,9,.37,18.11,7,49.41,7,49.73l.25,1.18H444l.27-1.15c.23-1,5.6-24.15,3-45.34-.12-1-.22-2-.33-3.09-1.59-16.15-4.54-46.2-74.36-55.78a171.68,171.68,0,0,0-22.9-1.52Z"/><circle class="cls-6" cx="370.54" cy="119.95" r="76.59"/><circle class="cls-7" cx="370.54" cy="119.95" r="53.49"/><circle class="cls-8" cx="370.54" cy="119.95" r="30.39"/><circle class="cls-9" cx="370.54" cy="119.95" r="15.2"/><circle class="cls-9" cx="270.96" cy="17.1" r="1.33"/><circle class="cls-9" cx="248.15" cy="47.33" r="1.33"/><circle class="cls-9" cx="314.15" cy="26.33" r="1.33"/><circle class="cls-9" cx="294.22" cy="28.81" r="1.33"/><circle class="cls-9" cx="236.9" cy="63.53" r="1.33"/><circle class="cls-9" cx="295.54" cy="53.23" r="1.33"/><circle class="cls-9" cx="179.3" cy="92.22" r="1.33"/><circle class="cls-9" cx="205.99" cy="87.92" r="1.33"/><circle class="cls-9" cx="194.19" cy="52.43" r="1.33"/><circle class="cls-9" cx="261.46" cy="188.07" r="1.3"/><circle class="cls-9" cx="286.69" cy="176.2" r="1.3"/><circle class="cls-9" cx="304.19" cy="194.48" r="1.3"/><circle class="cls-9" cx="258.07" cy="61.32" r="1.33"/><circle class="cls-9" cx="281.22" cy="76.88" r="1.33"/></g><circle class="cls-10" cx="284.09" cy="162.84" r="160.91"/><rect class="cls-9" x="24.07" y="307.41" width="149.18" height="14.5" transform="translate(-230.76 299.75) rotate(-70)"/><path class="cls-5" d="M117.81,243.05,130,247.49,79.51,386.26,67.3,381.82l50.51-138.77m-.9-1.93-.51,1.41L65.89,381.31l-.51,1.4,1.41.52L79,387.67l1.41.52.51-1.41L131.43,248l.52-1.4-1.41-.52-12.22-4.44-1.41-.52Z"/><rect class="cls-9" x="160.23" y="240.07" width="14.5" height="149.18" transform="translate(-97.52 76.26) rotate(-20)"/><path class="cls-5" d="M148.34,243.05l50.5,138.77-12.21,4.44L136.12,247.49l12.22-4.44m.89-1.93-1.41.52-12.21,4.44-1.41.52.51,1.4,50.51,138.78.51,1.41,1.41-.52,12.22-4.44,1.41-.52-.52-1.4L149.74,242.53l-.51-1.41Z"/><circle class="cls-11" cx="245.1" cy="124.94" r="33.21"/><path class="cls-12" d="M245.1,92.48a32.46,32.46,0,1,1-32.46,32.46A32.46,32.46,0,0,1,245.1,92.48m0-1.5a34,34,0,1,0,34,34,34,34,0,0,0-34-34Z"/><circle class="cls-12" cx="245.1" cy="119.57" r="23.92"/><circle class="cls-13" cx="245.1" cy="114.97" r="15.08"/><polygon class="cls-13" points="48.34 187.95 149.82 141.03 170.59 186.36 68.92 233.36 48.34 187.95"/><path class="cls-9" d="M148.84,143.68l19.1,41.7-98,45.32L51,188.93l97.86-45.25m2-5.31L45.69,187,67.93,236l105.31-48.68-22.44-49Z"/><rect class="cls-13" x="160.35" y="114.94" width="80.43" height="61.39" transform="translate(-42.43 96.78) rotate(-24.62)"/><path class="cls-9" d="M223.35,103.63l23.91,52.17-69.49,31.83-.9-2-22.43-49-.57-1.24,69.48-31.83m2-5.31-76.75,35.17,2.23,4.88,22.44,49,2.56,5.6,76.76-35.17L225.32,98.32Z"/><polygon class="cls-13" points="48.01 213.69 20.6 226.25 13.64 210.84 47.35 195.46 62.42 228.71 56.16 231.58 48.01 213.69"/><path class="cls-9" d="M46.35,198.11l13.43,29.61-2.63,1.2-6.49-14.24L49,211l-3.64,1.67L21.6,223.59l-5.31-11.75,30.06-13.73m2-5.3L11,209.85l8.61,19.05L47,216.34l8.15,17.89,9.89-4.53L48.34,192.81Z"/><rect class="cls-9" x="125.43" y="246.19" width="14.5" height="151.42"/><path class="cls-5" d="M139.18,246.94V396.85h-13V246.94h13m1.5-1.5h-16V398.35h16V245.44Z"/><polygon class="cls-5" points="107.71 223.29 101.01 226.1 97.18 217.24 144.93 197.13 148.78 206.03 142.16 208.81 145.91 217.5 111.62 232.35 107.71 223.29"/><path class="cls-5" d="M144.54,198.11l3.25,7.52-6.62,2.78,3.76,8.69L112,231.36l-3.9-9.05-6.7,2.82-3.24-7.49,46.37-19.53m.79-2-1.37.57L97.59,216.25l-1.4.59.61,1.39,3.23,7.49.59,1.36,1.37-.57,5.33-2.24,3.32,7.69.59,1.37,1.38-.59,32.92-14.26,1.37-.59-.59-1.38-3.16-7.3,5.22-2.2,1.4-.58-.6-1.39-3.25-7.53-.59-1.36Z"/><circle class="cls-9" cx="132.68" cy="232.35" r="21.21"/><path class="cls-5" d="M132.68,211.89a20.46,20.46,0,1,1-20.46,20.46,20.46,20.46,0,0,1,20.46-20.46m0-1.5a22,22,0,1,0,22,22,22,22,0,0,0-22-22Z"/><circle class="cls-13" cx="132.68" cy="232.35" r="14.58"/><rect class="cls-14" x="238.09" y="87.91" width="14.34" height="73.43" transform="translate(520.14 135.89) rotate(155.41)"/><polygon class="cls-9" points="138.16 144.21 150.8 138.37 173.24 187.34 160.42 193.27 138.16 144.21"/><polygon class="cls-9" points="161.08 160.98 246.02 143.49 252.56 157.77 175.58 192.97 161.08 160.98"/><polygon class="cls-9" points="53.44 204.04 169.74 180.09 173.24 187.34 67.94 236.02 53.44 204.04"/><polygon class="cls-9" points="48.34 192.81 38.38 197.35 44.42 210.62 14.57 217.75 19.61 228.9 47.02 216.34 55.17 234.23 65.06 229.7 48.34 192.81"/><polygon class="cls-6" points="45.69 186.96 67.93 236.02 173.24 187.34 150.8 138.37 45.69 186.96"/><polygon class="cls-6" points="225.32 98.32 148.57 133.49 150.8 138.37 173.24 187.34 175.8 192.94 252.56 157.77 225.32 98.32"/><polygon class="cls-6" points="11 209.85 48.34 192.81 65.06 229.7 55.17 234.23 47.02 216.34 19.61 228.9 11 209.85"/></svg>