<svg width="158" height="32" viewBox="0 0 158 32" fill="none" xmlns="http://www.w3.org/2000/svg">
<path fill-rule="evenodd" clip-rule="evenodd" d="M118.022 16.3247C118.022 15.7298 118.359 15.4324 119.053 15.4324H120.54C121.254 15.4324 121.849 15.7695 122.325 16.285L131.367 25.7835C131.664 26.0809 132.041 26.1404 132.041 25.7835V16.1859C132.041 15.71 132.279 15.4324 132.874 15.4324H134.341C134.797 15.4324 135.174 15.6307 135.174 16.1661V30.7607C135.174 31.5936 135.095 31.772 134.361 31.772H132.993C132.418 31.772 132.101 31.6531 131.704 31.2366L122.047 21.064C121.631 20.6079 121.214 20.6079 121.194 21.183V31.0383C121.194 31.4944 120.976 31.7522 120.441 31.7522H118.775C118.279 31.7522 118.041 31.5341 118.022 31.078V16.3247ZM109.475 15.4324H111.775C112.073 15.4324 112.311 15.6703 112.311 15.9876V31.2168C112.311 31.5143 112.073 31.772 111.775 31.772H109.475C109.177 31.772 108.94 31.5143 108.94 31.2168V15.9876C108.92 15.6902 109.177 15.4324 109.475 15.4324ZM84.2714 16.5627C84.2714 15.8091 84.6482 15.4324 85.4017 15.4324H87.3648C88.4158 15.4324 88.5744 15.7298 89.1693 16.8006L93.4525 24.7325C93.6707 25.1291 93.9483 25.1291 94.1862 24.7325L98.8264 16.5428C99.1635 15.9281 99.5403 15.4324 100.016 15.4324H102.336C103.01 15.4324 103.328 15.5315 103.348 16.4437V30.8797C103.348 31.5737 103.129 31.7522 102.515 31.772H100.849C100.214 31.772 100.016 31.4548 100.016 30.8797V20.3105L94.3052 30.8797C93.9086 31.6134 93.5715 31.5936 93.1749 30.8797L87.3648 20.1518V30.8797C87.345 31.4746 87.107 31.7522 86.5915 31.772H85.1439C84.5887 31.772 84.2516 31.5341 84.2516 30.8797V16.5627H84.2714ZM67.3765 19.0017C67.3765 18.3672 67.7929 18.0697 68.5464 18.0697H72.9685C74.8126 18.0697 76.6568 18.7836 76.6568 20.4691C76.6568 21.8968 75.4472 22.7297 73.1866 22.7297H68.5663C67.8722 22.7297 67.3765 22.4323 67.3765 21.7977V19.0017ZM63.9261 16.4437C63.9261 15.8091 64.3425 15.4125 65.0961 15.4324H73.5634C77.2913 15.4324 80.2261 16.6221 80.246 20.2906C80.2261 22.7099 79.1157 23.9195 76.6766 24.673C76.0619 24.8515 75.9627 25.2282 76.3395 25.8033L80.0675 31.1375C80.3848 31.5936 80.2261 31.772 79.7106 31.7919H77.4301C76.7956 31.7919 76.5576 31.7324 76.2404 31.2961L72.4331 26.0214C71.9968 25.3869 71.3821 25.1291 70.5492 25.1291H67.4558L67.3963 30.8797C67.3963 31.4746 67.1385 31.7522 66.6428 31.772H64.7391C64.1244 31.772 63.9261 31.4349 63.9261 30.8797V16.4437ZM51.6714 20.37C51.8102 20.0527 52.0085 20.0329 52.1671 20.37L55.1019 26.4378C55.32 26.8939 55.1614 27.1319 54.5665 27.1319H49.2125C48.7762 27.1319 48.5978 26.8543 48.7961 26.4775L51.6714 20.37ZM50.2635 16.761C50.6601 15.9678 50.898 15.4324 52.1671 15.4522C53.3767 15.4522 53.6147 15.9083 54.0311 16.7213L61.2293 30.7409C61.6655 31.6134 61.4474 31.7919 60.6542 31.7919H58.5126C57.8582 31.7919 57.6798 31.7125 57.4418 31.2168L56.8469 29.9874C56.6486 29.5709 56.4702 29.4916 55.5977 29.4916H48.1813C47.6063 29.4916 47.3485 29.6304 47.17 30.0072L46.6545 31.0978C46.3768 31.6927 46.1984 31.7919 45.544 31.7919H43.918C43.3429 31.7919 43.1446 31.5341 43.4222 30.959L50.2635 16.761ZM38.445 19.3388C39.0399 19.6363 39.4364 19.6759 39.6546 19.2793L40.4081 17.8516C40.6659 17.4153 40.5271 17.0782 40.1503 16.8601C36.7396 14.9565 30.4536 14.4012 26.7653 16.6023C22.1648 19.4181 21.5897 26.1999 25.0599 29.333C28.6491 32.8428 35.0937 32.4264 40.1107 30.7211C41.0228 30.3641 41.122 29.9874 41.122 28.6588V23.8798C41.122 23.1858 40.6857 22.7297 39.9718 22.7099H33.4082C32.9125 22.7099 32.6745 22.9676 32.6745 23.4436V24.435C32.6745 24.8911 32.9521 25.1291 33.4875 25.1291H37.2948C37.8699 25.1291 38.1079 25.367 38.1079 25.8033V28.3812C33.9635 29.9477 29.5216 29.4916 27.6973 27.2112C25.3375 23.979 26.9041 19.2198 30.1958 18.506C33.1108 17.7921 35.8671 18.0697 38.445 19.3388Z" fill="#4E4E4E"/>
<path fill-rule="evenodd" clip-rule="evenodd" d="M125.696 0.560188L120.599 9.46372C119.965 10.4155 120.242 11.407 121.393 11.407L131.724 11.3872C133.132 11.3872 133.35 10.6138 132.557 9.30509L127.54 0.54036C127.064 -0.173509 126.132 -0.19334 125.696 0.560188Z" fill="#4E4E4E"/>
</svg>
