<svg width="158" height="24" viewBox="0 0 158 24" fill="none" xmlns="http://www.w3.org/2000/svg">
<path d="M55.0998 4.51526C55.086 4.39062 54.9752 4.33523 54.8921 4.32138C54.809 4.30753 53.1472 4.29368 53.1472 4.29368C53.1472 4.29368 51.7485 2.93655 51.61 2.79806C51.4715 2.65958 51.2084 2.70112 51.0976 2.72882C51.0976 2.72882 50.8345 2.81191 50.3914 2.95039C50.3221 2.71497 50.2113 2.42416 50.059 2.13334C49.5605 1.1778 48.8404 0.679262 47.9541 0.679262C47.8987 0.679262 47.8294 0.679262 47.774 0.69311C47.7463 0.665413 47.7186 0.637717 47.6909 0.596172C47.3032 0.180721 46.8185 -0.0131565 46.2369 0.000691906C45.1013 0.0283886 43.9796 0.845442 43.0517 2.31337C42.4009 3.33815 41.9162 4.62605 41.7777 5.62313C40.4759 6.02473 39.5619 6.3017 39.5481 6.31555C38.8972 6.52327 38.8695 6.53712 38.7864 7.1603C38.7172 7.61729 37 20.9256 37 20.9256L51.4161 23.4183L57.6618 21.8673C57.6618 21.8673 55.1137 4.62605 55.0998 4.51526ZM49.6713 3.17197C49.3389 3.26891 48.965 3.39354 48.5495 3.51818C48.5357 2.95039 48.4664 2.14719 48.2033 1.45477C49.0758 1.62095 49.4912 2.59034 49.6713 3.17197ZM47.8017 3.7536C47.0401 3.98902 46.223 4.23829 45.3921 4.50141C45.6275 3.61512 46.0707 2.72882 46.6108 2.14719C46.8185 1.92561 47.0955 1.69019 47.4278 1.55171C47.7463 2.20258 47.8017 3.13042 47.8017 3.7536ZM46.2507 0.762352C46.5138 0.762352 46.7354 0.817745 46.9293 0.942381C46.6246 1.09471 46.32 1.33013 46.043 1.6348C45.3229 2.41031 44.7689 3.60127 44.5474 4.76453C43.8549 4.97226 43.1902 5.17998 42.567 5.37386C42.9825 3.54587 44.5058 0.817746 46.2507 0.762352Z" fill="#B9B9B9"/>
<path d="M54.8922 4.32125C54.8091 4.30741 53.1473 4.29356 53.1473 4.29356C53.1473 4.29356 51.7486 2.93642 51.6101 2.79793C51.5547 2.74254 51.4855 2.71484 51.4163 2.71484V23.4182L57.6619 21.8671C57.6619 21.8671 55.1138 4.63977 55.0999 4.51513C55.0722 4.3905 54.9753 4.3351 54.8922 4.32125Z" fill="#4E4E4E"/>
<path d="M47.954 7.53435L47.2339 10.2486C47.2339 10.2486 46.4307 9.87473 45.4613 9.94397C44.0488 10.0271 44.0349 10.9134 44.0488 11.1488C44.1318 12.3674 47.317 12.6306 47.497 15.4695C47.6355 17.7129 46.306 19.2362 44.395 19.3609C42.0961 19.4993 40.8359 18.156 40.8359 18.156L41.3206 16.0926C41.3206 16.0926 42.5947 17.0482 43.6056 16.9928C44.2703 16.9512 44.5058 16.4112 44.4781 16.0234C44.3811 14.4447 41.7776 14.5278 41.6114 11.9381C41.473 9.75009 42.9132 7.53435 46.0845 7.32663C47.3308 7.21584 47.954 7.53435 47.954 7.53435Z" fill="white"/>
<path d="M66.1231 13.3229C65.403 12.9352 65.0291 12.6028 65.0291 12.1458C65.0291 11.5642 65.5415 11.1903 66.3586 11.1903C67.3002 11.1903 68.1312 11.578 68.1312 11.578L68.7959 9.55617C68.7959 9.55617 68.1865 9.08533 66.4001 9.08533C63.9074 9.08533 62.1764 10.5117 62.1764 12.5197C62.1764 13.6553 62.9796 14.5277 64.0597 15.1509C64.9322 15.6495 65.2368 15.9957 65.2368 16.5219C65.2368 17.062 64.8075 17.4913 63.9905 17.4913C62.7857 17.4913 61.6501 16.8681 61.6501 16.8681L60.9438 18.89C60.9438 18.89 61.9963 19.5962 63.7551 19.5962C66.317 19.5962 68.1588 18.336 68.1588 16.0649C68.1727 14.8324 67.2449 13.96 66.1231 13.3229ZM76.3432 9.05763C75.083 9.05763 74.0859 9.65311 73.3243 10.5671L73.2827 10.5533L74.3768 4.82003H71.524L68.7543 19.4024H71.6071L72.5626 14.4169C72.9365 12.5336 73.9059 11.3703 74.8199 11.3703C75.4569 11.3703 75.7062 11.7996 75.7062 12.4228C75.7062 12.8105 75.6647 13.2952 75.5816 13.683L74.5014 19.3885H77.3542L78.4759 13.4891C78.6005 12.8659 78.6836 12.1181 78.6836 11.6334C78.6836 10.0409 77.825 9.05763 76.3432 9.05763ZM85.1369 9.05763C81.7026 9.05763 79.4314 12.1597 79.4314 15.6218C79.4314 17.8375 80.8024 19.6101 83.3644 19.6101C86.7295 19.6101 89.0145 16.5911 89.0145 13.046C89.0006 11.0103 87.7958 9.05763 85.1369 9.05763ZM83.7244 17.422C82.755 17.422 82.3396 16.5911 82.3396 15.5664C82.3396 13.9323 83.1843 11.2595 84.7353 11.2595C85.7463 11.2595 86.0786 12.132 86.0786 12.9767C86.0786 14.7355 85.2339 17.422 83.7244 17.422ZM96.2987 9.05763C94.3738 9.05763 93.2798 10.7471 93.2798 10.7471H93.2382L93.4044 9.20996H90.884C90.7594 10.2486 90.5378 11.8135 90.3024 12.9906L88.3221 23.4322H91.1748L91.9642 19.2085H92.0196C92.0196 19.2085 92.6012 19.5824 93.6952 19.5824C97.0465 19.5824 99.2346 16.148 99.2346 12.6721C99.2484 10.7748 98.3898 9.05763 96.2987 9.05763ZM93.5706 17.4636C92.8228 17.4636 92.3935 17.0481 92.3935 17.0481L92.8643 14.3754C93.1967 12.6028 94.1245 11.4119 95.1216 11.4119C95.9941 11.4119 96.2572 12.2151 96.2572 12.9906C96.2572 14.8324 95.1632 17.4636 93.5706 17.4636ZM103.32 4.97236C102.406 4.97236 101.686 5.69248 101.686 6.63417C101.686 7.47892 102.226 8.06055 103.029 8.06055H103.071C103.957 8.06055 104.732 7.46507 104.746 6.39874C104.746 5.56784 104.192 4.97236 103.32 4.97236ZM99.3315 19.4024H102.184L104.123 9.29305H101.243L99.3315 19.4024ZM111.38 9.26536H109.399L109.496 8.79451C109.662 7.82513 110.244 6.95268 111.186 6.95268C111.698 6.95268 112.1 7.09116 112.1 7.09116L112.654 4.86158C112.654 4.86158 112.155 4.6123 111.103 4.6123C110.092 4.6123 109.081 4.90312 108.305 5.56784C107.336 6.39874 106.879 7.5897 106.643 8.79451L106.56 9.26536H105.231L104.815 11.4119H106.145L104.635 19.4024H107.488L108.998 11.4119H110.964L111.38 9.26536ZM118.248 9.29305C118.248 9.29305 116.462 13.7938 115.659 16.2449H115.617C115.562 15.4556 114.911 9.29305 114.911 9.29305H111.92L113.637 18.5853C113.678 18.793 113.651 18.9177 113.581 19.0561C113.249 19.6932 112.695 20.3164 112.03 20.7733C111.49 21.1611 110.895 21.4104 110.41 21.5766L111.2 24C111.781 23.8754 112.972 23.4045 113.997 22.449C115.299 21.2303 116.503 19.347 117.736 16.785L121.226 9.29305H118.248Z" fill="#4E4E4E"/>
</svg>
