<svg width="158" height="24" viewBox="0 0 158 24" fill="none" xmlns="http://www.w3.org/2000/svg">
<path d="M40.9233 0.330688H46.4731V15.6202H52.5007V20.1041H40.9233V0.330688Z" fill="#4E4E4E"/>
<path d="M65.4012 17.8621C65.4012 18.6339 65.585 19.369 65.9158 20.0673H60.8805C60.6968 19.5528 60.6233 19.0015 60.6233 18.4869L60.5865 18.4502C59.9617 19.9203 58.6018 20.4349 57.0582 20.4349C54.1914 20.4349 52.9785 18.928 52.9785 16.0244C52.9785 12.7166 54.5222 11.7978 56.5436 11.32L59.0428 10.7319C60.1455 10.4747 60.5497 10.1439 60.5497 9.18828C60.5497 8.45321 60.1087 8.01216 59.5206 8.01216C58.3813 8.01216 58.2343 8.8575 58.2343 9.73958H53.5298C53.5298 6.39501 55.294 4.70435 59.5574 4.70435C64.4456 4.70435 65.438 6.68904 65.438 9.00451V17.8621H65.4012ZM60.5497 12.8269C60.219 13.0474 59.8147 13.1944 59.2266 13.4149C58.3445 13.7457 58.1975 14.444 58.1975 15.3261C58.1975 16.2082 58.5283 16.833 59.2634 16.833C60.3292 16.833 60.5497 15.8774 60.5497 14.9953V12.8269Z" fill="#4E4E4E"/>
<path d="M66.3936 0.330688H71.7596V6.87282H71.8331C72.3476 5.51294 73.7075 4.74111 75.1409 4.74111C78.8898 4.74111 79.4778 8.15919 79.4778 12.3858C79.4778 15.9142 79.4778 20.5084 74.8101 20.5084C72.4946 20.5084 71.9433 19.1117 71.7228 18.4134H71.6861V20.1408H66.3936V0.330688ZM72.8989 8.71049C71.8331 8.71049 71.6861 9.77635 71.6861 12.5696C71.6861 15.3996 71.8698 16.4655 72.8989 16.4655C73.9648 16.4655 74.1118 15.3996 74.1118 12.5696C74.1118 9.77635 73.928 8.71049 72.8989 8.71049Z" fill="#4E4E4E"/>
<path d="M88.4091 6.02758C88.4091 5.18225 88.4091 3.60185 87.2697 3.60185C85.8363 3.60185 85.7628 4.59419 85.7628 10.2175C85.7628 15.9878 85.9098 16.8331 87.2697 16.8331C88.1518 16.8331 88.5193 15.951 88.5193 13.4885V11.9817H93.8854V13.2313C93.8854 17.8622 92.0477 20.5085 87.1962 20.5085C80.1028 20.5085 80.1028 16.5391 80.1028 10.2542C80.1028 4.15315 80.1028 0 87.1962 0C93.0768 0 93.7751 3.19756 93.7751 6.2481V7.64473H88.4091V6.02758Z" fill="#4E4E4E"/>
<path d="M107.815 12.5696C107.815 16.7963 107.19 20.4716 101.273 20.4716C95.3553 20.4716 94.7305 16.833 94.7305 12.5696C94.7305 8.3797 95.3553 4.70435 101.273 4.70435C107.19 4.70435 107.815 8.3797 107.815 12.5696ZM101.273 16.98C102.228 16.98 102.449 16.0612 102.449 12.5696C102.449 9.07802 102.228 8.15918 101.273 8.15918C100.317 8.15918 100.096 9.07802 100.096 12.5696C100.096 16.0612 100.317 16.98 101.273 16.98Z" fill="#4E4E4E"/>
<path d="M108.66 5.10863H113.879V7.31385H113.916C114.43 5.88046 115.643 4.70435 117.113 4.70435C117.702 4.70435 117.849 4.7411 118.032 4.77785V9.66607C117.849 9.62932 117.628 9.59257 117.371 9.59257C117.113 9.55581 116.893 9.55581 116.342 9.55581C114.504 9.55581 114.063 10.5114 114.063 12.3123V20.0673H108.66V5.10863Z" fill="#4E4E4E"/>
<path d="M118.877 5.10875H124.17V6.83616H124.243C124.427 6.10109 124.979 4.74121 127.331 4.74121C131.998 4.74121 131.998 9.29865 131.998 12.8637C131.998 17.0536 131.374 20.5085 127.662 20.5085C126.228 20.5085 124.832 19.7367 124.354 18.3768H124.317V24.0001H118.951V5.10875H118.877ZM125.383 8.71059C124.317 8.71059 124.17 9.77645 124.17 12.6065C124.17 15.3997 124.354 16.4656 125.383 16.4656C126.449 16.4656 126.596 15.3997 126.596 12.6065C126.632 9.77645 126.449 8.71059 125.383 8.71059Z" fill="#4E4E4E"/>
<path d="M26.0015 9.73953L28.7947 7.8651L26.0015 5.7334V9.73953Z" fill="#4E4E4E"/>
<path d="M31.6982 23.9633H37.6156V19.9939L31.6982 23.9633Z" fill="#4E4E4E"/>
<path d="M29.7136 12.5697L30.8162 13.3783H36.219L35.1164 12.5697H29.7136Z" fill="#4E4E4E"/>
<path d="M27.5818 4.70447H33.4991L34.859 3.82239H28.9049L27.5818 4.70447Z" fill="#4E4E4E"/>
<path d="M33.7197 17.0903L31.3674 18.6707H35.8146L33.7197 17.0903Z" fill="#4E4E4E"/>
<path d="M31.9556 14.2603L33.7565 15.5834L35.7044 14.2603H31.9556Z" fill="#4E4E4E"/>
<path d="M26.0015 11.3568V20.8025L32.6539 16.3185L26.0015 11.3568Z" fill="#4E4E4E"/>
<path d="M37.6157 0.293945H34.1242L32.801 1.17603H37.6157V0.293945Z" fill="#4E4E4E"/>
<path d="M27.876 5.58643L29.9342 7.13007L32.2496 5.58643H27.876Z" fill="#4E4E4E"/>
<path d="M37.6157 14.4807L34.7856 16.3551L37.6157 18.4868V14.4807Z" fill="#4E4E4E"/>
<path d="M30.9998 7.90189L37.6154 12.8636V3.45471L30.9998 7.90189Z" fill="#4E4E4E"/>
<path d="M31.882 0.2948H26.0015V4.26418L31.882 0.2948Z" fill="#4E4E4E"/>
<path d="M30.0809 19.5527L28.7578 20.4348H34.7119L36.035 19.5527H30.0809Z" fill="#4E4E4E"/>
<path d="M27.4716 21.317L26.1484 22.1991H32.1025L33.4256 21.317H27.4716Z" fill="#4E4E4E"/>
<path d="M27.876 9.99684H31.6983L29.8974 8.63696L27.876 9.99684Z" fill="#4E4E4E"/>
<path d="M36.1087 2.94019L37.4686 2.05811H31.5145L30.1914 2.94019H36.1087Z" fill="#4E4E4E"/>
<path d="M26.0015 23.0812V23.9633H29.5298L30.8162 23.0812H26.0015Z" fill="#4E4E4E"/>
<path d="M27.4717 10.8789L28.5743 11.6875H33.9403L32.8377 10.8789H27.4717Z" fill="#4E4E4E"/>
</svg>
