<svg width="119" height="36" viewBox="0 0 119 36" fill="none" xmlns="http://www.w3.org/2000/svg">
<path d="M118.885 18.7593C118.8 18.6161 118.685 18.5016 118.57 18.4443C118.427 18.3584 118.284 18.3297 118.141 18.3297C117.998 18.3297 117.854 18.3584 117.711 18.4443C117.568 18.5302 117.453 18.6161 117.396 18.7593C117.31 18.9025 117.282 19.0457 117.282 19.2176C117.282 19.3608 117.31 19.504 117.396 19.6472C117.482 19.7904 117.597 19.9049 117.711 19.9622C117.854 20.0481 117.998 20.0768 118.141 20.0768C118.284 20.0768 118.427 20.0481 118.57 19.9622C118.714 19.8763 118.828 19.7617 118.885 19.6472C118.971 19.504 119 19.3608 119 19.2176C119 19.0457 118.971 18.9025 118.885 18.7593ZM118.742 19.5612C118.685 19.6758 118.599 19.7617 118.484 19.819C118.37 19.8763 118.255 19.9049 118.141 19.9049C118.026 19.9049 117.912 19.8763 117.797 19.819C117.683 19.7617 117.597 19.6758 117.539 19.5612C117.482 19.4467 117.453 19.3321 117.453 19.2176C117.453 19.103 117.482 18.9598 117.539 18.8739C117.597 18.7593 117.683 18.6734 117.797 18.6161C117.912 18.5588 118.026 18.5302 118.141 18.5302C118.255 18.5302 118.37 18.5588 118.484 18.6161C118.599 18.6734 118.685 18.7593 118.742 18.8739C118.8 18.9884 118.828 19.103 118.828 19.2176C118.828 19.3321 118.8 19.4467 118.742 19.5612Z" fill="#404242"/>
<path d="M118.427 19.4753L118.37 19.3607L118.313 19.3034C118.284 19.3034 118.284 19.2748 118.256 19.2748C118.341 19.2748 118.399 19.2462 118.427 19.1889C118.485 19.1316 118.485 19.0743 118.485 19.017C118.485 18.9598 118.485 18.9311 118.456 18.8738L118.37 18.7879C118.341 18.7593 118.284 18.7593 118.227 18.7593H117.769V19.6758H117.941V19.3034H117.998C118.055 19.3034 118.084 19.3034 118.112 19.3321C118.141 19.3607 118.198 19.418 118.227 19.5326L118.313 19.6758H118.542L118.427 19.4753V19.4753ZM118.198 19.1316H117.912V18.8738H118.198C118.227 18.8738 118.256 18.9025 118.256 18.9025C118.284 18.9311 118.284 18.9311 118.284 18.9598C118.284 18.9884 118.284 19.017 118.256 19.017C118.256 19.103 118.227 19.103 118.198 19.1316Z" fill="#404242"/>
<path d="M117.539 24.831C117.539 22.6257 117.024 20.936 116.021 19.7617C115.019 18.5875 113.501 17.986 111.554 17.986C109.577 17.986 108.059 18.6161 106.971 19.819C105.911 21.0219 105.367 22.7976 105.367 25.1174C105.367 26.6067 105.654 27.8669 106.255 28.8693C106.828 29.8717 107.63 30.6164 108.604 31.1032C109.577 31.5901 110.666 31.8192 111.869 31.8192C112.814 31.8192 113.673 31.7047 114.389 31.5042C115.134 31.2751 115.821 30.96 116.451 30.5018C116.652 30.3586 116.737 30.1868 116.737 29.9863C116.737 29.8717 116.709 29.7285 116.652 29.5853L116.107 28.4683C115.993 28.1247 115.764 28.096 115.649 28.096C115.535 28.096 115.42 28.1533 115.277 28.2392C114.389 28.8407 113.358 29.1557 112.212 29.1557C111.038 29.1557 110.122 28.8693 109.491 28.2965C108.89 27.7523 108.575 27.0077 108.546 26.0339H116.566C116.938 25.9766 117.539 25.8334 117.539 24.831V24.831ZM108.575 23.5709C108.604 22.683 108.861 21.967 109.348 21.4229C109.864 20.8501 110.608 20.5637 111.582 20.5637C112.527 20.5637 113.272 20.8501 113.73 21.3942C114.16 21.9097 114.418 22.6544 114.446 23.5709H108.575ZM98.3218 17.9574C96.3456 17.9574 94.8277 18.5875 93.7393 19.7904C92.6797 20.9933 92.1355 22.7689 92.1355 25.0888C92.1355 26.5781 92.4219 27.8383 93.0233 28.8407C93.5961 29.8431 94.3981 30.5877 95.3718 31.0746C96.3456 31.5615 97.4339 31.7906 98.6368 31.7906C99.5819 31.7906 100.441 31.676 101.157 31.4756C101.902 31.2464 102.589 30.9314 103.219 30.4732C103.42 30.33 103.506 30.1581 103.506 29.9576C103.506 29.8431 103.477 29.6999 103.42 29.5567L102.876 28.4397C102.761 28.096 102.532 28.0674 102.417 28.0674C102.303 28.0674 102.188 28.1247 102.045 28.2106C101.157 28.812 100.126 29.1271 98.9805 29.1271C97.8063 29.1271 96.8898 28.8407 96.2597 28.2679C95.6582 27.7237 95.3432 26.9791 95.3146 26.0053H103.334C103.677 26.0053 104.279 25.8621 104.279 24.8597C104.279 22.6544 103.763 20.9646 102.761 19.7904C101.787 18.5588 100.298 17.9574 98.3218 17.9574V17.9574ZM101.214 23.5709H95.3146C95.3432 22.683 95.601 21.967 96.0878 21.4229C96.6034 20.8501 97.348 20.5637 98.3218 20.5637C99.2669 20.5637 100.012 20.8501 100.47 21.3942C100.957 21.9384 101.186 22.6544 101.214 23.5709ZM92.6224 19.2748C92.651 19.1316 92.6797 18.9884 92.6224 18.8739C92.5937 18.7593 92.5078 18.6448 92.3646 18.5302C91.8777 18.1579 90.3884 18.1006 90.0161 18.1006C89.7297 18.1006 88.6987 18.1292 86.6652 18.7307C86.5507 18.5588 86.3788 18.4443 86.1783 18.4443H84.689C84.374 18.4443 84.1449 18.5302 84.0303 18.702C83.9158 18.8452 83.8871 19.0744 83.8871 19.3894V30.244C83.8871 30.6164 83.973 30.9028 84.1449 31.1032L84.1735 31.1319C84.3454 31.3324 84.6318 31.4183 84.9754 31.4183H86.1497C86.522 31.4183 86.8084 31.3037 86.9803 31.1032C87.1521 30.9028 87.2094 30.6164 87.2094 30.244V21.3656C87.4958 21.2224 88.8992 20.936 89.7297 20.936C89.8443 20.936 89.9588 20.936 90.0734 20.9646C90.4457 20.9933 90.7608 21.0792 91.0472 21.2224L91.2763 21.2797H91.3336C91.4768 21.2797 91.7059 21.2224 91.7918 20.8787L92.6224 19.2748V19.2748ZM82.3978 18.6734C82.2546 18.4729 81.9969 18.387 81.6245 18.387H79.3333V15.0647C79.3333 14.721 79.276 14.4346 79.1042 14.2628C78.9324 14.0623 78.7033 13.9478 78.3596 13.9478H76.9562C76.6125 13.9478 76.3548 14.0623 76.2116 14.2628C76.0684 14.4633 75.9824 14.721 75.9824 15.0647V26.9504C75.9824 30.8168 78.3882 31.6474 79.6197 31.7906C80.0207 31.8479 80.3644 31.5328 80.3644 31.1319V29.3562C80.3644 29.0984 80.2212 28.8979 80.0207 28.7834C79.9061 28.7261 79.7629 28.6115 79.6484 28.4683C79.4193 28.1819 79.3333 27.6091 79.3333 26.8645V21.3083H81.6245C81.9969 21.3083 82.2546 21.2224 82.3978 21.0505C82.541 20.8787 82.5983 20.6209 82.5983 20.22V19.504C82.5983 19.1316 82.541 18.8452 82.3978 18.6734V18.6734ZM71.9442 18.4729C70.999 18.1579 69.9966 17.986 68.9942 17.986C66.8176 17.986 65.1278 18.6161 63.9822 19.819C62.8366 21.0505 62.2351 22.7976 62.2351 25.0602C62.2351 27.0363 62.722 28.6115 63.6958 29.7285C64.6696 30.8455 66.0443 31.4183 67.7913 31.4183C68.6219 31.4183 69.3379 31.2751 69.9107 31.0173C70.3117 30.8455 70.7126 30.5877 71.0277 30.244C70.9704 31.1892 70.7699 31.9052 70.3976 32.3061C69.968 32.8217 69.3093 33.0508 68.3641 33.0508C67.4763 33.0508 66.6171 32.9076 65.9011 32.6498C65.6147 32.5353 65.2996 32.7644 65.2996 33.0508L65.2424 34.9697C65.2424 35.1702 65.3856 35.3706 65.586 35.4279C66.1875 35.5711 67.4477 35.8575 68.6219 35.8575C70.5694 35.8575 72.0301 35.2274 72.9752 33.9673C73.8917 32.7357 74.3499 30.9887 74.3499 28.8407V19.5612C74.3786 19.5612 72.8893 18.788 71.9442 18.4729V18.4729ZM71.085 21.2797V25.8048C71.085 26.6354 70.8558 27.3227 70.3689 27.781C69.8821 28.2392 69.252 28.497 68.4787 28.497C67.5049 28.497 66.7603 28.2106 66.2734 27.6378C65.7865 27.0363 65.5288 26.1198 65.5288 24.8883C65.5288 22.1961 66.6171 20.9073 68.851 20.9073C69.3093 20.9073 69.7675 20.936 70.1685 21.0219C70.5408 21.0505 70.8272 21.1651 71.085 21.2797V21.2797ZM56.6789 17.986C55.0751 17.986 54.2732 18.1865 53.0703 18.5016C52.8698 18.5588 52.6693 18.6161 52.4688 18.6448C52.3829 18.4729 52.1824 18.3584 51.9819 18.3584H50.4927C50.1776 18.3584 49.9485 18.4443 49.8339 18.6161C49.7194 18.7593 49.6907 18.9884 49.6907 19.3035V30.244C49.6907 30.6164 49.7767 30.9028 49.9485 31.1032C50.1203 31.3037 50.4067 31.4183 50.7791 31.4183H51.9533C52.3256 31.4183 52.612 31.3037 52.7839 31.1032C52.9557 30.9028 53.013 30.6164 53.013 30.244V21.3083C53.328 21.1651 54.9319 20.8787 55.7625 20.8787C56.4498 20.8787 56.9367 21.0219 57.2231 21.3369C57.5095 21.652 57.6527 22.2248 57.6527 22.9981V30.2727C57.6527 30.645 57.7386 30.9314 57.9105 31.1319C58.0823 31.3324 58.3687 31.4469 58.741 31.4469H59.9439C60.3162 31.4469 60.6026 31.3324 60.7745 31.1319C60.9463 30.9314 61.0036 30.645 61.0036 30.2727V22.7976C61.0036 21.2224 60.6026 20.0195 59.8294 19.2176C58.9988 18.387 57.9677 17.986 56.6789 17.986V17.986ZM46.9413 18.387H45.767C45.3947 18.387 45.1083 18.5016 44.9365 18.702C44.7646 18.9025 44.6787 19.1889 44.6787 19.5899V30.2727C44.6787 30.645 44.7646 30.9314 44.9365 31.1319C45.1083 31.3324 45.3947 31.4469 45.767 31.4469H46.9413C47.3136 31.4469 47.6 31.3324 47.7718 31.1319C47.9437 30.9314 48.001 30.645 48.001 30.2727V19.5899C48.001 19.1889 47.915 18.9025 47.7432 18.702C47.6 18.5016 47.3136 18.387 46.9413 18.387V18.387ZM42.7598 12.9167C41.786 13.3463 39.7526 15.0361 39.7526 15.4371V18.8739C39.0079 18.2724 37.9196 17.9574 36.5735 17.9574C35.4279 17.9574 34.3969 18.2438 33.5663 18.8452C32.7071 19.418 32.0484 20.2486 31.6188 21.2797C31.1605 22.3107 30.96 23.5136 30.96 24.8597C30.96 29.4708 33.194 31.7906 37.5759 31.7906C38.6356 31.7906 39.6667 31.6188 40.6404 31.3037C41.6142 30.96 43.1035 30.2154 43.1035 30.2154V13.2031C43.1035 13.1172 43.0748 13.0599 43.0462 13.0026C42.9316 12.9454 42.8457 12.8594 42.7598 12.9167V12.9167ZM39.7812 23.1985V28.4397C39.2371 28.7834 38.5211 28.9552 37.6332 28.9552C36.4876 28.9552 35.6284 28.6402 35.0842 28.0387C34.5401 27.4087 34.2537 26.3776 34.2537 24.9456C34.2537 23.6568 34.5114 22.6257 35.027 21.9097C35.5138 21.2224 36.2871 20.8501 37.2895 20.8501C38.0342 20.8501 38.6643 21.0505 39.1225 21.4515C39.5521 21.8238 39.7812 22.4253 39.7812 23.1985V23.1985ZM25.4039 17.986C23.8 17.986 22.9981 18.1865 21.7952 18.5016L21.7093 18.5302C21.5374 18.5875 21.3656 18.6161 21.1651 18.6734C21.1078 18.5588 20.9646 18.387 20.6782 18.387H19.1889C18.8739 18.387 18.6448 18.4729 18.5302 18.6448C18.4156 18.788 18.387 19.0171 18.387 19.3321V30.2727C18.387 30.645 18.4729 30.9314 18.6448 31.1319C18.8166 31.3324 19.103 31.4469 19.4753 31.4469H20.6496C21.0219 31.4469 21.3083 31.3324 21.4801 31.1319C21.652 30.9314 21.7093 30.645 21.7093 30.2727V21.3083C22.0243 21.1651 23.6282 20.8787 24.4587 20.8787C25.1461 20.8787 25.633 21.0219 25.9194 21.3369C26.2058 21.652 26.349 22.1961 26.349 22.9981V30.2727C26.349 30.645 26.4349 30.9314 26.6067 31.1319C26.7786 31.3324 27.065 31.4469 27.4373 31.4469H28.6402C29.0125 31.4469 29.2989 31.3324 29.4708 31.1319C29.6426 30.9314 29.6999 30.645 29.6999 30.2727V22.7976C29.6999 21.2224 29.2989 20.0195 28.5256 19.2176C27.7237 18.387 26.664 17.986 25.4039 17.986V17.986ZM11.1124 17.9574C9.13622 17.9574 7.61829 18.5875 6.52996 19.7904C5.47028 20.9933 4.92611 22.7689 4.92611 25.0888C4.92611 26.5781 5.21252 27.8383 5.81396 28.8407C6.38676 29.8431 7.18869 30.5877 8.16245 31.0746C9.13622 31.5615 10.2245 31.7906 11.4274 31.7906C12.3726 31.7906 13.2318 31.676 13.9478 31.4756C14.6924 31.2464 15.3798 30.9314 16.0099 30.4732C16.2103 30.33 16.2963 30.1581 16.2963 29.9576C16.2963 29.8431 16.2676 29.6999 16.2103 29.5567L15.6662 28.4397C15.5516 28.096 15.3225 28.0674 15.2079 28.0674C15.0934 28.0674 14.9788 28.1247 14.8356 28.2106C13.9478 28.812 12.9167 29.1271 11.7711 29.1271C10.5969 29.1271 9.68039 28.8407 9.0503 28.2679C8.44886 27.7237 8.13382 26.9791 8.10517 26.0053H16.1244C16.4681 26.0053 17.0696 25.8621 17.0696 24.8597C17.0696 22.6544 16.554 20.9646 15.5516 19.7904C14.5779 18.5588 13.0599 17.9574 11.1124 17.9574V17.9574ZM14.0051 23.5709H8.10517C8.13382 22.683 8.39158 21.967 8.87846 21.4229C9.39398 20.8501 10.1386 20.5637 11.1124 20.5637C12.0575 20.5637 12.8022 20.8501 13.2604 21.3942C13.7187 21.9384 13.9764 22.6544 14.0051 23.5709ZM3.66594 28.4683C3.43682 28.1819 3.3509 27.6091 3.3509 26.8645V14.3774C3.3509 14.0337 3.29362 13.7473 3.12178 13.5754C2.94994 13.375 2.72082 13.2604 2.37714 13.2604H0.973766C0.630084 13.2604 0.372322 13.375 0.229121 13.5754C0.0859204 13.7759 0 14.0337 0 14.3774V26.9504C0 30.8168 2.40578 31.6474 3.6373 31.7906C4.03827 31.8479 4.38195 31.5328 4.38195 31.1319V29.3562C4.38195 29.0984 4.23875 28.8979 4.03827 28.7834C3.92371 28.7261 3.80915 28.6402 3.66594 28.4683V28.4683Z" fill="#404242"/>
<path d="M61.1183 0C60.2591 0.143201 54.6456 0.744645 50.4928 1.77569C44.5929 3.23634 44.7074 8.16245 44.7074 10.11V16.6972C44.7074 16.7832 44.7934 16.8118 44.822 16.7259C48.9175 11.2842 53.1563 7.73285 53.1563 7.73285C53.1563 7.73285 53.1849 7.70421 53.1277 7.73285C52.7553 7.81877 50.636 8.50614 48.0583 9.90951V9.07894C48.0297 5.72804 50.0059 4.81155 52.3544 4.15283C54.2733 3.60866 57.8533 3.32226 57.8533 3.32226C57.8533 3.32226 57.5669 5.413 57.1946 9.68038C56.9082 12.8022 54.6456 13.4895 51.4379 13.4895H49.6335C48.2015 15.5516 48.0011 16.7832 48.0011 16.7832H51.5238C58.2256 16.7832 59.7149 13.8332 60.0299 9.4799C60.4309 3.92371 61.0037 0.716005 61.1469 0.114561C61.2042 0.0572803 61.1755 0 61.1183 0V0Z" fill="#62676A"/>
</svg>
