<svg width="158" height="24" viewBox="0 0 158 24" fill="none" xmlns="http://www.w3.org/2000/svg">
<path fill-rule="evenodd" clip-rule="evenodd" d="M85.0005 22.4176H102.011V20.3077H87.9016V13.7143H98.5829V11.6044H87.9016V5.40664H102.011V3.29675H85.0005V22.4176Z" fill="#4E4E4E"/>
<path fill-rule="evenodd" clip-rule="evenodd" d="M93.7037 0.263794L91.4619 2.90116L98.7147 0.263794H93.7037Z" fill="#4E4E4E"/>
<path fill-rule="evenodd" clip-rule="evenodd" d="M130.758 20.3077V3.29675H128.121V22.4176H145.528V20.3077H130.758Z" fill="#4E4E4E"/>
<path fill-rule="evenodd" clip-rule="evenodd" d="M110.451 15.1649L115.066 6.06598L119.682 15.1649H110.451ZM113.22 3.29675L103.462 22.4176H106.759L109.264 17.5385H121L123.506 22.4176H126.803L117.044 3.29675H113.22Z" fill="#4E4E4E"/>
<path fill-rule="evenodd" clip-rule="evenodd" d="M73.2641 12.1319C64.2971 12.1319 64.2971 12.1319 64.2971 12.1319C64.2971 5.53851 64.2971 5.53851 64.2971 5.53851C73.5278 5.53851 73.5278 5.53851 73.5278 5.53851C75.7696 5.53851 76.9564 6.59346 77.352 7.91214C77.6157 8.83521 77.4839 9.89016 76.9564 10.6814C76.1652 11.8682 74.7146 12.1319 73.2641 12.1319ZM75.5059 14.5055C79.9894 13.3187 80.385 10.022 80.385 8.83521C80.1212 5.40664 77.7476 3.29675 73.6597 3.29675C61.5278 3.29675 61.5278 3.29675 61.5278 3.29675C61.5278 22.4176 61.5278 22.4176 61.5278 22.4176C64.2971 22.4176 64.2971 22.4176 64.2971 22.4176C64.2971 14.3737 64.2971 14.3737 64.2971 14.3737C72.2091 14.3737 72.2091 14.3737 72.2091 14.3737C78.0113 22.4176 78.0113 22.4176 78.0113 22.4176C81.4399 22.4176 81.4399 22.4176 81.4399 22.4176C81.4399 22.4176 77.352 17.1429 75.5059 14.5055Z" fill="#4E4E4E"/>
<path fill-rule="evenodd" clip-rule="evenodd" d="M44.7805 21.6264C39.3739 21.6264 34.8904 17.2747 34.8904 12.1319C34.8904 6.98901 39.1102 2.37363 44.9124 2.37363C50.5827 2.37363 54.8025 6.85714 54.8025 12.1319C54.9344 17.4066 50.1871 21.6264 44.7805 21.6264ZM44.9124 0C37.0003 0 31.7256 5.53846 31.7256 12.1319C31.7256 19.1209 37.6597 24 44.9124 24C52.1651 24 57.9673 19.1209 57.9673 12.1319C58.0992 5.53846 52.6926 0 44.9124 0Z" fill="#4E4E4E"/>
<path fill-rule="evenodd" clip-rule="evenodd" d="M25.0002 10.1539H26.9783L30.5387 3.29675H27.6376L25.0002 10.1539Z" fill="#4E4E4E"/>
<path fill-rule="evenodd" clip-rule="evenodd" d="M15.11 20.3077V3.29675H12.4727V22.4176H29.8792V20.3077H15.11Z" fill="#4E4E4E"/>
</svg>
