<svg width="174" height="36" viewBox="0 0 174 36" fill="none" xmlns="http://www.w3.org/2000/svg">
<path d="M32.4224 10.2857C31.0807 4.24845 27.2795 0 20.1242 0H19.677C11.8509 0 5.81366 4.02485 2.68323 10.2857C0.89441 13.4162 0 17.2174 0 21.2422C0 29.0683 4.24845 33.9876 9.83851 35.3292C10.9565 35.5528 12.0745 35.7764 13.1925 35.7764C14.5342 35.7764 15.6522 35.5528 16.7702 35.3292C19.0062 34.6584 20.795 33.5404 22.3602 31.9752V35.3292C22.3602 35.5528 22.5838 35.5528 22.5838 35.5528H27.5031L27.7267 35.3292L31.0807 18.3354C31.0807 18.1118 30.8571 17.8882 30.6335 17.8882H18.559C18.3354 17.8882 18.3354 18.1118 18.1118 18.1118L17.2174 22.5839V22.8075C17.2174 23.0311 17.441 23.0311 17.441 23.0311H23.4783C22.1366 26.6087 19.2298 29.7391 14.3106 29.7391C9.3913 29.7391 6.48447 26.1615 6.48447 20.3478C6.48447 16.5466 7.82609 12.7453 9.83851 10.2857C11.8509 7.82609 14.9814 6.03727 18.559 6.03727C21.913 6.03727 23.9255 7.60249 25.2671 10.2857C25.4907 10.9565 25.9379 11.6273 26.1615 12.5217C26.1615 12.7453 26.3851 12.7453 26.3851 12.7453L32.1988 11.1801L32.4224 10.9565V10.2857ZM45.6149 0.447205C45.6149 0.223602 45.3913 0 45.1677 0H39.5776C39.354 0 39.354 0.223602 39.1304 0.223602L32.4224 34.882V35.1056C32.4224 35.3292 32.646 35.3292 32.646 35.3292H38.4596L38.6832 35.1056L45.6149 0.447205ZM62.1615 27.7267C60.8199 29.5155 59.031 30.4099 56.5714 30.4099C53.6646 30.4099 51.6522 27.9503 51.6522 24.1491C51.6522 21.4658 52.323 19.4534 53.441 17.6646C54.7826 15.8758 56.5714 14.9814 59.031 14.9814C61.9379 14.9814 63.9503 17.441 63.9503 21.2422C63.9503 24.1491 63.2795 26.1615 62.1615 27.7267ZM62.8323 10.2857C61.7143 10.0621 60.8199 9.83851 59.4783 9.83851C58.1366 9.83851 56.795 10.0621 55.4534 10.2857C53.2174 10.7329 51.205 11.8509 49.1925 13.8634C46.2857 16.7702 44.9441 20.3478 44.9441 25.2671C44.9441 30.1863 47.8509 34.2112 52.5466 35.5528C53.6646 35.5528 54.7826 35.7764 55.9006 35.7764C57.2422 35.7764 58.5838 35.5528 59.9255 35.3292C62.1615 34.882 64.1739 33.764 66.1863 31.7516C69.0932 28.8447 70.4348 25.2671 70.4348 20.3478C70.6584 15.4286 67.7515 11.4037 62.8323 10.2857ZM91.2298 13.8634C90.3354 12.2981 88.5466 10.9565 86.3105 10.2857C85.4161 10.0621 84.5217 9.83851 83.6273 9.83851C82.5093 9.83851 81.3913 10.0621 80.4969 10.2857C76.9193 11.1801 74.9068 13.8634 74.9068 17.6646C74.9068 21.0186 77.1428 23.0311 80.0497 24.3727C82.9565 25.7143 84.2981 26.6087 84.2981 28.1739C84.2981 29.9627 82.7329 30.8571 81.1677 30.8571C78.7081 30.8571 77.1429 29.5155 76.472 26.8323C76.472 26.6087 76.2484 26.6087 76.0248 26.6087H75.8012L71.1056 28.6211C70.882 28.6211 70.882 28.8447 70.882 28.8447C71.5528 31.3043 73.5652 34.4348 77.3664 35.5528C78.2609 35.7764 79.1553 36 80.2733 36C81.6149 36 82.7329 35.7764 83.8509 35.5528C87.6522 34.6584 90.1118 31.9752 90.1118 27.2795C90.1118 23.7019 87.4286 22.1366 84.9689 20.795C83.1801 19.9006 80.7205 19.2298 80.7205 17.441C80.7205 16.0994 81.8385 15.205 83.1801 15.205C84.5217 15.205 85.8633 15.8758 86.7578 16.9938L86.9814 17.2174H87.205L91.0062 14.5342C91.2298 14.087 91.2298 14.087 91.2298 13.8634ZM106.882 10.2857C105.988 10.0621 105.093 9.83851 104.199 9.83851C103.081 9.83851 101.963 10.0621 101.068 10.2857C97.4907 11.1801 95.4783 13.8634 95.4783 17.6646C95.4783 21.0186 97.7143 23.0311 100.621 24.3727C103.528 25.7143 104.87 26.6087 104.87 28.1739C104.87 29.9627 103.304 30.8571 101.739 30.8571C99.2795 30.8571 97.7143 29.2919 97.0435 26.8323C97.0435 26.6087 96.8199 26.6087 96.8199 26.6087H96.5963L91.677 28.1739C91.4534 28.1739 91.4534 28.3975 91.4534 28.3975C92.1242 30.8571 94.1366 33.9876 97.9379 35.1056C98.8323 35.3292 99.7267 35.5528 100.845 35.5528C102.186 35.5528 103.304 35.3292 104.422 35.1056C108.224 34.2112 110.683 31.528 110.683 26.8323C110.683 23.2547 108 21.6894 105.54 20.3478C103.752 19.4534 101.292 18.7826 101.292 16.9938C101.292 15.6522 102.41 14.7578 103.752 14.7578C105.093 14.7578 106.435 15.4286 107.329 16.5466L107.553 16.7702H107.776L111.801 13.8634L112.025 13.6398V13.4161C110.907 12.0745 109.118 10.7329 106.882 10.2857ZM122.981 10.2857H117.391C117.168 10.2857 117.168 10.2857 116.944 10.5093L112.248 34.882V35.1056C112.248 35.3292 112.472 35.3292 112.472 35.3292H118.286L118.509 35.1056L123.205 10.5093C123.429 10.2857 123.205 10.2857 122.981 10.2857ZM131.702 19.9006C132.82 17.2174 135.279 15.205 138.41 15.205C141.54 15.205 143.106 16.7702 143.106 19.9006H131.702ZM142.435 10.2857C141.54 10.0621 140.422 9.83851 139.304 9.83851C137.963 9.83851 136.845 10.0621 135.727 10.2857C128.795 11.8509 124.323 18.1118 124.323 24.8199C124.323 30.6335 127.453 34.4348 131.925 35.5528C132.82 35.7764 133.938 36 135.056 36C136.398 36 137.739 35.7764 138.857 35.5528C142.435 34.6584 144.894 32.646 147.354 29.2919V29.0683C147.354 28.8447 147.354 28.8447 147.13 28.8447L142.882 26.6087H142.658C142.435 26.6087 142.435 26.6087 142.435 26.8323C140.646 29.5155 138.634 30.8571 135.727 30.8571C132.373 30.8571 130.584 28.6211 130.584 25.9379V25.0435H148.696L148.919 24.8199C149.143 24.1491 149.59 22.3602 149.59 20.1242C149.366 15.205 146.907 11.4037 142.435 10.2857ZM169.491 15.8758H169.938C169.938 15.8758 170.161 15.8758 170.161 15.6522L171.95 10.7329V10.5093C171.95 10.2857 171.95 10.2857 171.727 10.2857C171.503 10.2857 171.503 10.2857 171.279 10.0621C170.609 9.83851 169.938 9.61491 168.596 9.61491C167.702 9.61491 166.807 9.83851 165.913 10.0621C164.124 10.7329 162.335 11.8509 160.77 13.8634L161.441 10.5093C161.441 10.2857 161.217 10.0621 160.994 10.0621H155.404C155.18 10.0621 155.18 10.2857 154.957 10.2857L150.261 34.6584V34.882C150.261 35.1056 150.484 35.1056 150.484 35.1056H156.298L156.522 34.882L158.311 26.1615C159.876 18.3354 164.124 14.9814 167.255 14.9814C168.149 15.4286 168.82 15.4286 169.491 15.8758ZM121.416 0.447205C119.404 0.447205 117.839 2.01242 117.839 4.02485C117.839 6.03727 119.404 7.60248 121.416 7.60248C123.429 7.60248 124.994 6.03727 124.994 4.02485C124.994 2.01242 123.429 0.447205 121.416 0.447205ZM169.714 28.6211C167.702 28.6211 166.137 30.1863 166.137 32.1988C166.137 33.5404 166.807 34.6584 167.925 35.3292C168.373 35.5528 169.043 35.7764 169.714 35.7764C170.385 35.7764 171.056 35.5528 171.503 35.3292C172.621 34.6584 173.292 33.5404 173.292 32.1988C173.292 30.1863 171.727 28.6211 169.714 28.6211Z" fill="#4E4E4E"/>
</svg>
