<svg width="158" height="24" viewBox="0 0 158 24" fill="none" xmlns="http://www.w3.org/2000/svg">
<path d="M37.1765 23.4511V0.193726C37.649 0.193726 38.0548 0.513293 38.6138 1.10834L47.5639 10.0585L56.5141 1.10834C57.0063 0.597868 57.4038 0.193726 58.0167 0.193726V23.4511H53.1823V12.345L47.5639 17.8981L42.024 12.345L42.0109 23.4511H37.1765Z" fill="#4E4E4E"/>
<path d="M70.5723 0.193726C70.078 0.193726 69.9532 0.548965 69.5804 1.36966L60.0029 23.4511H65.164L66.1962 20.8379H74.0098L75.042 23.4511H81.1044L71.5402 1.36966C71.16 0.53701 70.9548 0.193726 70.5723 0.193726ZM70.103 11.2737L72.3502 16.7875H67.8558L70.103 11.2737Z" fill="#4E4E4E"/>
<path d="M83.1035 0.455078V23.4511H88.5912V14.8276H89.9631C92.2758 14.8276 93.2145 15.6245 94.0105 17.7514C94.9607 20.2675 95.2976 22.004 95.5815 23.4511H101.782L99.8932 17.9634C99.1366 15.7437 98.1573 13.9844 96.3654 12.7878C97.8263 12.1756 99.5107 10.0985 99.5107 7.26544C99.5107 2.81515 96.0074 0.455078 91.531 0.455078H83.1035ZM88.5912 4.50552H90.2245C92.7899 4.50552 93.9477 5.70409 93.9477 7.61301C93.9477 9.49383 92.6344 10.6465 90.6164 10.6465H88.5912V4.50552Z" fill="#4E4E4E"/>
<path d="M111.617 19.6651C113.923 19.6651 114.85 18.4052 114.85 17.3087C114.85 13.2428 103.695 15.1276 103.695 7.09044C103.695 4.58465 105.802 0 112.136 0C115.917 0 118.722 1.88465 119.926 3.15383L116.757 6.47828C115.581 5.2681 114.066 4.23686 111.855 4.23686C110.236 4.23686 109.299 5.01643 109.299 6.36633C109.299 10.0962 120.823 8.66918 120.823 16.6051C120.823 20.1406 118.283 24 111.808 24C107.294 24 104.55 22.1369 102.996 20.2577L106.189 16.8914C107.386 18.3134 108.843 19.6651 111.617 19.6651Z" fill="#4E4E4E"/>
</svg>
