<svg width="112" height="32" viewBox="0 0 112 32" fill="none" xmlns="http://www.w3.org/2000/svg">
<path d="M67.7432 17.9856C67.7432 17.9856 67.515 17.164 67.515 16.5705V7.07552H71.3039V25.3351L59.1612 15.2923C58.4765 14.7446 58.1113 14.1055 58.1113 14.1055C58.1113 14.1055 58.2939 14.7902 58.2939 15.3836V24.9699H54.505V6.71033L66.5564 16.5705C67.1498 17.164 67.7432 17.9856 67.7432 17.9856Z" fill="#404242"/>
<path d="M102.071 7.07556C108.097 7.07556 109.649 9.44931 109.649 12.873C109.649 15.338 107.823 17.7574 104.171 18.0313L103.76 18.077C103.76 18.077 104.125 18.1226 104.491 18.4878L111.155 24.9243H106.043L96.7303 15.475H101.341C105.495 15.475 105.586 13.2838 105.632 12.736C105.677 11.3209 105.267 10.1797 102.117 10.1797H96.8216V24.97H92.8958V7.12121H102.071V7.07556Z" fill="#404242"/>
<path d="M72.9928 16.251C72.9928 8.76454 79.2467 6.80164 84.542 6.80164C86.6419 6.80164 88.5135 6.98423 90.4764 7.39507V11.1839C89.3352 10.8644 87.0984 10.0884 84.542 10.0884C79.5663 10.0884 77.1469 12.0056 77.1469 16.251C77.1469 19.7203 79.7489 21.9115 84.542 21.9115C87.0527 21.9115 89.6547 21.318 90.8872 20.8615V24.5135C88.9243 24.9243 86.6875 25.1982 84.542 25.1982C78.8815 25.1982 72.9928 22.4593 72.9928 16.251Z" fill="#404242"/>
<path d="M30.2653 7.5321L33.9629 11.0471C33.8716 11.0927 33.7346 11.1384 33.5977 11.2297C33.4151 11.321 33.1412 11.5036 32.8217 11.6862C32.2282 12.097 31.4065 12.7817 30.4023 13.8773L23.1897 21.5464C21.9572 22.8245 20.679 23.9201 19.5378 24.4679L15.8402 20.9529C15.9315 20.9073 16.0685 20.8616 16.2054 20.7703C16.388 20.679 16.6619 20.4964 16.9814 20.3138C17.5749 19.903 18.3966 19.2183 19.4008 18.1227L26.6134 10.4993C27.8459 9.12982 29.0784 8.07989 30.2653 7.5321Z" fill="#404242"/>
<path d="M15.8859 26.0656C17.5292 26.0656 19.0357 25.746 20.0399 25.1982C20.4964 24.97 21.1812 24.5135 21.7289 24.1027C22.2767 23.6918 23.0984 22.9614 23.7832 22.2311L30.9957 14.6077C32.8217 12.6904 33.9172 12.097 34.602 11.8231L38.3452 15.338C37.5692 16.1597 28.3024 26.0199 28.3024 26.0199C27.6633 26.7047 27.0242 27.3437 26.5677 27.8002C26.1569 28.2111 25.3809 28.8045 25.0157 29.0784C22.8702 30.6761 19.9486 31.9999 16.0228 31.9999C7.1669 31.9999 0 24.7874 0 16.4793C0 6.16259 8.07988 0.182563 15.3837 0.182563C17.6205 0.136914 19.4465 0.502108 20.8616 1.00425C22.1854 1.41509 23.1441 2.00853 23.8744 2.37372C23.0071 2.92151 22.1854 3.65189 20.8616 5.11266L19.3552 6.71038C19.0357 6.57343 17.4836 6.02564 15.5663 6.11694C10.8645 6.25389 5.70613 10.0884 5.88873 16.2967C6.11697 22.0941 10.9558 26.0656 15.8859 26.0656Z" fill="#404242"/>
<path d="M29.6262 6.80171C29.1697 7.02995 28.485 7.48645 27.9372 7.89729C27.3894 8.30813 26.5677 9.03851 25.883 9.76889L18.6704 17.3923C16.8445 19.3095 15.7489 19.903 15.0641 20.1769L11.3209 16.6619C12.097 15.8402 21.3637 5.98002 21.3637 5.98002C22.0028 5.29529 22.6419 4.6562 23.0984 4.19971C23.5092 3.78887 24.2853 3.19543 24.6504 2.92154C26.796 1.32382 29.7175 0 33.6433 0C42.4992 0 49.6661 7.21255 49.6661 15.5207C49.6661 25.8374 41.5862 31.8174 34.2824 31.8174C32.0456 31.863 30.2196 31.4978 28.8045 30.9957C27.4807 30.5849 26.4764 29.9914 25.7917 29.6262C26.7047 29.0328 27.4807 28.3481 28.8045 26.8873L30.3109 25.2896C30.6305 25.4265 32.1825 25.9743 34.0998 25.883C38.8017 25.7461 43.96 21.9115 43.7774 15.6576C43.5948 9.81455 38.756 5.84308 33.8259 5.84308C32.1369 5.93438 30.6305 6.29957 29.6262 6.80171Z" fill="#404242"/>
</svg>
