<svg width="198" height="32" viewBox="0 0 198 32" fill="none" xmlns="http://www.w3.org/2000/svg">
<path d="M11.9044 17.4523C12.1436 17.3998 12.2961 17.1606 12.2544 16.9173C12.2011 16.6685 11.9598 16.4985 11.7169 16.5615C11.6588 16.5707 11.6032 16.5917 11.5534 16.6232C11.5037 16.6546 11.4608 16.6959 11.4275 16.7444C11.3942 16.7929 11.3711 16.8477 11.3596 16.9054C11.3481 16.9632 11.3485 17.0226 11.3607 17.0802C11.4107 17.336 11.6511 17.5106 11.904 17.4519L11.9044 17.4523ZM21.1526 15.5223C21.3922 15.4669 21.543 15.2294 21.5026 14.9865C21.4484 14.7336 21.2051 14.564 20.9651 14.6281C20.7093 14.6681 20.561 14.9144 20.6085 15.1506C20.6568 15.4015 20.9001 15.5748 21.153 15.5215L21.1526 15.5223ZM13.0152 19.4981C13.1469 19.3927 13.2325 19.2402 13.2539 19.0729C13.2753 18.9056 13.2308 18.7365 13.1298 18.6014C12.9006 18.3373 12.5065 18.2889 12.2323 18.496C11.9657 18.6993 11.9157 19.1014 12.1352 19.3768C12.3419 19.6502 12.7427 19.7185 13.0144 19.4989L13.0152 19.4981ZM20.5751 13.5627C20.8593 13.3311 20.8918 12.9394 20.6885 12.6669C20.4614 12.4036 20.0655 12.3544 19.7947 12.5628C19.7302 12.614 19.6766 12.6775 19.6367 12.7496C19.5969 12.8216 19.5718 12.9009 19.5628 12.9827C19.5537 13.0646 19.561 13.1474 19.5842 13.2264C19.6073 13.3055 19.6459 13.3791 19.6976 13.4432C19.9043 13.7169 20.3043 13.7848 20.5747 13.5632L20.5751 13.5627ZM15.4985 20.9306C15.6764 20.5006 15.4402 19.9922 15.009 19.8381C14.554 19.661 14.0798 19.8839 13.8936 20.3443C13.7244 20.7776 13.956 21.2651 14.4019 21.4372C14.851 21.5855 15.3319 21.3714 15.4977 20.9306H15.4985ZM18.9335 11.759C19.1035 11.334 18.8751 10.8232 18.4402 10.6699C17.9868 10.4949 17.5143 10.7199 17.3243 11.1757C17.1535 11.6103 17.3898 12.0978 17.831 12.2694C18.281 12.4153 18.7635 12.2069 18.9335 11.759V11.759ZM20.4676 17.1114C20.391 17.4614 20.5647 17.7898 20.9034 17.8798C21.2397 17.9723 21.5859 17.7589 21.6743 17.4381C21.6947 17.3594 21.6993 17.2774 21.6878 17.1969C21.6764 17.1164 21.6491 17.0389 21.6075 16.969C21.5659 16.8992 21.5109 16.8382 21.4456 16.7897C21.3804 16.7412 21.3061 16.7061 21.2272 16.6865C21.1494 16.664 21.0679 16.6572 20.9875 16.6665C20.907 16.6757 20.8292 16.7009 20.7585 16.7404C20.6878 16.7799 20.6257 16.833 20.5757 16.8967C20.5257 16.9604 20.4888 17.0334 20.4672 17.1114H20.4676ZM19.2039 18.8481C19.0335 19.0268 18.9391 19.2646 18.9403 19.5115C18.9415 19.7584 19.0384 19.9952 19.2106 20.1722C19.5801 20.5251 20.1605 20.5193 20.4951 20.1689C20.8764 19.8106 20.8839 19.2089 20.5185 18.8606C20.3453 18.6853 20.1098 18.5856 19.8633 18.5832C19.6169 18.5809 19.3795 18.6761 19.2031 18.8481H19.2039ZM17.2635 19.8656C16.7635 19.9906 16.416 20.5072 16.5398 21.0114C16.6481 21.5381 17.1781 21.8697 17.6939 21.7551C18.2197 21.6468 18.5381 21.1164 18.4331 20.5993C18.3072 20.071 17.7943 19.7618 17.2631 19.8652L17.2635 19.8656ZM11.1611 14.6265C11.0653 14.9706 11.2611 15.299 11.6069 15.4036C11.9252 15.4869 12.2694 15.2881 12.3561 14.9602C12.4519 14.6269 12.2394 14.2915 11.9177 14.2011C11.761 14.1582 11.5937 14.1788 11.4521 14.2583C11.3104 14.3379 11.2057 14.47 11.1607 14.6261L11.1611 14.6265ZM12.3152 11.909C11.9677 12.2782 11.9502 12.8569 12.3102 13.2132C12.6715 13.5786 13.2519 13.5815 13.6311 13.2132C13.9827 12.8569 13.9827 12.2782 13.6186 11.909C13.4449 11.7378 13.2108 11.6419 12.9669 11.6419C12.723 11.6419 12.4889 11.7378 12.3152 11.909ZM15.1427 10.329C14.8914 10.3803 14.6706 10.5289 14.5285 10.7424C14.3864 10.956 14.3346 11.217 14.3844 11.4686C14.5185 11.9894 15.024 12.3228 15.5552 12.2003C15.8036 12.1442 16.0198 11.9921 16.1564 11.7772C16.2931 11.5622 16.339 11.3019 16.2844 11.0532C16.1648 10.5399 15.646 10.2053 15.1427 10.3295V10.329ZM21.3201 21.9372C21.5993 22.2068 22.0118 22.2164 22.2763 21.9343C22.3409 21.8756 22.3925 21.8042 22.428 21.7245C22.4635 21.6449 22.482 21.5587 22.4824 21.4715C22.4828 21.3843 22.4651 21.2979 22.4303 21.2179C22.3955 21.1379 22.3445 21.066 22.2805 21.0068C22.0251 20.731 21.5847 20.7347 21.3318 20.9901C21.0705 21.2543 21.0672 21.6872 21.3201 21.9368V21.9372ZM10.4769 11.029C10.7465 11.2944 11.1761 11.3065 11.4373 11.0249C11.6915 10.7665 11.7007 10.3382 11.4344 10.0782C11.307 9.95411 11.1362 9.88452 10.9583 9.88421C10.7804 9.8839 10.6094 9.95289 10.4815 10.0765C10.3585 10.2042 10.2893 10.3743 10.2883 10.5516C10.2874 10.7289 10.3548 10.8997 10.4765 11.0286L10.4769 11.029ZM23.2242 19.5927C23.5722 19.7427 23.9651 19.5718 24.1117 19.2322C24.1789 19.0674 24.1787 18.8828 24.1111 18.7182C24.0435 18.5536 23.9141 18.422 23.7505 18.3518C23.6701 18.3154 23.5832 18.2958 23.495 18.2944C23.4067 18.2929 23.3192 18.3095 23.2376 18.3433C23.1561 18.377 23.0824 18.4272 23.021 18.4906C22.9597 18.5539 22.912 18.6293 22.8809 18.7118C22.7226 19.0618 22.9018 19.4606 23.2242 19.5922V19.5927ZM24.1809 16.9539C24.6309 16.9539 24.9951 16.601 24.9967 16.1552C24.9994 16.0494 24.981 15.9441 24.9428 15.8455C24.9045 15.7468 24.847 15.6567 24.7737 15.5804C24.7004 15.5041 24.6127 15.443 24.5157 15.4008C24.4187 15.3586 24.3142 15.336 24.2084 15.3344C23.7709 15.329 23.3917 15.6731 23.3809 16.1248C23.3841 16.3387 23.4686 16.5434 23.6171 16.6974C23.7657 16.8514 23.9672 16.9431 24.1809 16.9539V16.9539ZM24.1684 14.0973C24.7059 13.8957 24.9621 13.2907 24.7417 12.7498C24.5401 12.2273 23.9476 11.9478 23.4238 12.1574C22.8738 12.3728 22.6055 12.9682 22.8155 13.5023C22.865 13.6304 22.9394 13.7475 23.0342 13.8468C23.1291 13.9461 23.2426 14.0257 23.3683 14.081C23.494 14.1364 23.6293 14.1664 23.7666 14.1693C23.9039 14.1723 24.0405 14.1481 24.1684 14.0982V14.0973ZM9.00862 13.6669C9.36195 13.7994 9.75153 13.6394 9.89694 13.2961C9.96288 13.1307 9.96232 12.9463 9.89538 12.7813C9.82844 12.6164 9.7003 12.4837 9.53778 12.4111C9.1932 12.2653 8.78696 12.4382 8.65446 12.7807C8.51279 13.1194 8.67321 13.5148 9.00862 13.6669V13.6669ZM8.55738 16.6827C8.99195 16.6852 9.36153 16.3285 9.37195 15.8819C9.37945 15.4456 9.01029 15.0777 8.58863 15.0694C8.13572 15.0611 7.76781 15.4069 7.75822 15.854C7.75443 16.07 7.83657 16.2787 7.98658 16.4341C8.13659 16.5896 8.3422 16.6792 8.55821 16.6831L8.55738 16.6827ZM9.35153 19.856C9.4803 19.807 9.59796 19.7327 9.6976 19.6376C9.79725 19.5424 9.87686 19.4283 9.93175 19.302C9.98664 19.1756 10.0157 19.0395 10.0172 18.9018C10.0188 18.764 9.99275 18.6273 9.94069 18.4998C9.8929 18.3723 9.81989 18.2557 9.72603 18.1571C9.63217 18.0584 9.51938 17.9797 9.39441 17.9257C9.26945 17.8716 9.13486 17.8433 8.9987 17.8424C8.86254 17.8415 8.72761 17.8681 8.60196 17.9206C8.47515 17.9694 8.35921 18.0427 8.26077 18.1364C8.16234 18.2301 8.08334 18.3422 8.02831 18.4665C7.97327 18.5907 7.94328 18.7246 7.94005 18.8604C7.93682 18.9962 7.96041 19.1314 8.00947 19.2581C8.22197 19.7914 8.81154 20.0656 9.35112 19.8564L9.35153 19.856ZM19.0326 22.461C18.6685 22.6101 18.4764 23.0255 18.6389 23.4068C18.7918 23.7793 19.2239 23.9634 19.591 23.8159C19.9626 23.6568 20.1493 23.2401 19.9805 22.8551C19.838 22.4785 19.4035 22.301 19.0331 22.461H19.0326ZM16.3568 22.8401C15.8223 22.8318 15.3835 23.2776 15.3719 23.818C15.375 24.0777 15.4785 24.3261 15.6608 24.5111C15.843 24.6961 16.0898 24.8034 16.3493 24.8105C16.891 24.798 17.3318 24.3743 17.3439 23.8301C17.3523 23.2947 16.9089 22.853 16.3564 22.8393L16.3568 22.8401ZM13.8319 22.3339C13.2594 22.093 12.6111 22.3855 12.3723 22.9605C12.1515 23.5297 12.4348 24.1868 13.0031 24.4055C13.5615 24.6322 14.2177 24.3763 14.4456 23.8014C14.5577 23.5253 14.5561 23.2162 14.4412 22.9413C14.3263 22.6664 14.1074 22.4481 13.8323 22.3339H13.8319ZM11.6153 20.7356C11.1419 20.246 10.3528 20.2468 9.87528 20.7243C9.37862 21.2172 9.3732 21.9951 9.85444 22.4801C10.3482 22.9634 11.1294 22.9676 11.6157 22.4926C11.7315 22.3775 11.8235 22.2406 11.8863 22.0898C11.949 21.939 11.9813 21.7772 11.9813 21.6139C11.9813 21.4505 11.949 21.2888 11.8863 21.138C11.8235 20.9872 11.7315 20.8503 11.6157 20.7351L11.6153 20.7356ZM13.1777 8.20824C12.9994 8.28063 12.8569 8.4206 12.7813 8.59763C12.7058 8.77465 12.7033 8.97437 12.7744 9.15323C12.9411 9.53364 13.364 9.7103 13.7381 9.56572C13.9166 9.48884 14.0575 9.34455 14.1301 9.16427C14.2027 8.98399 14.2011 8.78234 14.1256 8.60324C13.9773 8.22199 13.5465 8.05324 13.1777 8.20824ZM16.4164 7.20659C16.1539 7.20692 15.9021 7.31137 15.7165 7.49704C15.5308 7.6827 15.4264 7.93442 15.426 8.19699C15.4335 8.45431 15.5405 8.6987 15.7245 8.8787C15.9086 9.0587 16.1553 9.16025 16.4127 9.16198C16.9418 9.17198 17.3952 8.72615 17.3848 8.18616C17.3952 7.66617 16.9514 7.21326 16.4164 7.20617V7.20659ZM19.7768 7.61075C19.2126 7.38034 18.5602 7.66242 18.3218 8.21907C18.0956 8.78157 18.376 9.45739 18.9356 9.6803C19.5197 9.90947 20.1635 9.6303 20.3897 9.05781C20.6251 8.48699 20.3455 7.84533 19.7764 7.61075H19.7768ZM22.8968 9.53989C22.4034 9.05323 21.6205 9.04406 21.1351 9.54614C20.6547 10.0078 20.6547 10.7953 21.1351 11.2765C21.2494 11.3929 21.3855 11.4855 21.5356 11.5491C21.6857 11.6127 21.847 11.646 22.01 11.6472C22.1731 11.6483 22.3347 11.6173 22.4858 11.5558C22.6368 11.4944 22.7742 11.4037 22.8901 11.289C23.3809 10.7953 23.3922 10.024 22.8968 9.53989V9.53989ZM23.0284 24.7009C23.2434 24.9522 23.6176 24.9801 23.8638 24.7697C24.1138 24.563 24.1447 24.1863 23.9288 23.9413C23.8263 23.8262 23.6832 23.755 23.5295 23.7428C23.3757 23.7307 23.2232 23.7783 23.1038 23.8759C22.8551 24.0884 22.8247 24.4601 23.0288 24.7009H23.0284ZM24.8226 23.0876C25.1242 23.3101 25.553 23.2501 25.7742 22.943C25.8817 22.7989 25.9278 22.618 25.9023 22.44C25.8768 22.262 25.782 22.1013 25.6384 21.993C25.3267 21.7689 24.8992 21.8289 24.6821 22.1335C24.575 22.2789 24.5296 22.4608 24.556 22.6395C24.5824 22.8183 24.6783 22.9793 24.823 23.0876H24.8226ZM26.3834 20.8835C26.4813 20.9243 26.5865 20.945 26.6926 20.9443C26.7986 20.9437 26.9035 20.9217 27.001 20.8797C27.0984 20.8378 27.1864 20.7766 27.2598 20.7C27.3331 20.6233 27.3903 20.5327 27.4279 20.4335C27.5938 20.021 27.4029 19.5543 26.9821 19.3868C26.884 19.3471 26.7789 19.3273 26.673 19.3284C26.5672 19.3296 26.4626 19.3518 26.3653 19.3936C26.268 19.4355 26.1801 19.4962 26.1064 19.5723C26.0328 19.6483 25.975 19.7383 25.9363 19.8368C25.8592 20.035 25.8628 20.2556 25.9465 20.4511C26.0302 20.6466 26.1872 20.8016 26.3838 20.8826L26.3834 20.8835ZM27.4409 18.0127C27.6632 18.0335 27.8848 17.9659 28.0578 17.8246C28.2307 17.6834 28.3411 17.4797 28.3651 17.2576C28.389 17.0356 28.3247 16.8131 28.1859 16.6381C28.0471 16.4632 27.845 16.3499 27.6234 16.3227C27.1496 16.2769 26.7305 16.6156 26.6817 17.0769C26.6317 17.5406 26.9734 17.9702 27.4409 18.0123V18.0127ZM27.6546 15.0323C27.7898 15.0089 27.9189 14.9587 28.0344 14.8848C28.15 14.8109 28.2496 14.7146 28.3275 14.6017C28.4054 14.4888 28.46 14.3615 28.4881 14.2273C28.5163 14.093 28.5173 13.9545 28.4913 13.8198C28.3988 13.2573 27.8504 12.8769 27.2796 12.9807C26.7138 13.0903 26.3346 13.6252 26.44 14.1957C26.5505 14.7611 27.085 15.1427 27.6546 15.0331V15.0323ZM8.86404 8.05658C9.08695 8.30032 9.45153 8.33449 9.69486 8.12741C9.94486 7.90741 9.97402 7.53867 9.76903 7.29492C9.5582 7.05451 9.17945 7.02117 8.93737 7.23075C8.81991 7.3317 8.74654 7.47455 8.73292 7.62883C8.7193 7.78311 8.7665 7.93661 8.86446 8.05658H8.86404ZM7.16698 10.0107C7.47031 10.2328 7.89614 10.1724 8.11697 9.86155C8.17111 9.79138 8.2106 9.71105 8.23309 9.62532C8.25559 9.53959 8.26063 9.45022 8.24792 9.36251C8.23521 9.27479 8.20501 9.19053 8.15911 9.11471C8.11321 9.03889 8.05255 8.97307 7.98072 8.92115C7.90963 8.86687 7.82844 8.82731 7.74188 8.80478C7.65533 8.78225 7.56515 8.7772 7.47663 8.78992C7.3881 8.80264 7.30299 8.83289 7.22629 8.87889C7.14959 8.92488 7.08282 8.98571 7.0299 9.05781C6.922 9.20249 6.87588 9.38405 6.90165 9.56269C6.92743 9.74132 7.023 9.90244 7.1674 10.0107H7.16698ZM5.81283 12.6136C6.01282 12.6923 6.23579 12.6888 6.43321 12.6039C6.63064 12.519 6.78654 12.3596 6.86699 12.1603C6.94563 11.9621 6.94241 11.7407 6.85804 11.5449C6.77368 11.3491 6.61505 11.1947 6.41699 11.1157C6.21752 11.0357 5.99444 11.0381 5.79678 11.1225C5.59911 11.2069 5.44303 11.3663 5.36284 11.5657C5.28645 11.7645 5.29075 11.9853 5.37481 12.181C5.45887 12.3766 5.61605 12.5317 5.81283 12.6132V12.6136ZM5.17951 15.6777C5.64617 15.7352 6.067 15.3844 6.12783 14.9194C6.14613 14.6933 6.07518 14.469 5.93018 14.2946C5.78518 14.1201 5.57764 14.0094 5.35201 13.9861C4.8916 13.9361 4.47119 14.2769 4.42077 14.7402C4.40831 14.8518 4.41813 14.9647 4.44965 15.0724C4.48117 15.1801 4.53377 15.2804 4.6044 15.3677C4.67502 15.4549 4.76226 15.5272 4.86106 15.5804C4.95986 15.6336 5.06824 15.6667 5.17993 15.6777H5.17951ZM5.517 19.0202C5.65221 18.9973 5.78151 18.9478 5.89733 18.8744C6.01315 18.801 6.11317 18.7052 6.19154 18.5927C6.26991 18.4802 6.32506 18.3532 6.35376 18.2191C6.38245 18.085 6.38412 17.9466 6.35866 17.8119C6.25658 17.2431 5.71867 16.856 5.14534 16.9702C5.01045 16.9944 4.88165 17.0449 4.76632 17.1189C4.65098 17.1929 4.55137 17.2889 4.47319 17.4014C4.39502 17.514 4.3398 17.6409 4.31072 17.7748C4.28163 17.9087 4.27924 18.047 4.30369 18.1818C4.40785 18.7414 4.94618 19.1289 5.517 19.0202V19.0202ZM21.3934 25.1701C21.1505 25.3001 21.0643 25.6134 21.1959 25.8551C21.328 26.0988 21.6334 26.1863 21.8793 26.0563C22.1209 25.9259 22.2188 25.6188 22.0822 25.3759C22.0508 25.317 22.008 25.2648 21.9563 25.2225C21.9046 25.1802 21.845 25.1485 21.781 25.1294C21.717 25.1103 21.6498 25.104 21.5833 25.111C21.5169 25.118 21.4525 25.1381 21.3939 25.1701H21.3934ZM19.3818 25.9067C19.2344 25.9525 19.1107 26.0541 19.0371 26.1897C18.9635 26.3254 18.9457 26.4844 18.9876 26.633C19.0329 26.7828 19.1352 26.9089 19.2725 26.984C19.4099 27.0591 19.5713 27.0771 19.7218 27.0342C20.0272 26.9367 20.211 26.6092 20.1135 26.2951C20.0205 25.9917 19.6926 25.8188 19.3818 25.9067ZM17.0556 26.2842C16.6777 26.3026 16.3973 26.6313 16.4223 27.0051C16.4531 27.3821 16.771 27.6655 17.1473 27.6384C17.2363 27.6327 17.3234 27.6094 17.4034 27.5698C17.4835 27.5303 17.5549 27.4753 17.6135 27.408C17.6722 27.3407 17.7169 27.2625 17.7452 27.1778C17.7734 27.0931 17.7846 27.0037 17.7781 26.9146C17.7647 26.5413 17.4306 26.2617 17.056 26.2842H17.0556ZM14.464 26.0209C14.2349 25.9763 13.9976 26.024 13.8035 26.1535C13.6095 26.283 13.4744 26.484 13.4277 26.7126C13.3817 26.9428 13.429 27.182 13.5591 27.3774C13.6893 27.5729 13.8917 27.7087 14.1219 27.755C14.2364 27.7779 14.3544 27.7779 14.4689 27.7548C14.5834 27.7318 14.6923 27.6862 14.789 27.6208C14.8858 27.5553 14.9686 27.4714 15.0327 27.3737C15.0968 27.276 15.1408 27.1666 15.1623 27.0517C15.2061 26.8224 15.1572 26.585 15.0262 26.3918C14.8952 26.1985 14.6928 26.0651 14.4635 26.0209H14.464ZM11.8119 25.0522C11.5635 24.9309 11.2774 24.9121 11.0152 24.9998C10.753 25.0874 10.5358 25.2746 10.4103 25.5209C10.2898 25.7685 10.2701 26.0531 10.3554 26.3149C10.4406 26.5767 10.6242 26.7951 10.8673 26.9242C11.3848 27.1784 12.009 26.9701 12.2777 26.4501C12.5348 25.9447 12.3244 25.3142 11.8119 25.0522V25.0522ZM9.56736 23.3147C9.06904 22.8547 8.29446 22.8805 7.83822 23.3709C7.61599 23.6078 7.49694 23.9233 7.50726 24.2479C7.51757 24.5726 7.6564 24.8799 7.89322 25.1022C8.3878 25.5655 9.16654 25.5426 9.62653 25.0522C10.089 24.5463 10.0665 23.7747 9.56736 23.3147V23.3147ZM7.72572 20.7172C7.55649 20.4089 7.27197 20.1801 6.93444 20.0811C6.59692 19.9821 6.23392 20.0208 5.92492 20.1889C5.77267 20.2727 5.63842 20.3856 5.52984 20.5212C5.42126 20.6569 5.34048 20.8126 5.29211 20.9795C5.24374 21.1464 5.22874 21.3212 5.24795 21.4939C5.26716 21.6666 5.32022 21.8338 5.40409 21.986C5.57174 22.2942 5.85447 22.5237 6.19063 22.6244C6.5268 22.7251 6.88913 22.6888 7.19865 22.5235C7.50702 22.3527 7.73547 22.0671 7.83426 21.7287C7.93306 21.3903 7.89419 21.0267 7.72614 20.7168L7.72572 20.7172ZM10.9215 5.94244C10.8628 5.9736 10.8109 6.01611 10.7688 6.0675C10.7267 6.11889 10.6953 6.17814 10.6763 6.2418C10.6573 6.30546 10.6511 6.37226 10.6582 6.43832C10.6652 6.50438 10.6853 6.56838 10.7173 6.6266C10.7491 6.68497 10.792 6.73651 10.8437 6.77825C10.8954 6.82 10.9549 6.85113 11.0186 6.86986C11.0824 6.8886 11.1492 6.89456 11.2152 6.88743C11.2813 6.88029 11.3453 6.86018 11.4036 6.82826C11.6452 6.6941 11.7386 6.3841 11.6086 6.14077C11.474 5.89494 11.1586 5.80744 10.9211 5.94202L10.9215 5.94244ZM13.0798 4.97162C12.7723 5.06079 12.6023 5.38911 12.6911 5.70078C12.7886 6.01077 13.1111 6.18827 13.4177 6.09494C13.4918 6.0728 13.5607 6.0362 13.6204 5.98725C13.6802 5.93831 13.7297 5.87798 13.766 5.80978C13.8023 5.74158 13.8247 5.66685 13.832 5.58992C13.8392 5.51299 13.8311 5.43539 13.8081 5.36162C13.7206 5.05204 13.3965 4.87829 13.0798 4.97204V4.97162ZM15.6477 4.35913C15.4691 4.3727 15.3029 4.45565 15.1847 4.59021C15.0665 4.72477 15.0056 4.90026 15.0152 5.07912C15.0282 5.25954 15.1115 5.42763 15.2473 5.54713C15.3831 5.66663 15.5604 5.72795 15.741 5.71786C16.1185 5.69619 16.3993 5.36578 16.3764 4.98954C16.3473 4.61454 16.0264 4.33663 15.6473 4.36038L15.6477 4.35913ZM18.6776 4.25371C18.5636 4.23018 18.4459 4.22959 18.3316 4.25199C18.2173 4.27438 18.1086 4.31931 18.0119 4.38416C17.9151 4.44901 17.8322 4.53247 17.768 4.62968C17.7039 4.72689 17.6597 4.83591 17.6381 4.95037C17.5943 5.17957 17.6432 5.41677 17.774 5.60999C17.9048 5.80322 18.1069 5.9367 18.336 5.98119C18.5658 6.02623 18.804 5.97851 18.9987 5.84844C19.1934 5.71838 19.3288 5.51655 19.3751 5.28703C19.4186 5.05763 19.3697 4.82033 19.2391 4.62681C19.1085 4.43328 18.9067 4.29919 18.6776 4.25371V4.25371ZM21.8318 5.01912C21.3234 4.76329 20.6968 4.97079 20.4372 5.50245C20.3169 5.75017 20.2992 6.03534 20.3879 6.29604C20.4766 6.55674 20.6646 6.77194 20.911 6.89493C21.4289 7.14492 22.0584 6.94368 22.3088 6.41577C22.3695 6.29281 22.4053 6.15909 22.4142 6.02227C22.423 5.88545 22.4048 5.74823 22.3605 5.61847C22.3162 5.48872 22.2468 5.36898 22.1561 5.26613C22.0654 5.16328 21.9554 5.07934 21.8322 5.01912H21.8318ZM24.9163 6.89076C24.7993 6.77995 24.6614 6.69338 24.5108 6.63605C24.3602 6.57872 24.1997 6.55176 24.0386 6.55672C23.8774 6.56168 23.7189 6.59845 23.5721 6.66494C23.4252 6.73142 23.293 6.82629 23.183 6.94409C22.7288 7.442 22.7455 8.21907 23.2442 8.68157C23.7359 9.13864 24.5176 9.11614 24.9776 8.62324C25.4371 8.12658 25.4151 7.34825 24.9163 6.89076V6.89076ZM27.3996 10.0124C27.23 9.7043 26.9459 9.47544 26.6087 9.37539C26.2716 9.27533 25.9086 9.31212 25.5984 9.47781C24.9559 9.8328 24.7176 10.6378 25.0667 11.2761C25.2347 11.5859 25.5182 11.8167 25.8556 11.9184C26.1929 12.0201 26.5568 11.9844 26.8679 11.819C27.1771 11.6491 27.4065 11.3639 27.5061 11.0255C27.6057 10.6871 27.5674 10.3231 27.3996 10.0128V10.0124ZM18.5806 30.1654C18.6003 30.2648 18.6397 30.3593 18.6964 30.4433C18.753 30.5273 18.8259 30.5992 18.9106 30.6548C18.9954 30.7104 19.0903 30.7485 19.19 30.767C19.2896 30.7855 19.3919 30.784 19.491 30.7625C19.5897 30.742 19.6834 30.7022 19.7667 30.6454C19.85 30.5886 19.9214 30.516 19.9766 30.4316C20.0318 30.3473 20.0698 30.2528 20.0885 30.1537C20.1072 30.0547 20.1062 29.9529 20.0855 29.8542C20.0014 29.4404 19.5876 29.1763 19.1756 29.2596C18.977 29.3017 18.803 29.4205 18.6915 29.5901C18.5799 29.7597 18.5398 29.9664 18.5797 30.1654H18.5806ZM21.6484 29.4246C21.7473 29.6403 21.9278 29.808 22.1503 29.8906C22.3727 29.9733 22.6189 29.9642 22.8347 29.8654C23.0499 29.7643 23.2164 29.5822 23.2977 29.3587C23.3791 29.1353 23.3687 28.8888 23.2688 28.6729C23.2195 28.5664 23.1495 28.4707 23.063 28.3913C22.9765 28.3118 22.8752 28.2503 22.7648 28.2102C22.6545 28.1702 22.5372 28.1523 22.4199 28.1577C22.3026 28.1631 22.1876 28.1917 22.0813 28.2417C21.8686 28.343 21.704 28.5236 21.623 28.7449C21.542 28.9661 21.551 29.2103 21.648 29.425L21.6484 29.4246ZM24.7901 27.9005C25.1776 28.3734 25.8734 28.4421 26.3392 28.0463C26.451 27.9543 26.5434 27.8412 26.6112 27.7133C26.679 27.5854 26.7207 27.4453 26.7341 27.3012C26.7474 27.1571 26.732 27.0117 26.6889 26.8736C26.6457 26.7354 26.5756 26.6072 26.4825 26.4963C26.3912 26.3849 26.2786 26.2928 26.1513 26.2253C26.024 26.1579 25.8846 26.1164 25.7411 26.1033C25.5976 26.0902 25.453 26.1058 25.3156 26.1492C25.1782 26.1926 25.0509 26.2628 24.9409 26.3559C24.7166 26.5412 24.5748 26.8078 24.5467 27.0974C24.5186 27.387 24.6064 27.6759 24.7909 27.9009L24.7901 27.9005ZM27.7492 25.3651C28.3217 25.7667 29.1242 25.6192 29.5217 25.0443C29.7133 24.7661 29.787 24.4233 29.7264 24.0909C29.6659 23.7585 29.4762 23.4637 29.1987 23.2709C28.6092 22.8689 27.8225 23.0101 27.4217 23.5943C27.03 24.1693 27.1675 24.9734 27.7496 25.3651H27.7492ZM29.91 22.0705C30.69 22.333 31.5433 21.8989 31.8058 21.111C32.0654 20.3335 31.64 19.4806 30.8487 19.2152C30.4712 19.0913 30.06 19.1223 29.7053 19.3013C29.3507 19.4804 29.0816 19.7929 28.9571 20.1702C28.8949 20.3575 28.8702 20.5553 28.8845 20.7522C28.8987 20.949 28.9516 21.1412 29.0402 21.3176C29.1287 21.4941 29.2511 21.6513 29.4004 21.7804C29.5497 21.9096 29.723 22.008 29.9104 22.0701L29.91 22.0705ZM12.7144 2.14041C12.7344 2.23996 12.7739 2.33455 12.8308 2.41869C12.8876 2.50283 12.9606 2.57484 13.0455 2.63054C13.1304 2.68624 13.2255 2.72453 13.3253 2.74317C13.4251 2.76182 13.5276 2.76045 13.6269 2.73915C13.7257 2.71882 13.8195 2.67916 13.903 2.62244C13.9864 2.56572 14.0578 2.49306 14.1131 2.40864C14.1683 2.32423 14.2064 2.22972 14.225 2.13056C14.2436 2.0314 14.2424 1.92953 14.2215 1.83083C14.1788 1.63219 14.0595 1.45842 13.8894 1.34731C13.7193 1.2362 13.5122 1.19674 13.3131 1.23751C13.2143 1.25699 13.1203 1.29588 13.0366 1.35193C12.9529 1.40798 12.8811 1.48009 12.8255 1.56406C12.7699 1.64804 12.7314 1.74222 12.7124 1.84115C12.6934 1.94008 12.6942 2.0418 12.7148 2.14041H12.7144ZM9.53111 3.32956C9.58054 3.43601 9.65059 3.5316 9.73719 3.61081C9.8238 3.69002 9.92525 3.75127 10.0357 3.79102C10.1461 3.83078 10.2633 3.84824 10.3805 3.84241C10.4978 3.83658 10.6127 3.80757 10.7186 3.75705C11.1673 3.55622 11.3578 3.02498 11.1528 2.57874C11.0514 2.36568 10.8708 2.20067 10.6495 2.11893C10.4282 2.0372 10.1837 2.0452 9.96819 2.14124C9.75382 2.24217 9.58776 2.42338 9.50589 2.64574C9.42403 2.86809 9.43294 3.11372 9.5307 3.32956H9.53111ZM6.31324 5.4987C6.40504 5.61092 6.51824 5.70375 6.64626 5.77179C6.77428 5.83984 6.91456 5.88173 7.05893 5.89503C7.20329 5.90833 7.34887 5.89277 7.48716 5.84927C7.62546 5.80576 7.75372 5.73517 7.86447 5.64161C7.97578 5.55037 8.06796 5.43802 8.1357 5.31102C8.20344 5.18403 8.24541 5.0449 8.25919 4.90163C8.27298 4.75836 8.25831 4.61378 8.21602 4.4762C8.17374 4.33862 8.10467 4.21076 8.0128 4.09997C7.92145 3.98745 7.80861 3.89426 7.68086 3.82581C7.55311 3.75737 7.41301 3.71504 7.26873 3.70132C7.12445 3.68759 6.97889 3.70272 6.84052 3.74584C6.70215 3.78896 6.57376 3.8592 6.46282 3.95247C6.35097 4.04377 6.25831 4.15631 6.19017 4.2836C6.12203 4.4109 6.07977 4.55042 6.06583 4.69413C6.05188 4.83784 6.06653 4.98288 6.10892 5.1209C6.15132 5.25892 6.22062 5.38718 6.31283 5.49828L6.31324 5.4987ZM3.60287 8.73282C4.18202 9.13698 4.97493 8.98573 5.38451 8.40657C5.57364 8.12658 5.64472 7.78329 5.58231 7.45122C5.5199 7.11914 5.32905 6.82508 5.05118 6.63285C4.77352 6.44112 4.43115 6.36735 4.09918 6.42773C3.7672 6.48811 3.47273 6.67771 3.28037 6.95493C3.0878 7.23363 3.01365 7.57734 3.07419 7.91064C3.13473 8.24395 3.32501 8.53963 3.60328 8.73282H3.60287ZM1.95289 12.7869C2.73621 13.0494 3.58537 12.6182 3.84703 11.834C3.90874 11.6467 3.93294 11.4491 3.91826 11.2525C3.90357 11.0558 3.85029 10.864 3.76145 10.6879C3.67261 10.5119 3.54996 10.3551 3.4005 10.2264C3.25104 10.0978 3.07769 9.99985 2.89038 9.93822C2.51267 9.81335 2.10083 9.84364 1.74545 10.0224C1.39008 10.2012 1.12028 10.5138 0.995402 10.8915C0.872079 11.2699 0.903567 11.6818 1.08298 12.037C1.2624 12.3922 1.57516 12.662 1.95289 12.7873V12.7869ZM16.4039 29.6763C16.2288 29.6768 16.061 29.7467 15.9373 29.8706C15.8135 29.9945 15.7439 30.1624 15.7435 30.3375C15.7435 30.7033 16.0373 30.9946 16.4039 31C16.579 30.9986 16.7464 30.9282 16.8699 30.8042C16.9935 30.6802 17.0632 30.5125 17.0639 30.3375C17.0639 29.9771 16.7673 29.6763 16.4039 29.6763ZM13.629 29.2596C13.214 29.1763 12.8015 29.4442 12.7186 29.8567C12.6311 30.2692 12.8994 30.6808 13.3131 30.765C13.4119 30.786 13.5139 30.7872 13.6132 30.7686C13.7125 30.75 13.8071 30.7119 13.8915 30.6565C13.976 30.6011 14.0486 30.5295 14.1052 30.4458C14.1619 30.3622 14.2014 30.2682 14.2215 30.1692C14.2623 29.9701 14.223 29.763 14.1121 29.5927C14.0011 29.4224 13.8276 29.3027 13.629 29.2596V29.2596ZM10.714 28.2413C10.6085 28.1909 10.4941 28.1621 10.3774 28.1564C10.2606 28.1507 10.1439 28.1683 10.0341 28.2082C9.92423 28.248 9.8234 28.3094 9.73747 28.3886C9.65155 28.4678 9.58225 28.5633 9.53361 28.6696C9.43438 28.8847 9.42439 29.1303 9.50584 29.3527C9.58729 29.5751 9.75354 29.7562 9.96819 29.8563C10.0745 29.9076 10.1901 29.9373 10.308 29.9435C10.426 29.9498 10.544 29.9325 10.6552 29.8926C10.7663 29.8528 10.8685 29.7912 10.9556 29.7114C11.0427 29.6317 11.1131 29.5354 11.1626 29.4282C11.2122 29.3209 11.2398 29.2049 11.244 29.0869C11.2482 28.9689 11.2289 28.8512 11.1871 28.7407C11.1454 28.6302 11.082 28.5291 11.0008 28.4434C10.9196 28.3577 10.8221 28.289 10.714 28.2413V28.2413ZM7.86405 26.3559C7.639 26.1697 7.34925 26.0805 7.05847 26.1079C6.76769 26.1352 6.49965 26.2769 6.31324 26.5017C6.22066 26.6124 6.15095 26.7404 6.10814 26.8782C6.06532 27.016 6.05026 27.161 6.06382 27.3046C6.07739 27.4483 6.1193 27.5879 6.18714 27.7153C6.25499 27.8426 6.34741 27.9553 6.45907 28.0467C6.56996 28.1404 6.69841 28.211 6.83692 28.2545C6.97542 28.2979 7.1212 28.3133 7.26573 28.2997C7.41025 28.2861 7.55061 28.2439 7.67861 28.1754C7.8066 28.1069 7.91964 28.0136 8.01113 27.9009C8.10288 27.7898 8.17184 27.6617 8.21407 27.5239C8.25631 27.3862 8.271 27.2415 8.2573 27.098C8.24361 26.9546 8.20179 26.8153 8.13425 26.688C8.0667 26.5608 7.97475 26.448 7.86364 26.3563L7.86405 26.3559ZM5.37992 23.5947C5.18693 23.3174 4.89182 23.1281 4.55936 23.0682C4.2269 23.0082 3.88426 23.0827 3.60662 23.2751C3.02746 23.6693 2.88163 24.4655 3.27329 25.0488C3.46933 25.3247 3.76584 25.5127 4.09903 25.5722C4.43222 25.6317 4.77547 25.5581 5.05493 25.3672C5.19279 25.2722 5.31057 25.151 5.40154 25.0105C5.49251 24.87 5.55487 24.713 5.58506 24.5483C5.61525 24.3837 5.61266 24.2147 5.57747 24.0511C5.54227 23.8874 5.47514 23.7324 5.37992 23.5947V23.5947ZM3.84953 20.1672C3.58287 19.3814 2.73579 18.9548 1.95622 19.2131C1.57761 19.3374 1.26379 19.6068 1.08365 19.9622C0.903505 20.3177 0.871768 20.7301 0.995402 21.1089C1.0568 21.2965 1.15463 21.4702 1.28329 21.6199C1.41194 21.7697 1.56889 21.8925 1.74514 21.9815C1.92138 22.0705 2.11345 22.1237 2.31034 22.1383C2.50722 22.1529 2.70504 22.1284 2.89246 22.0664C3.27069 21.9407 3.58374 21.6703 3.76311 21.3144C3.94247 20.9585 3.97355 20.546 3.84953 20.1672V20.1672ZM3.4662 15.9981C3.46587 15.5383 3.28298 15.0974 2.95772 14.7724C2.63246 14.4474 2.19146 14.2648 1.73164 14.2648C1.27243 14.2659 0.83237 14.4489 0.507815 14.7738C0.183259 15.0987 0.000660048 15.5389 0 15.9981C0 16.9606 0.776239 17.741 1.73123 17.741C1.95958 17.7407 2.18564 17.6954 2.39646 17.6077C2.60727 17.5199 2.7987 17.3914 2.95979 17.2295C3.12087 17.0677 3.24845 16.8756 3.3352 16.6644C3.42196 16.4532 3.46619 16.2269 3.46537 15.9985L3.4662 15.9981ZM16.396 1.00001C16.3095 0.999791 16.2239 1.01667 16.144 1.04969C16.064 1.08271 15.9914 1.1312 15.9303 1.19239C15.8692 1.25357 15.8208 1.32624 15.7879 1.40621C15.755 1.48617 15.7382 1.57186 15.7385 1.65833C15.7385 2.02333 16.0314 2.32083 16.396 2.32083C16.7627 2.32083 17.056 2.02333 17.056 1.65833C17.056 1.29501 16.7623 0.997928 16.396 1.00001V1.00001ZM19.4918 1.24042C19.3931 1.21917 19.2912 1.21771 19.1919 1.23614C19.0926 1.25457 18.998 1.29251 18.9135 1.34778C18.8291 1.40305 18.7564 1.47453 18.6997 1.5581C18.6431 1.64166 18.6036 1.73564 18.5835 1.83458C18.5423 2.03314 18.5816 2.23992 18.6926 2.40957C18.8037 2.57922 18.9775 2.6979 19.176 2.73957C19.275 2.7613 19.3774 2.76306 19.4771 2.74476C19.5768 2.72646 19.6718 2.68846 19.7567 2.63298C19.8415 2.5775 19.9145 2.50565 19.9712 2.42165C20.028 2.33765 20.0674 2.24317 20.0872 2.14374C20.1078 2.04528 20.1086 1.94373 20.0898 1.84493C20.0709 1.74613 20.0327 1.65203 19.9773 1.56807C19.9219 1.4841 19.8505 1.41193 19.7671 1.35569C19.6837 1.29946 19.59 1.26029 19.4914 1.24042H19.4918ZM22.8318 2.14124C22.6169 2.04508 22.3731 2.03656 22.1521 2.11749C21.9311 2.19842 21.7504 2.36242 21.6484 2.57457C21.4472 3.01707 21.6384 3.55206 22.0818 3.75705C22.1878 3.8077 22.3029 3.83675 22.4203 3.84249C22.5377 3.84823 22.6551 3.83056 22.7656 3.79051C22.8761 3.75045 22.9776 3.68881 23.064 3.60917C23.1505 3.52954 23.2203 3.4335 23.2692 3.32664C23.3187 3.22013 23.3465 3.10491 23.3513 2.98759C23.356 2.87027 23.3375 2.75317 23.2969 2.64302C23.2562 2.53286 23.1942 2.43183 23.1144 2.34572C23.0346 2.25961 22.9385 2.19012 22.8318 2.14124V2.14124ZM26.3359 3.95372C26.2248 3.86119 26.0966 3.7916 25.9585 3.74896C25.8204 3.70633 25.6752 3.6915 25.5313 3.70533C25.3874 3.71916 25.2477 3.76138 25.1203 3.82955C24.9928 3.89772 24.8802 3.99048 24.7888 4.10247C24.6968 4.21358 24.6276 4.34178 24.5852 4.4797C24.5428 4.61762 24.5281 4.76256 24.5419 4.90618C24.5557 5.04981 24.5977 5.1893 24.6655 5.31665C24.7333 5.44399 24.8256 5.55669 24.9371 5.64828C25.4063 6.03786 26.1025 5.97036 26.4821 5.50245C26.5751 5.39159 26.6451 5.26338 26.6881 5.12526C26.7311 4.98714 26.7463 4.84185 26.7327 4.69782C26.7191 4.5538 26.6771 4.4139 26.6091 4.28623C26.541 4.15857 26.4483 4.04569 26.3363 3.95414L26.3359 3.95372ZM29.5183 6.95493C29.4229 6.81735 29.3014 6.69994 29.1605 6.60942C29.0197 6.5189 28.8624 6.45705 28.6977 6.4274C28.5329 6.39775 28.3639 6.4009 28.2004 6.43665C28.0368 6.4724 27.882 6.54007 27.7446 6.63576C27.4682 6.82829 27.279 7.12217 27.2181 7.45347C27.1573 7.78477 27.2297 8.12671 27.4196 8.4049C27.5139 8.54417 27.6349 8.66328 27.7757 8.75532C27.9164 8.84735 28.0741 8.91047 28.2395 8.94098C28.4049 8.9715 28.5747 8.96881 28.739 8.93307C28.9033 8.89733 29.0589 8.82926 29.1967 8.73282C29.4751 8.53972 29.6654 8.24395 29.7258 7.91056C29.7862 7.57716 29.7117 7.23342 29.5187 6.95493H29.5183ZM31.8058 10.8911C31.5404 10.0995 30.69 9.67447 29.91 9.93488C29.5322 10.06 29.2194 10.3298 29.0404 10.6853C28.8614 11.0407 28.8306 11.4526 28.955 11.8307C29.22 12.6132 30.0675 13.0415 30.8487 12.784C31.6379 12.5228 32.0633 11.6682 31.807 10.8911H31.8058ZM32.8016 15.9977C32.8005 15.5376 32.617 15.0968 32.2912 14.7718C31.9655 14.4469 31.5242 14.2644 31.0641 14.2644C30.6046 14.2651 30.164 14.4479 29.8389 14.7728C29.5139 15.0976 29.3309 15.5381 29.33 15.9977C29.33 16.9602 30.1071 17.7406 31.0646 17.7406C31.2931 17.7403 31.5192 17.6949 31.7302 17.6072C31.9412 17.5195 32.1328 17.391 32.2942 17.2292C32.4555 17.0674 32.5834 16.8754 32.6705 16.6642C32.7577 16.453 32.8024 16.2266 32.802 15.9981L32.8016 15.9977Z" fill="#404242"/>
<path d="M171.235 16.6819H176.06C176.099 16.6819 176.138 16.6742 176.175 16.6591C176.211 16.6441 176.244 16.622 176.272 16.5941C176.3 16.5662 176.322 16.5331 176.337 16.4967C176.352 16.4603 176.359 16.4213 176.359 16.3819V15.2936C176.359 15.2543 176.352 15.2153 176.337 15.179C176.322 15.1426 176.3 15.1095 176.272 15.0817C176.245 15.0538 176.212 15.0317 176.175 15.0166C176.139 15.0014 176.1 14.9936 176.061 14.9936H171.236V13.6111C171.236 12.3499 171.283 12.3153 172.425 12.3153H176.244C176.405 12.3153 176.543 12.1778 176.543 12.0128V11.0495C176.543 10.8378 176.467 10.7611 176.244 10.7328C175.759 10.6578 174.778 10.5224 172.985 10.5224C170.478 10.5224 169.153 10.5045 169.153 13.6107V18.3814C169.153 21.4876 170.478 21.4706 172.985 21.4706C174.778 21.4706 175.759 21.336 176.244 21.2593C176.467 21.2302 176.543 21.1543 176.543 20.9418V19.9793C176.543 19.8999 176.511 19.8239 176.455 19.7675C176.399 19.7112 176.324 19.6791 176.244 19.6781H172.425C171.283 19.6781 171.235 19.6439 171.235 18.3806V16.6819H171.235ZM197.497 18.3264C197.497 16.8806 196.673 16.1323 195.403 15.6181C194.401 15.2152 193.523 14.8732 192.854 14.6098C192.184 14.3432 191.618 13.8878 191.618 13.3911C191.618 12.7136 192.454 12.3211 193.571 12.3211C194.882 12.3211 195.914 12.5044 196.91 12.5953H196.939C197.092 12.5953 197.195 12.4728 197.195 12.3244V11.2078C197.195 11.0578 197.076 10.9515 196.924 10.9224C196.411 10.7999 195.096 10.5266 193.659 10.5266C190.855 10.5266 189.521 11.732 189.521 13.3911C189.521 14.4452 189.985 15.4848 191.296 16.0273C192.614 16.5702 195.313 17.196 195.313 18.3264C195.313 19.2014 194.903 19.6814 193.562 19.6814C192.168 19.6814 190.757 19.4839 190.154 19.4085H190.123C190.047 19.4091 189.974 19.4396 189.921 19.4934C189.867 19.5472 189.837 19.62 189.836 19.696V20.7818C189.836 20.9477 189.974 21.0518 190.123 21.0818C190.846 21.2485 192.198 21.4776 193.53 21.4776C196.546 21.4776 197.496 19.8485 197.496 18.3264H197.497ZM185.515 13.9282C185.515 12.7978 184.638 12.3149 183.128 12.3149C182.813 12.3149 181.441 12.3457 181.17 12.3757V15.6444C181.414 15.6598 182.876 15.6902 183.128 15.6902C184.684 15.6902 185.515 15.3911 185.515 14.0653V13.9278V13.9282ZM187.959 21.171C187.959 21.2752 187.896 21.351 187.778 21.351H185.937C185.771 21.351 185.712 21.1977 185.637 21.0489L183.464 17.3931H183.128C182.737 17.3931 181.518 17.3502 181.17 17.3323V21.0489C181.17 21.2143 181.05 21.351 180.885 21.351H179.379C179.299 21.3504 179.222 21.3184 179.166 21.2619C179.109 21.2054 179.077 21.1289 179.077 21.0489V11.1682C179.077 10.8666 179.256 10.7607 179.559 10.7161C180.342 10.5961 182.029 10.522 183.128 10.522C185.452 10.522 187.595 11.3511 187.595 13.9278V14.0653C187.595 15.6611 186.795 16.5344 185.559 17.0152L187.929 21.0485C187.959 21.0943 187.959 21.1372 187.959 21.1706L187.959 21.171ZM167.602 12.1195V10.9278C167.602 10.7611 167.467 10.6416 167.303 10.6416H159.186C159.023 10.6416 158.886 10.7607 158.886 10.9278V12.1195C158.886 12.2849 159.023 12.389 159.186 12.389H162.196V21.0493C162.196 21.2143 162.333 21.351 162.498 21.351H163.991C164.157 21.351 164.295 21.2135 164.295 21.0489V12.389H167.303C167.467 12.389 167.602 12.2849 167.602 12.1195V12.1195ZM157.39 17.2027V10.9278C157.39 10.7611 157.254 10.6416 157.087 10.6416H155.594C155.429 10.6416 155.294 10.7607 155.294 10.9278V17.2027C155.294 18.9223 154.5 19.7373 152.871 19.7373C151.245 19.7373 150.45 18.9223 150.45 17.2027V10.9278C150.45 10.7611 150.315 10.6416 150.148 10.6416H148.658C148.492 10.6416 148.355 10.7607 148.355 10.9278V17.2027C148.355 20.4152 150.445 21.4706 152.871 21.4706C155.299 21.4706 157.389 20.4156 157.389 17.2027H157.39ZM140.793 16.6819H145.619C145.699 16.6817 145.775 16.65 145.832 16.5939C145.888 16.5377 145.92 16.4615 145.921 16.3819V15.2936C145.92 15.214 145.888 15.1378 145.832 15.0817C145.775 15.0256 145.699 14.9939 145.619 14.9936H140.793V13.6111C140.793 12.3499 140.842 12.3153 141.982 12.3153H145.799C145.965 12.3153 146.102 12.1778 146.102 12.0128V11.0495C146.102 10.8378 146.025 10.7611 145.799 10.7328C145.317 10.6578 144.335 10.5224 142.542 10.5224C140.039 10.5224 138.711 10.5045 138.711 13.6107V18.3814C138.711 21.4876 140.039 21.4706 142.542 21.4706C144.335 21.4706 145.317 21.336 145.799 21.2593C146.025 21.2302 146.102 21.1543 146.102 20.9418V19.9793C146.101 19.8994 146.069 19.8228 146.013 19.7664C145.956 19.7099 145.879 19.6782 145.799 19.6781H141.983C140.842 19.6781 140.793 19.6439 140.793 18.3806V16.6819ZM134.331 13.9278C134.331 12.7978 133.454 12.3153 131.946 12.3153C131.628 12.3153 130.256 12.3457 129.987 12.3757V15.6444C130.226 15.6598 131.687 15.6902 131.946 15.6902C133.497 15.6902 134.331 15.3911 134.331 14.0653V13.9278ZM136.773 21.171C136.773 21.2752 136.713 21.351 136.593 21.351H134.753C134.588 21.351 134.526 21.1977 134.452 21.0489L132.281 17.3931H131.946C131.553 17.3931 130.335 17.3502 129.988 17.3323V21.0489C129.988 21.2143 129.866 21.351 129.701 21.351H128.192C128.113 21.3501 128.037 21.3179 127.98 21.2614C127.924 21.2049 127.893 21.1286 127.892 21.0489V11.1682C127.892 10.8666 128.07 10.7607 128.374 10.7161C129.159 10.5961 130.844 10.522 131.946 10.522C134.267 10.522 136.412 11.3511 136.412 13.9278V14.0653C136.412 15.6611 135.613 16.5344 134.378 17.0152L136.743 21.0485C136.774 21.0943 136.774 21.1372 136.774 21.1706L136.773 21.171ZM107.3 15.2252C107.3 13.2353 106.097 12.3461 104.619 12.3461C103.141 12.3461 101.939 13.2353 101.939 15.2252V16.7669C101.939 18.7573 103.141 19.646 104.619 19.646C106.096 19.646 107.299 18.7573 107.299 16.7669V15.2252H107.3ZM109.408 15.2252V16.7669C109.408 20.0843 107.106 21.471 104.619 21.471C102.131 21.471 99.8294 20.0843 99.8294 16.7669V15.2252C99.8294 11.9086 102.132 10.522 104.619 10.522C107.106 10.522 109.408 11.9082 109.408 15.2244L109.408 15.2252ZM97.929 18.3264C97.929 16.8806 97.1074 16.1323 95.8332 15.6181C94.8316 15.2152 93.9516 14.8732 93.2816 14.6098C92.6149 14.3448 92.047 13.8878 92.047 13.3911C92.047 12.7136 92.8862 12.3211 93.9991 12.3211C95.3116 12.3211 96.3449 12.5044 97.3407 12.5953H97.3707C97.5207 12.5953 97.6249 12.4728 97.6249 12.3244V11.2078C97.6249 11.0578 97.507 10.9515 97.3553 10.9224C96.844 10.7999 95.5286 10.5266 94.0907 10.5266C91.2875 10.5266 89.9508 11.732 89.9508 13.3911C89.9508 14.4452 90.415 15.4848 91.7291 16.0273C93.0458 16.5702 95.7416 17.196 95.7416 18.3264C95.7416 19.2014 95.3345 19.6814 93.9916 19.6814C92.5979 19.6814 91.1866 19.4839 90.5833 19.4085H90.5529C90.477 19.409 90.4043 19.4395 90.3508 19.4933C90.2973 19.5472 90.2674 19.6201 90.2675 19.696V20.7818C90.2675 20.9477 90.4029 21.0518 90.5529 21.0818C91.2779 21.2485 92.6304 21.4776 93.9612 21.4776C96.979 21.4776 97.9286 19.8485 97.9286 18.3264H97.929ZM120.958 20.7472V10.9282C120.958 10.7616 120.836 10.642 120.67 10.642H119.373C119.335 10.6404 119.297 10.6467 119.262 10.6605C119.226 10.6743 119.194 10.6953 119.167 10.7222C119.14 10.7491 119.119 10.7813 119.105 10.8167C119.091 10.8522 119.084 10.8901 119.086 10.9282V18.3656C119.086 18.4548 119.042 18.5023 119.012 18.5023C118.965 18.5023 118.921 18.4552 118.892 18.3814L114.639 11.1265C114.456 10.7328 114.291 10.6424 113.975 10.6424H112.346C112.014 10.6424 111.746 10.9124 111.746 11.2445V21.0506C111.746 21.0902 111.753 21.1294 111.768 21.1661C111.783 21.2027 111.806 21.236 111.833 21.2641C111.861 21.2921 111.895 21.3143 111.931 21.3295C111.968 21.3446 112.007 21.3523 112.047 21.3522H113.325C113.49 21.3522 113.613 21.2147 113.613 21.0502V13.9586C113.613 13.869 113.645 13.8365 113.688 13.8365C113.733 13.8365 113.78 13.869 113.823 13.9586L117.914 20.8097C118.15 21.3514 118.468 21.3514 118.83 21.3514H120.355C120.686 21.3514 120.958 21.0806 120.958 20.7472V20.7472ZM87.4958 21.1247V11.2432C87.4958 10.9116 87.2233 10.6416 86.8917 10.6416H85.655C85.4146 10.6416 85.203 10.7907 85.0975 11.0032L82.2059 16.8931C82.1284 17.0281 82.0976 17.1035 82.0393 17.1035C81.9768 17.1035 81.9455 17.0285 81.8709 16.8927L78.9785 11.0028C78.8722 10.7903 78.6606 10.6411 78.4214 10.6411H77.1839C76.8522 10.6411 76.5798 10.9111 76.5798 11.2432V21.1247C76.5798 21.2747 76.7018 21.351 76.8389 21.351H78.3597C78.4956 21.351 78.6014 21.1977 78.6014 21.0489V14.5307C78.6014 14.4252 78.6172 14.3807 78.6472 14.3807C78.6597 14.3807 78.6914 14.4252 78.7235 14.4702L81.1734 19.861C81.2609 20.0248 81.4576 20.1177 81.6538 20.1177H82.4384C82.6342 20.1177 82.8288 20.0243 82.9176 19.8606L85.3509 14.4698C85.3842 14.4248 85.4134 14.3803 85.4259 14.3803C85.4584 14.3803 85.4738 14.4248 85.4738 14.5302V21.0489C85.4738 21.1977 85.5792 21.3506 85.713 21.3506H87.2358C87.3725 21.3506 87.4942 21.2739 87.4942 21.1239L87.4958 21.1247ZM72.1344 15.2248C72.1344 13.2353 70.9328 12.3457 69.4553 12.3457C67.9778 12.3457 66.7741 13.2353 66.7741 15.2248V16.7673C66.7741 18.7573 67.9782 19.6456 69.4549 19.6456C70.9327 19.6456 72.134 18.7573 72.134 16.7673V15.2248H72.1344ZM74.2477 15.2248V16.7673C74.2477 20.0839 71.9436 21.4706 69.4549 21.4706C66.9674 21.4706 64.6653 20.0843 64.6653 16.7673V15.2248C64.6653 11.9082 66.9678 10.522 69.4549 10.522C71.9432 10.522 74.2477 11.9082 74.2477 15.2244V15.2248ZM62.2845 21.0497V10.9274C62.2845 10.7607 62.147 10.6411 61.9829 10.6411H60.4929C60.3237 10.6411 60.1879 10.7603 60.1879 10.9274V14.8427H55.413V10.9274C55.413 10.7607 55.2755 10.6411 55.113 10.6411H53.6205C53.4526 10.6411 53.318 10.7603 53.318 10.9274V21.0489C53.318 21.2139 53.4526 21.3506 53.6205 21.3506H55.113C55.2755 21.3506 55.413 21.2131 55.413 21.0485V16.6819H60.1879V21.0493C60.1886 21.1297 60.221 21.2066 60.2782 21.2631C60.3353 21.3196 60.4125 21.3512 60.4929 21.351H61.9829C62.147 21.351 62.2845 21.2135 62.2845 21.0489V21.0497ZM51.1055 12.389H48.0981V21.0493C48.0974 21.1296 48.0651 21.2063 48.0081 21.2628C47.9511 21.3193 47.8742 21.351 47.7939 21.351H46.3035C46.2238 21.3503 46.1476 21.3182 46.0914 21.2617C46.0352 21.2051 46.0036 21.1286 46.0035 21.0489V12.389H42.9919C42.8269 12.389 42.6898 12.2849 42.6898 12.1195V10.9278C42.6898 10.7611 42.8273 10.6416 42.9919 10.6416H51.1051C51.2705 10.6416 51.4072 10.7607 51.4072 10.9278V12.1195C51.4072 12.2849 51.2705 12.389 51.1051 12.389H51.1055Z" fill="#404242"/>
</svg>
