<svg width="100" height="32" viewBox="0 0 100 32" fill="none" xmlns="http://www.w3.org/2000/svg">
<path fill-rule="evenodd" clip-rule="evenodd" d="M45.0628 13.7063C43.8469 14.9602 43.1914 16.6535 43.246 18.3992C43.1917 20.1543 43.8442 21.8578 45.0571 23.1275C46.27 24.3973 47.9418 25.127 49.6976 25.1532C51.3667 25.1427 52.9488 24.4068 54.0323 23.1371V24.8508H56.8548V6H54.0323V13.6613C52.9557 12.3944 51.3591 11.689 49.6976 11.746C47.951 11.7451 46.2787 12.4524 45.0628 13.7063ZM70.0605 21.121C69.14 22.0738 67.8559 22.5874 66.5323 22.5323C64.5746 22.7163 62.8102 21.349 62.5 19.4073H72.6814C72.8831 14.9718 70.4637 11.6452 66.129 11.6452C64.3469 11.645 62.6391 12.3597 61.3885 13.6293C60.1378 14.899 59.4488 16.6172 59.4758 18.3992C59.4758 22.3306 62.1976 25.1532 66.5323 25.1532C68.5329 25.2376 70.4751 24.468 71.875 23.0363L70.0605 21.121ZM68.4708 15.0664C69.114 15.6339 69.5046 16.4342 69.5564 17.2903H62.5C62.7568 15.5017 64.3234 14.1962 66.129 14.2661C66.985 14.211 67.8277 14.4989 68.4708 15.0664ZM0 22.4314L7.7621 14.4677H0.201613V11.9476H11.3911V14.5685L3.62903 22.4314H11.4919V24.9516H0V22.4314ZM23.7903 21.121C22.8699 22.0738 21.5858 22.5874 20.2621 22.5323C18.3044 22.7163 16.5401 21.349 16.2298 19.4073H26.4113C26.6129 14.9718 24.1935 11.6452 19.8589 11.6452C18.0767 11.645 16.369 12.3597 15.1183 13.6293C13.8677 14.899 13.1786 16.6172 13.2056 18.3992C13.2056 22.3306 16.0282 25.1532 20.2621 25.1532C22.2627 25.2376 24.2049 24.468 25.6048 23.0363L23.7903 21.121ZM23.3871 17.2903C23.3353 16.4342 22.9446 15.6339 22.3014 15.0664C21.6583 14.4989 20.8156 14.211 19.9597 14.2661C18.1375 14.1465 16.5416 15.4765 16.3306 17.2903H23.3871ZM54.2339 18.3992C54.1785 16.1305 52.3043 14.3308 50.0352 14.3675C47.7662 14.4042 45.9511 16.2635 45.9691 18.5328C45.9871 20.8021 47.8315 22.6324 50.1008 22.6331C51.2147 22.6334 52.2815 22.1841 53.0595 21.3871C53.8376 20.5901 54.261 19.5127 54.2339 18.3992ZM76.9153 20.8185L74.3952 22.129C75.5788 24.1486 77.8063 25.321 80.1411 25.1532C83.871 25.1532 85.3831 23.7419 85.3831 21.0202C85.3831 18.2984 82.7621 17.4919 80.8468 17.0887L80.5458 17.0256C78.8056 16.6619 77.7218 16.4354 77.7218 15.5766C77.7218 14.6694 78.5282 13.9637 80.0403 13.9637C81.2046 13.9545 82.2984 14.5203 82.9637 15.4758L85.2823 14.1653C84.08 12.4851 82.1034 11.5348 80.0403 11.6452C76.9153 11.6452 75 12.9556 75 15.5766C75 18.1976 77.9234 19.1048 79.5363 19.4073C81.1492 19.7097 82.6613 20.1129 82.6613 21.0202C82.6613 21.9274 81.8548 22.7339 80.2419 22.7339C78.8756 22.7169 77.616 21.9917 76.9153 20.8185ZM92.8427 19.1048L90.7258 21.5242V24.8508H87.9032V6H90.7258V18.3992L96.5726 11.9476H99.8992L94.8589 17.4919L100 24.8508H96.875L92.8427 19.1048ZM30.6903 13.1877C31.8153 12.1199 33.3302 11.5621 34.879 11.6452C38.2056 11.6452 40.9274 13.8629 40.9274 17.2903V24.8508H38.1048V17.6935C38.1048 15.5766 36.996 14.2661 34.9798 14.2661C32.9637 14.2661 31.754 15.5766 31.754 17.6935V24.8508H28.9315V17.2903C28.9292 15.7392 29.5653 14.2556 30.6903 13.1877Z" fill="#404242"/>
</svg>
