<svg width="158" height="16" viewBox="0 0 158 16" fill="none" xmlns="http://www.w3.org/2000/svg">
<path d="M13.2833 3.30031V12.716H15.6905C16.3019 12.7085 16.9059 12.5806 17.4678 12.3395C18.0297 12.0984 18.5385 11.7488 18.9652 11.3108C19.3918 10.8728 19.7279 10.355 19.9543 9.787C20.1806 9.21898 20.2927 8.61191 20.2841 8.00052C20.3015 7.38755 20.1953 6.77735 19.972 6.20625C19.7487 5.63515 19.4127 5.11483 18.9841 4.67627C18.5555 4.23771 18.043 3.88988 17.4772 3.6535C16.9114 3.41711 16.3037 3.29699 15.6905 3.30031H13.2833ZM15.6905 0.348389C20.1774 0.348389 23.5712 3.73833 23.5712 8.00052C23.5712 12.2627 20.1774 15.6717 15.6905 15.6717H10.3809C10.2799 15.6717 10.183 15.6316 10.1116 15.5601C10.0401 15.4887 10 15.3918 10 15.2908V0.744517C10 0.643498 10.0401 0.546616 10.1116 0.475185C10.183 0.403754 10.2799 0.363624 10.3809 0.363624L15.6905 0.348389Z" fill="#4E4E4E"/>
<path d="M35.1389 13.0437C36.1351 13.0467 37.1099 12.7542 37.9398 12.203C38.7697 11.6519 39.4174 10.867 39.8011 9.94761C40.1848 9.02823 40.2871 8.01569 40.0952 7.03813C39.9032 6.06057 39.4256 5.16191 38.7228 4.45587C38.0199 3.74983 37.1235 3.26814 36.1468 3.07175C35.1701 2.87536 34.1571 2.9731 33.236 3.35259C32.3149 3.73209 31.527 4.37629 30.9721 5.20368C30.4172 6.03107 30.1203 7.00447 30.1187 8.0007C30.1187 9.33424 30.6469 10.6135 31.5877 11.5586C32.5285 12.5037 33.8054 13.0377 35.1389 13.0437ZM35.1389 0.00195312C39.862 0.00195312 43.4728 3.63186 43.4728 8.0007C43.4728 12.3695 39.862 15.9994 35.1389 15.9994C30.4158 15.9994 26.8354 12.3886 26.8354 8.0007C26.8354 3.61282 30.4463 0.00195312 35.1389 0.00195312Z" fill="#4E4E4E"/>
<path d="M54.9453 13.0437C55.9404 13.0415 56.9125 12.7444 57.7389 12.1901C58.5653 11.6357 59.2089 10.849 59.5885 9.92913C59.9681 9.00928 60.0666 7.99758 59.8716 7.02177C59.6767 6.04596 59.197 5.14979 58.493 4.44642C57.7891 3.74305 56.8926 3.264 55.9167 3.06978C54.9407 2.87555 53.9291 2.97485 53.0095 3.35513C52.0899 3.73541 51.3037 4.37963 50.75 5.20645C50.1963 6.03326 49.8999 7.0056 49.8984 8.0007C49.8984 8.66328 50.029 9.31936 50.2827 9.93146C50.5363 10.5436 50.9082 11.0997 51.3768 11.568C51.8455 12.0363 52.4019 12.4077 53.0142 12.6609C53.6265 12.9141 54.2827 13.0442 54.9453 13.0437ZM54.9453 0.00195312C59.6531 0.00195312 63.264 3.61282 63.264 8.0007C63.264 12.3886 59.6379 15.9994 54.9453 15.9994C50.2527 15.9994 46.6113 12.3886 46.6113 8.0007C46.6113 3.61282 50.2222 0.00195312 54.9453 0.00195312Z" fill="#4E4E4E"/>
<path d="M74.2757 3.30045H70.8819V7.35315H74.2757C74.5428 7.36545 74.8096 7.32376 75.0602 7.23056C75.3108 7.13736 75.5401 6.99456 75.7342 6.81073C75.9284 6.62689 76.0834 6.40578 76.1902 6.16062C76.2969 5.91547 76.3531 5.6513 76.3554 5.38393C76.3649 5.10825 76.3177 4.83354 76.2165 4.57689C76.1154 4.32025 75.9626 4.08715 75.7675 3.89209C75.5725 3.69704 75.3394 3.54419 75.0827 3.44306C74.8261 3.34194 74.5514 3.29469 74.2757 3.30426V3.30045ZM67.5986 0.744662C67.5986 0.643643 67.6388 0.546762 67.7102 0.47533C67.7816 0.403899 67.8785 0.36377 67.9795 0.36377H74.3709C77.418 0.36377 79.6234 2.5958 79.6234 5.39917C79.6345 6.32833 79.3839 7.24186 78.9003 8.03532C78.4167 8.82878 77.7195 9.47014 76.8886 9.88609L79.8367 15.0967C79.8773 15.1562 79.9002 15.2259 79.9027 15.2979C79.9053 15.3699 79.8873 15.4411 79.8511 15.5033C79.8148 15.5655 79.7616 15.6161 79.6977 15.6493C79.6338 15.6825 79.5618 15.6969 79.4901 15.6909H76.9038C76.8326 15.6925 76.7624 15.674 76.7011 15.6377C76.6398 15.6013 76.59 15.5485 76.5572 15.4852L73.7158 10.3279H70.8705V15.2795C70.8705 15.3805 70.8304 15.4774 70.7589 15.5489C70.6875 15.6203 70.5906 15.6604 70.4896 15.6604H67.9986C67.8976 15.6604 67.8007 15.6203 67.7292 15.5489C67.6578 15.4774 67.6177 15.3805 67.6177 15.2795L67.5986 0.744662Z" fill="#4E4E4E"/>
<path d="M88.1821 3.37296V12.7886H90.5894C91.2004 12.7817 91.8042 12.6543 92.366 12.4139C92.9278 12.1735 93.4368 11.8247 93.8637 11.3875C94.2907 10.9503 94.6273 10.4332 94.8543 9.86581C95.0813 9.29843 95.1943 8.69186 95.1867 8.0808C95.2052 7.46687 95.0997 6.85553 94.8766 6.28328C94.6535 5.71103 94.3173 5.18962 93.8882 4.75019C93.4591 4.31076 92.9458 3.96233 92.379 3.7257C91.8122 3.48907 91.2036 3.3691 90.5894 3.37296H88.1821ZM90.5894 0.417236C95.0763 0.417236 98.47 3.81099 98.47 8.0808C98.47 12.3506 95.0763 15.7444 90.5894 15.7444H85.295C85.1939 15.7444 85.0971 15.7042 85.0256 15.6328C84.9542 15.5614 84.9141 15.4645 84.9141 15.3635V0.817174C84.9141 0.716155 84.9542 0.619273 85.0256 0.547842C85.0971 0.476411 85.1939 0.436281 85.295 0.436281L90.5894 0.417236Z" fill="#4E4E4E"/>
<path d="M108.484 4.16115L106.621 9.19655H110.342L108.484 4.16115ZM105.528 12.0418L104.309 15.3937C104.283 15.4732 104.232 15.5421 104.163 15.5896C104.094 15.6371 104.012 15.6606 103.928 15.6565H101.285C101.218 15.6628 101.151 15.6514 101.09 15.6233C101.029 15.5952 100.976 15.5515 100.937 15.4966C100.899 15.4417 100.875 15.3775 100.869 15.3106C100.864 15.2437 100.875 15.1764 100.904 15.1156L106.617 0.584571C106.645 0.507156 106.697 0.440831 106.766 0.395516C106.835 0.350201 106.916 0.328333 106.998 0.333182H109.958C110.04 0.328333 110.121 0.350201 110.19 0.395516C110.259 0.440831 110.311 0.507156 110.339 0.584571L116.052 15.1156C116.081 15.1764 116.092 15.2437 116.087 15.3106C116.081 15.3775 116.057 15.4417 116.019 15.4966C115.98 15.5515 115.927 15.5952 115.866 15.6233C115.805 15.6514 115.738 15.6628 115.671 15.6565H113.028C112.944 15.6606 112.862 15.6371 112.793 15.5896C112.724 15.5421 112.673 15.4732 112.647 15.3937L111.428 12.0418H105.528Z" fill="#4E4E4E"/>
<path d="M119.118 4.48886C119.118 2.08162 121.198 0.00194736 124.481 0.00194736C126.242 -0.0401935 127.95 0.603007 129.246 1.79595C129.285 1.83162 129.316 1.87491 129.337 1.92309C129.358 1.97127 129.369 2.02331 129.369 2.07591C129.369 2.12851 129.358 2.18054 129.337 2.22872C129.316 2.27691 129.285 2.3202 129.246 2.35586L127.78 3.81087C127.744 3.84657 127.702 3.87491 127.656 3.89425C127.609 3.91358 127.56 3.92354 127.509 3.92354C127.459 3.92354 127.409 3.91358 127.363 3.89425C127.316 3.87491 127.274 3.84657 127.239 3.81087C126.543 3.17811 125.639 2.82181 124.698 2.80913C123.384 2.80913 122.413 3.57091 122.413 4.45077C122.413 7.29604 130.176 5.65439 130.176 11.1278C130.172 13.9007 128.077 15.9994 124.371 15.9994C123.347 16.0118 122.33 15.8216 121.38 15.4399C120.429 15.0581 119.564 14.4923 118.833 13.775C118.794 13.7394 118.763 13.6961 118.742 13.6479C118.721 13.5997 118.71 13.5477 118.71 13.4951C118.71 13.4425 118.721 13.3904 118.742 13.3423C118.763 13.2941 118.794 13.2508 118.833 13.2151L120.25 11.7982C120.285 11.7607 120.328 11.7309 120.375 11.7105C120.423 11.6901 120.474 11.6796 120.526 11.6796C120.577 11.6796 120.628 11.6901 120.676 11.7105C120.723 11.7309 120.766 11.7607 120.802 11.7982C121.703 12.6633 122.901 13.1512 124.15 13.1618C125.791 13.1618 126.873 12.2857 126.873 11.1888C126.873 8.3435 119.114 9.98514 119.114 4.51172" fill="#4E4E4E"/>
<path d="M144.253 0.725756V6.47723H137.683V0.725756C137.683 0.624737 137.643 0.527856 137.571 0.456425C137.5 0.384994 137.403 0.344864 137.302 0.344864H134.811C134.71 0.344864 134.613 0.384994 134.541 0.456425C134.47 0.527856 134.43 0.624737 134.43 0.725756V15.2568C134.43 15.3578 134.47 15.4547 134.541 15.5261C134.613 15.5976 134.71 15.6377 134.811 15.6377H137.302C137.403 15.6377 137.5 15.5976 137.571 15.5261C137.643 15.4547 137.683 15.3578 137.683 15.2568V9.41392H144.249V15.2568C144.249 15.3578 144.289 15.4547 144.361 15.5261C144.432 15.5976 144.529 15.6377 144.63 15.6377H147.121C147.222 15.6377 147.319 15.5976 147.391 15.5261C147.462 15.4547 147.502 15.3578 147.502 15.2568V0.725756C147.502 0.624737 147.462 0.527856 147.391 0.456425C147.319 0.384994 147.222 0.344864 147.121 0.344864H144.63C144.53 0.345868 144.434 0.38644 144.363 0.457763C144.293 0.529085 144.253 0.625394 144.253 0.725756Z" fill="#4E4E4E"/>
</svg>
