<svg width="93" height="60" viewBox="0 0 93 60" fill="none" xmlns="http://www.w3.org/2000/svg">
<path fill-rule="evenodd" clip-rule="evenodd" d="M0.518281 44.1853C0.230874 44.7531 0.0590396 45.3723 0.0127415 46.007C-0.0335566 46.6416 0.0466027 47.2792 0.248571 47.8827C0.45054 48.4861 0.770299 49.0435 1.18931 49.5225C1.60832 50.0014 2.11824 50.3924 2.68951 50.6728C3.26077 50.9532 3.88202 51.1174 4.51722 51.1558C5.15243 51.1943 5.78895 51.1063 6.38988 50.8969C6.99081 50.6875 7.54419 50.3609 8.01794 49.936C8.49169 49.5111 8.87638 48.9964 9.1497 48.4218L11.0649 44.5198L6.96038 31.0615L0.518281 44.1853Z" fill="#62676A"/>
<path fill-rule="evenodd" clip-rule="evenodd" d="M27.3252 0.493023C26.7585 0.214427 26.1424 0.0502399 25.5123 0.00984419C24.8821 -0.0305515 24.2501 0.0536365 23.6525 0.257596C23.0548 0.461556 22.5033 0.78129 22.0293 1.19852C21.5552 1.61576 21.1681 2.12231 20.89 2.68923L13.1619 18.4316L17.2664 31.889L29.5205 6.92564C29.7988 6.35912 29.9627 5.74335 30.0029 5.11348C30.0432 4.48361 29.9589 3.85199 29.7551 3.25466C29.5512 2.65734 29.2317 2.10601 28.8148 1.63217C28.3979 1.15833 27.8917 0.771246 27.3252 0.493023" fill="#62676A"/>
<path fill-rule="evenodd" clip-rule="evenodd" d="M14.7488 56.5964C14.9329 57.2001 15.2341 57.7616 15.6353 58.2488C16.0364 58.7361 16.5296 59.1395 17.0867 59.4362C17.6438 59.7328 18.2538 59.9168 18.882 59.9776C19.5102 60.0385 20.1443 59.9749 20.7479 59.7907C21.352 59.6068 21.9139 59.3056 22.4015 58.9045C22.8892 58.5033 23.293 58.01 23.59 57.4528C23.8869 56.8955 24.0712 56.2852 24.1322 55.6567C24.1933 55.0282 24.1299 54.3939 23.9457 53.7899L17.2665 31.8899L11.0649 44.5198L14.7488 56.5955V56.5964ZM10.4616 9.57522C10.074 8.37462 9.23005 7.37444 8.1118 6.79032C6.99355 6.2062 5.69054 6.08495 4.48371 6.4527C3.27688 6.82045 2.26291 7.64774 1.66042 8.7562C1.05794 9.86467 0.915206 11.1655 1.263 12.3782L6.96039 31.0624L13.162 18.4316L10.4616 9.57436V9.57522Z" fill="#92979B"/>
<path fill-rule="evenodd" clip-rule="evenodd" d="M6.96033 31.0615L11.0649 44.5198L17.2665 31.889L13.1619 18.4316L6.96033 31.0615Z" fill="#62676A"/>
<path fill-rule="evenodd" clip-rule="evenodd" d="M30.8752 35.1169H23.522C23.5048 34.954 23.5048 34.8075 23.5048 34.6937C23.5048 32.8406 24.2374 31.6192 26.0268 30.4478C26.9542 29.8307 27.524 29.4549 27.7524 29.2928C27.9954 29.1144 28.1902 28.8851 28.3531 28.6248C28.513 28.3481 28.5971 28.0342 28.5971 27.7146C28.5971 26.8992 28.0437 26.3468 27.2464 26.3468C26.2707 26.3468 25.7173 27.0311 25.6855 28.299H23.5048C23.5375 26.8993 23.8633 26.0873 24.677 25.4202C25.3596 24.8677 26.1897 24.5893 27.2456 24.5893C29.4762 24.5893 30.8915 25.7615 30.8915 27.6147C30.8915 29.0808 30.1434 30.0901 28.1092 31.4072C26.5638 32.4001 26.3681 32.5966 26.2061 33.312H30.8752V35.1169V35.1169ZM33.9506 31.9286C33.9506 32.9371 34.6168 33.5715 35.6417 33.5715C36.6019 33.5715 37.2199 33.0345 37.2199 32.2053C37.2199 31.2132 36.6019 30.8228 35.0073 30.8228H34.7642V29.0489H34.9926C36.52 29.0489 37.1233 28.6748 37.1233 27.7146C37.1233 26.9337 36.52 26.364 35.6753 26.364C34.6651 26.364 34.1135 26.9673 34.1135 28.0723V28.0879H31.8509C31.9155 26.7527 32.225 26.0546 33.0395 25.4047C33.7066 24.8677 34.6013 24.5893 35.7235 24.5893C37.9042 24.5893 39.3351 25.7124 39.3351 27.438C39.3351 28.6576 38.636 29.5523 37.3992 29.8617C37.8387 29.96 38.0008 30.0238 38.2283 30.1548C39.042 30.578 39.4661 31.3425 39.4661 32.3191C39.4661 34.1748 38.0008 35.329 35.6908 35.329C33.1688 35.329 31.7207 34.0119 31.7207 31.6675H33.9669C33.9669 31.7821 33.9506 31.8631 33.9506 31.9286V31.9286ZM45.079 31.6037L44.3463 31.7166C42.981 31.9286 42.4415 32.2372 42.4415 32.8397C42.4415 33.3931 42.9319 33.768 43.6309 33.768C44.754 33.768 45.3393 33.0354 45.372 31.5546L45.079 31.6037ZM44.0378 27.0311C45.1773 27.0311 46.0883 27.3397 46.6744 27.9422C47.2433 28.5111 47.439 29.1455 47.439 30.5452C47.4217 30.659 47.4217 31.0322 47.4062 31.6838V32.4165C47.4062 33.6516 47.4717 34.4662 47.6174 35.1169H45.7789C45.697 34.6774 45.697 34.5308 45.697 34.2395V33.9137C45.1281 34.8894 44.3308 35.2962 43.0448 35.2962C41.3692 35.2962 40.1979 34.3196 40.1979 32.9199C40.1979 32.3355 40.4254 31.7821 40.8012 31.3908C41.2554 30.9193 41.8252 30.6754 42.8992 30.4634C43.7283 30.3168 44.623 30.1875 45.3729 30.1384C45.3729 29.0308 44.9825 28.5611 44.0705 28.5611C43.2086 28.5611 42.769 28.9515 42.719 29.7161H40.4909C40.6047 28.0396 41.9217 27.0311 44.0378 27.0311V27.0311ZM50.9531 28.2344C51.522 27.4699 52.2873 27.0794 53.2467 27.0794C54.3853 27.0794 55.3627 27.6819 55.7032 28.6085C55.8997 29.0963 55.9316 29.4876 55.9316 30.659V35.1169H53.7682V30.5133C53.7682 29.2429 53.4096 28.7403 52.5149 28.7403C51.5211 28.7403 51.0669 29.473 51.0669 31.0495V35.1169H48.9025V27.2587H50.9539V28.2344H50.9531ZM60.7636 33.5232C61.7557 33.5232 62.4237 32.5958 62.4237 31.1788C62.4065 29.7307 61.8048 28.8688 60.7964 28.8688C59.787 28.8688 59.1527 29.7798 59.1527 31.196C59.1527 32.563 59.8198 33.5232 60.7636 33.5232V33.5232ZM64.5544 35.1169H62.503V34.0749C61.9996 34.8894 61.2187 35.2962 60.2103 35.2962C58.3054 35.2962 56.9728 33.6215 56.9728 31.2132C56.9728 28.755 58.2416 27.0794 60.1129 27.0794C61.1705 27.0794 61.8703 27.438 62.391 28.2499V24.2816H64.5544V35.1169V35.1169ZM78.4497 35.1169H76.2862V26.3959L73.634 35.1169H71.2732L68.5883 26.3959V35.1169H66.4248V24.2824H70.0536L72.542 32.482L74.983 24.2816H78.4479L78.4497 35.1169ZM85.4451 30.2841C85.4124 29.3247 84.7616 28.6748 83.8023 28.6748C82.8585 28.6748 82.2715 29.2265 82.0939 30.2841H85.4451ZM83.8833 35.2962C81.4432 35.2962 79.8805 33.6844 79.8805 31.1477C79.8805 28.7076 81.4595 27.0794 83.8178 27.0794C86.1941 27.0794 87.6896 28.7076 87.6896 31.3425C87.6896 31.4718 87.6741 31.5701 87.6741 31.8476H82.1103C82.1594 32.9862 82.8257 33.637 83.9316 33.637C84.6642 33.637 85.1521 33.3284 85.3641 32.7096H87.6741C87.1699 34.4007 85.8356 35.2954 83.8833 35.2954V35.2962ZM90.6124 28.2378C90.5179 28.2072 90.4187 28.1934 90.3194 28.1973H90.197V28.7567H90.3935C90.4905 28.762 90.5868 28.7373 90.6693 28.686C90.7348 28.6386 90.7676 28.5619 90.7676 28.4559C90.7676 28.3507 90.7159 28.2775 90.6124 28.2378V28.2378ZM89.6919 29.785V27.8569C90.0033 27.8576 90.3148 27.8593 90.6262 27.862C90.7788 27.8732 90.9046 27.9069 91.0072 27.9612C91.177 28.056 91.2623 28.2085 91.2623 28.4214C91.2623 28.5835 91.2184 28.7007 91.1279 28.7722C91.031 28.8462 90.9149 28.8908 90.7934 28.9007C90.9141 28.9257 91.0072 28.9644 91.0675 29.0127C91.1813 29.1041 91.2365 29.248 91.2365 29.4454V29.6169C91.2366 29.6553 91.2427 29.6934 91.2546 29.7298L91.2718 29.785H90.7908C90.7725 29.6971 90.7621 29.6076 90.7598 29.5178C90.7596 29.4381 90.7491 29.3587 90.7288 29.2816C90.7167 29.2492 90.6977 29.2198 90.6732 29.1954C90.6486 29.171 90.6191 29.1522 90.5866 29.1403C90.531 29.1215 90.4728 29.1113 90.4142 29.1101L90.3021 29.1024H90.197V29.785H89.6919V29.785ZM89.4342 27.8103C89.3005 27.9415 89.1948 28.0985 89.1234 28.2716C89.052 28.4448 89.0164 28.6306 89.0187 28.8179C89.0187 29.2196 89.1583 29.5618 89.4411 29.8436C89.7195 30.1237 90.0582 30.2642 90.4547 30.2642C90.8486 30.2642 91.1856 30.1229 91.4657 29.8402C91.6012 29.707 91.7082 29.5478 91.7803 29.372C91.8525 29.1963 91.8883 29.0078 91.8855 28.8179C91.8855 28.43 91.7459 28.0948 91.4683 27.8095C91.3388 27.6708 91.1817 27.5606 91.0072 27.4861C90.8326 27.4116 90.6445 27.3744 90.4547 27.3768C90.2638 27.3739 90.0744 27.4111 89.8986 27.4857C89.7229 27.5604 89.5647 27.6709 89.4342 27.8103V27.8103ZM91.6717 30.0643C91.5119 30.2232 91.3219 30.3486 91.1129 30.4329C90.9039 30.5173 90.6801 30.559 90.4547 30.5556C90.2251 30.5608 89.9969 30.5189 89.7842 30.4325C89.5715 30.346 89.3787 30.2169 89.2178 30.0531C89.0546 29.8921 88.9259 29.6996 88.8396 29.4872C88.7534 29.2748 88.7114 29.0471 88.7162 28.8179C88.7162 28.3094 88.8972 27.887 89.2592 27.5509C89.5807 27.2434 90.0099 27.0741 90.4547 27.0794C90.9339 27.0794 91.3425 27.2492 91.6821 27.5888C92.0208 27.9284 92.1924 28.3378 92.1924 28.8179C92.197 29.0504 92.1531 29.2814 92.0635 29.496C91.9739 29.7106 91.8404 29.9042 91.6717 30.0643Z" fill="#404242"/>
</svg>
