<svg width="158" height="24" viewBox="0 0 158 24" fill="none" xmlns="http://www.w3.org/2000/svg">
<path fill-rule="evenodd" clip-rule="evenodd" d="M49 0V1.62H60.7V0H49ZM62.32 0V1.62H79C77.899 0.651281 76.5043 0.0807336 75.04 0H62.32ZM82.24 1.62V0H91.72L92.32 1.62H82.24ZM99.52 0L98.92 1.62H108.88V0H99.52ZM49 4.85999V3.17999H60.7V4.85999H49ZM62.32 3.17999V4.85999H80.92C80.8191 4.26941 80.616 3.70091 80.32 3.17999H62.32ZM82.24 4.85999V3.17999H92.86L93.4 4.85999H82.24ZM98.32 3.17999L97.78 4.85999H108.88V3.17999H98.32ZM52.36 8.03999V6.35999H57.4V8.03999H52.36ZM65.68 6.35999V8.03999H70.72V6.35999H65.68ZM75.64 8.03999V6.35999H81.04C81.0167 6.931 80.9158 7.49618 80.74 8.03999H75.64ZM85.6 6.35999V8.03999H94.54L93.94 6.35999H85.6ZM96.64 8.03999L97.24 6.35999H105.64V8.03999H96.64ZM52.36 9.60004V11.22H57.4V9.60004H52.36ZM65.68 11.22V9.60004H80.02C79.6457 10.2254 79.1572 10.775 78.58 11.22H65.68ZM85.6 9.60004V11.22H90.64V10.32L91 11.22H100.24L100.6 10.32V11.22H105.64V9.60004H96.16L95.62 10.98L95.14 9.60004H85.6ZM52.36 14.4V12.78H57.4V14.4H52.36ZM65.68 12.78V14.4H80.02C79.6457 13.7746 79.1572 13.2251 78.58 12.78H65.68ZM85.6 14.4V12.78H90.64V14.4H85.6ZM91.6 12.78L92.2 14.4H99.16L99.7 12.78H91.6ZM100.6 14.4V12.78H105.64V14.4H100.6ZM52.36 15.96V17.64H57.4V15.96H52.36ZM65.68 17.64V15.96H70.72V17.64H65.68ZM75.64 15.96V17.64H81.04C81.0167 17.069 80.9158 16.5038 80.74 15.96H75.64ZM85.6 17.64V15.96H90.64V17.64H85.6ZM92.74 15.96L93.34 17.64H97.96L98.56 15.96H92.74ZM100.6 17.64V15.96H105.64V17.64H100.6ZM49.12 19.14V20.82H60.76V19.14H49.12ZM62.32 20.82V19.14H80.92C80.8281 19.7329 80.6245 20.303 80.32 20.82H62.32ZM82.36 19.14V20.82H90.64V19.14H82.36ZM94.48 20.82L93.88 19.14H97.42L96.88 20.82H94.48ZM100.6 19.14V20.82H109V19.14H100.6ZM49.12 24V22.38H60.76V24H49.12ZM62.32 22.38V24H75.04C76.5043 23.9192 77.899 23.3487 79 22.38H62.32ZM82.36 24V22.38H90.64V24H82.36ZM95.02 22.38L95.62 24H95.74L96.34 22.38H95.02ZM100.6 24V22.38H109V24H100.6Z" fill="#4E4E4E"/>
</svg>
