<svg width="48" height="48" viewBox="0 0 48 48" fill="none" xmlns="http://www.w3.org/2000/svg">
<path d="M18.4312 10.4858C18.6799 10.4859 18.923 10.4123 19.1298 10.2743C19.3366 10.1362 19.4978 9.93998 19.5931 9.7103C19.6883 9.48063 19.7133 9.22787 19.6649 8.98398C19.6165 8.7401 19.4969 8.51605 19.3211 8.34018C19.1453 8.16431 18.9213 8.04452 18.6775 7.99596C18.4336 7.9474 18.1809 7.97224 17.9511 8.06736C17.7214 8.16248 17.525 8.32359 17.3869 8.53032C17.2487 8.73705 17.175 8.98011 17.175 9.22875C17.1749 9.39379 17.2073 9.55722 17.2704 9.70973C17.3335 9.86223 17.426 10.0008 17.5427 10.1175C17.6593 10.2343 17.7979 10.3269 17.9503 10.3901C18.1028 10.4532 18.2662 10.4858 18.4312 10.4858Z" fill="#0055DC"/>
<path d="M22.452 10.4858C22.7006 10.4859 22.9437 10.4123 23.1505 10.2743C23.3574 10.1362 23.5186 9.93998 23.6138 9.7103C23.7091 9.48063 23.7341 9.22787 23.6857 8.98398C23.6373 8.7401 23.5176 8.51605 23.3418 8.34018C23.1661 8.16431 22.9421 8.04452 22.6982 7.99596C22.4544 7.9474 22.2016 7.97224 21.9719 8.06736C21.7422 8.16248 21.5458 8.32359 21.4076 8.53032C21.2695 8.73705 21.1957 8.98011 21.1957 9.22875C21.1956 9.39379 21.2281 9.55722 21.2912 9.70973C21.3542 9.86223 21.4468 10.0008 21.5634 10.1175C21.6801 10.2343 21.8186 10.3269 21.9711 10.3901C22.1235 10.4532 22.287 10.4858 22.452 10.4858Z" fill="#0055DC"/>
<path d="M26.475 10.4858C26.7236 10.4859 26.9667 10.4123 27.1736 10.2743C27.3804 10.1362 27.5416 9.93998 27.6369 9.7103C27.7321 9.48063 27.7571 9.22787 27.7087 8.98398C27.6603 8.7401 27.5406 8.51605 27.3648 8.34018C27.1891 8.16431 26.9651 8.04452 26.7213 7.99596C26.4774 7.9474 26.2246 7.97224 25.9949 8.06736C25.7652 8.16248 25.5688 8.32359 25.4306 8.53032C25.2925 8.73705 25.2188 8.98011 25.2188 9.22875C25.2187 9.39379 25.2511 9.55722 25.3142 9.70973C25.3773 9.86223 25.4698 10.0008 25.5864 10.1175C25.7031 10.2343 25.8416 10.3269 25.9941 10.3901C26.1465 10.4532 26.31 10.4858 26.475 10.4858Z" fill="#0055DC"/>
<path d="M43.356 4.46325H14.532L13.032 5.96325V13.0957H10.257L8.75701 14.5957V18.8182H6.01651L4.51651 20.3182V41.9587L6.01651 43.4587H32.0685L33.5685 41.9587V37.7355H36.3128L37.8128 36.2355V31.407H43.356L44.856 29.907V5.96325L43.356 4.46325ZM41.856 7.46325V10.9965H16.032V7.46325H41.856ZM13.032 16.0957V19.0005H11.757V16.0957H13.032ZM8.75701 21.8182V24.7238H7.51651V21.8182H8.75701ZM30.5685 40.4587H7.51651V27.7238H8.76076V36.2355L10.2608 37.7355H30.5685V40.4587ZM34.8128 34.7355H11.7608V22.0005H13.0358V29.907L14.5358 31.407H34.8128V34.7355ZM16.032 28.407V13.9965H41.856V28.407H16.032Z" fill="#0055DC"/>
<path d="M29.4593 16.7092H28.9575L25.944 21.2295V21.732H28.428V24.7455H28.9305L31.944 20.2252V19.7228H29.4593V16.7092Z" fill="#0055DC"/>
</svg>
