<svg width="32" height="32" viewBox="0 0 32 32" fill="none" xmlns="http://www.w3.org/2000/svg">
<path d="M16 11C15.0111 11 14.0444 11.2932 13.2222 11.8427C12.3999 12.3921 11.759 13.173 11.3806 14.0866C11.0022 15.0002 10.9031 16.0055 11.0961 16.9755C11.289 17.9454 11.7652 18.8363 12.4645 19.5355C13.1637 20.2348 14.0546 20.711 15.0246 20.9039C15.9945 21.0969 16.9998 20.9978 17.9134 20.6194C18.8271 20.241 19.6079 19.6001 20.1574 18.7779C20.7068 17.9556 21 16.9889 21 16C21 14.6739 20.4732 13.4021 19.5355 12.4645C18.5979 11.5268 17.3261 11 16 11ZM16 19C15.4067 19 14.8266 18.8241 14.3333 18.4944C13.8399 18.1648 13.4554 17.6962 13.2284 17.148C13.0013 16.5999 12.9419 15.9967 13.0576 15.4147C13.1734 14.8328 13.4591 14.2982 13.8787 13.8787C14.2982 13.4591 14.8328 13.1734 15.4147 13.0576C15.9967 12.9419 16.5999 13.0013 17.1481 13.2284C17.6962 13.4554 18.1648 13.8399 18.4944 14.3333C18.8241 14.8266 19 15.4067 19 16C19 16.7956 18.6839 17.5587 18.1213 18.1213C17.5587 18.6839 16.7957 19 16 19Z" fill="#0055DC"/>
<path d="M24.95 16L28.67 12.405L25.43 6.795L20.56 8.19L19.255 3H12.755L11.5 8.19L6.60002 6.795L3.36002 12.41L7.10002 16.025L3.36002 19.645L6.60002 25.255L11.5 23.855L12.775 29H19.275L20.56 23.87L25.49 25.28L28.735 19.67L24.95 16ZM24.5 22.905L20.135 21.65L18.795 22.575L17.695 27H14.335L13.235 22.6L11.94 21.65L7.55002 22.905L5.87002 20L9.14002 16.84V15.22L5.87002 12.055L7.55002 9.145L11.945 10.405L13.24 9.37L14.335 5H17.695L18.795 9.39L20.085 10.425L24.5 9.145L26.18 12.055L22.905 15.22L22.955 16.835L26.2 20L24.5 22.905Z" fill="#0055DC"/>
</svg>
