<svg width="48" height="48" viewBox="0 0 48 48" fill="none" xmlns="http://www.w3.org/2000/svg">
<path d="M42.84 7.125L41.34 5.625C33.5406 5.66955 26.0538 8.69647 20.415 14.085L13.005 13.2675L11.7825 13.695L6 19.44L7.305 21.9825L12.8475 21.0375L15.0975 22.695L15.33 22.935L13.275 26.205L13.485 28.065L19.8825 34.5L21.75 34.7025L24.9225 32.6775L25.1325 32.8875L26.7975 35.1375L25.8525 40.68L28.395 42L34.14 36.2025L34.5675 34.98L33.75 27.6075C38.0475 23.1525 42.825 16.17 42.84 7.125ZM39.2625 12.0825C38.3618 11.0053 37.3762 10.0021 36.315 9.0825C37.4615 8.85892 38.6215 8.7111 39.7875 8.64C39.7007 9.79923 39.5252 10.9501 39.2625 12.0825ZM32.595 10.1175C34.095 10.785 37.2075 14.0325 38.1675 15.555C35.1525 23.115 28.875 28.2225 26.4525 30L26.1975 29.7375L18.2325 21.6675L17.9475 21.3825C19.6275 19.035 24.585 12.9525 32.595 10.1175ZM12.9375 18L11.4375 18.255L13.35 16.3575L17.715 16.845C16.8225 17.8575 16.1325 18.7575 15.6375 19.4475L14.0775 18.2775L12.9375 18ZM21.1875 31.5675L16.425 26.8125L17.4675 25.155L22.8 30.54L21.1875 31.5675ZM29.6475 36.525L29.9025 35.025L29.625 33.8775L28.41 32.25C29.1 31.7475 30 31.0575 31.02 30.1725L31.5 34.575L29.6475 36.525Z" fill="#0055DC"/>
<path d="M31.665 18.615C33.1148 18.615 34.29 17.4397 34.29 15.99C34.29 14.5402 33.1148 13.365 31.665 13.365C30.2153 13.365 29.04 14.5402 29.04 15.99C29.04 17.4397 30.2153 18.615 31.665 18.615Z" fill="#0055DC"/>
<path d="M10.425 31.5C7.61996 33 5.55746 38.04 6.06746 40.7325L7.56746 41.955C10.1925 41.955 14.985 39.945 16.245 36.915C16.5675 36.1361 16.6375 35.2757 16.4451 34.4549C16.2527 33.6341 15.8076 32.8944 15.1725 32.34C14.5977 31.6765 13.8122 31.2308 12.9477 31.0779C12.0833 30.9249 11.1925 31.074 10.425 31.5ZM13.425 35.7675C12.945 36.93 10.8975 38.1525 9.11246 38.685C9.49496 37.005 10.6125 34.8 11.8125 34.185C11.9379 34.1034 12.0829 34.0568 12.2325 34.05C12.5284 34.0951 12.7964 34.2505 12.9825 34.485C13.7025 35.13 13.5 35.535 13.44 35.76L13.425 35.7675Z" fill="#0055DC"/>
</svg>
