<svg width="48" height="48" viewBox="0 0 48 48" fill="none" xmlns="http://www.w3.org/2000/svg">
<path d="M24 8.80499C20.3663 8.80894 16.8822 10.2521 14.3099 12.8187C11.7377 15.3853 10.2869 18.8663 10.275 22.5C10.275 31.8825 22.17 47.25 22.68 47.8875H25.0725C25.59 47.25 37.725 31.92 37.725 22.5C37.7131 18.8663 36.2623 15.3853 33.6901 12.8187C31.1179 10.2521 27.6337 8.80894 24 8.80499ZM23.895 44.445C20.9025 40.335 13.3275 29.25 13.3275 22.5C13.3275 19.6695 14.4519 16.9549 16.4534 14.9534C18.4549 12.9519 21.1695 11.8275 24 11.8275C26.8305 11.8275 29.5451 12.9519 31.5466 14.9534C33.5481 16.9549 34.6725 19.6695 34.6725 22.5C34.6725 29.25 26.9325 40.3425 23.895 44.445Z" fill="#0055DC"/>
<path d="M24 17.0775C22.8015 17.0775 21.6298 17.4329 20.6332 18.0988C19.6367 18.7647 18.86 19.7111 18.4013 20.8185C17.9426 21.9258 17.8226 23.1442 18.0564 24.3198C18.2903 25.4953 18.8674 26.5751 19.7149 27.4226C20.5624 28.2701 21.6422 28.8472 22.8178 29.0811C23.9933 29.3149 25.2117 29.1949 26.3191 28.7362C27.4264 28.2776 28.3728 27.5008 29.0387 26.5043C29.7046 25.5077 30.06 24.3361 30.06 23.1375C30.06 22.3417 29.9033 21.5537 29.5987 20.8185C29.2942 20.0832 28.8478 19.4152 28.2851 18.8524C27.7224 18.2897 27.0543 17.8433 26.3191 17.5388C25.5838 17.2343 24.7958 17.0775 24 17.0775ZM24 26.25C23.3823 26.2515 22.778 26.0696 22.2638 25.7273C21.7496 25.3851 21.3485 24.8979 21.1114 24.3275C20.8744 23.757 20.812 23.1291 20.9321 22.5232C21.0522 21.9173 21.3496 21.3606 21.7863 20.9238C22.2231 20.4871 22.7798 20.1898 23.3857 20.0696C23.9916 19.9495 24.6195 20.0119 25.1899 20.249C25.7604 20.486 26.2476 20.8871 26.5898 21.4013C26.9321 21.9155 27.114 22.5198 27.1125 23.1375C27.1125 23.963 26.7846 24.7547 26.2009 25.3384C25.6172 25.9221 24.8255 26.25 24 26.25Z" fill="#0055DC"/>
<path d="M25.41 0H22.4625V6.36H25.41V0Z" fill="#0055DC"/>
<path d="M38.8868 6.07699L34.3896 10.5742L36.4685 12.6531L40.9657 8.15588L38.8868 6.07699Z" fill="#0055DC"/>
<path d="M46.59 21.6H40.23V24.5475H46.59V21.6Z" fill="#0055DC"/>
<path d="M7.77748 21.7275H1.41748V24.675H7.77748V21.7275Z" fill="#0055DC"/>
<path d="M9.02201 6.17071L6.94312 8.2496L11.4403 12.7468L13.5192 10.6679L9.02201 6.17071Z" fill="#0055DC"/>
</svg>
