<svg width="48" height="48" viewBox="0 0 48 48" fill="none" xmlns="http://www.w3.org/2000/svg">
<path d="M34.65 4.5H13.35C11.0034 4.50199 8.75356 5.43503 7.0943 7.0943C5.43503 8.75356 4.50199 11.0034 4.5 13.35V34.65C4.50199 36.9966 5.43503 39.2464 7.0943 40.9057C8.75356 42.565 11.0034 43.498 13.35 43.5H34.65C36.9966 43.498 39.2464 42.565 40.9057 40.9057C42.565 39.2464 43.498 36.9966 43.5 34.65V13.35C43.498 11.0034 42.565 8.75356 40.9057 7.0943C39.2464 5.43503 36.9966 4.50199 34.65 4.5ZM40.5 34.65C40.498 36.2009 39.881 37.6877 38.7844 38.7844C37.6877 39.881 36.2009 40.498 34.65 40.5H13.35C11.7991 40.498 10.3123 39.881 9.21562 38.7844C8.11896 37.6877 7.50198 36.2009 7.5 34.65V13.35C7.50198 11.7991 8.11896 10.3123 9.21562 9.21562C10.3123 8.11896 11.7991 7.50198 13.35 7.5H34.65C36.2009 7.50198 37.6877 8.11896 38.7844 9.21562C39.881 10.3123 40.498 11.7991 40.5 13.35V34.65Z" fill="#0055DC"/>
<path d="M24.75 13.4325H23.25L15.225 18.0675L14.475 19.365V28.635L15.225 29.9325L23.25 34.5675H24.75L32.775 29.9325L33.525 28.635V19.365L32.775 18.0675L24.75 13.4325ZM30.525 27.75L24 31.5L17.475 27.75V20.25L24 16.5L30.525 20.25V27.75Z" fill="#0055DC"/>
</svg>
