<svg width="32" height="32" viewBox="0 0 32 32" fill="none" xmlns="http://www.w3.org/2000/svg">
<path d="M16 29C13.4288 29 10.9154 28.2376 8.77758 26.8091C6.63975 25.3806 4.9735 23.3503 3.98956 20.9749C3.00563 18.5994 2.74818 15.9856 3.24979 13.4638C3.7514 10.9421 4.98953 8.62569 6.80761 6.80761C8.62569 4.98952 10.9421 3.75139 13.4638 3.24979C15.9856 2.74818 18.5994 3.00562 20.9749 3.98956C23.3503 4.9735 25.3806 6.63974 26.8091 8.77758C28.2376 10.9154 29 13.4288 29 16C29 19.4478 27.6304 22.7544 25.1924 25.1924C22.7544 27.6304 19.4478 29 16 29ZM16 4.99999C13.8244 4.99999 11.6977 5.64513 9.88872 6.85383C8.07978 8.06252 6.66989 9.78049 5.83732 11.7905C5.00476 13.8005 4.78692 16.0122 5.21136 18.146C5.6358 20.2798 6.68345 22.2398 8.22182 23.7782C9.7602 25.3165 11.7202 26.3642 13.854 26.7886C15.9878 27.2131 18.1995 26.9952 20.2095 26.1627C22.2195 25.3301 23.9375 23.9202 25.1462 22.1113C26.3549 20.3023 27 18.1756 27 16C27 13.0826 25.8411 10.2847 23.7782 8.22182C21.7153 6.15892 18.9174 4.99999 16 4.99999ZM19.745 17.105C19.5785 16.7727 19.3433 16.4796 19.055 16.245C18.7527 15.9999 18.4157 15.8011 18.055 15.655C17.6867 15.4981 17.3052 15.3743 16.915 15.285L16.58 15.2V12.295C16.875 12.3403 17.1566 12.4495 17.405 12.615C17.5755 12.733 17.7174 12.8876 17.8203 13.0676C17.9233 13.2475 17.9847 13.4482 18 13.655H19.815C19.8129 13.0959 19.6383 12.5511 19.315 12.095C18.9802 11.6284 18.526 11.2606 18 11.03C17.5512 10.8284 17.0706 10.7066 16.58 10.67V9.49999H15.555V10.69C15.0706 10.7316 14.5961 10.8515 14.15 11.045C13.6051 11.2738 13.1318 11.6451 12.78 12.12C12.4434 12.5903 12.2681 13.1568 12.28 13.735C12.2678 14.0634 12.3258 14.3907 12.4499 14.695C12.574 14.9994 12.7616 15.2738 13 15.5C13.5868 15.9941 14.2854 16.3373 15.035 16.5L15.495 16.615V19.695C15.3144 19.6672 15.1369 19.622 14.965 19.56C14.6642 19.4529 14.3981 19.2663 14.195 19.02C13.9895 18.76 13.8722 18.4412 13.86 18.11H12C12.0071 18.7379 12.1945 19.3506 12.54 19.875C12.8873 20.3762 13.3716 20.7667 13.935 21C14.4297 21.1985 14.953 21.3167 15.485 21.35L15.5 22.5H16.58V21.35C17.1293 21.3248 17.6703 21.2064 18.18 21C18.7257 20.7769 19.1947 20.3999 19.53 19.915C19.8524 19.4338 20.0166 18.864 20 18.285C20.0095 17.877 19.9221 17.4726 19.745 17.105ZM15.325 14.85C15.1234 14.7807 14.9305 14.6884 14.75 14.575C14.5852 14.4718 14.4452 14.3335 14.34 14.17C14.2375 13.9997 14.1855 13.8037 14.19 13.605C14.1885 13.3537 14.2674 13.1084 14.415 12.905C14.581 12.6812 14.8061 12.508 15.065 12.405C15.217 12.34 15.3766 12.2947 15.54 12.27V14.89C15.455 14.89 15.39 14.875 15.325 14.85ZM17.825 19.05C17.6299 19.278 17.3781 19.4505 17.095 19.55C16.9208 19.6167 16.7397 19.6636 16.555 19.69V16.905C16.78 16.975 16.995 17.05 17.185 17.13C17.4327 17.2297 17.656 17.3815 17.84 17.575C17.9988 17.7634 18.0825 18.0037 18.075 18.25C18.0953 18.5362 18.0118 18.8202 17.84 19.05H17.825Z" fill="#0055DC"/>
</svg>
