<?xml version="1.0" encoding="utf-8"?>
<!-- Generator: Adobe Illustrator 24.2.1, SVG Export Plug-In . SVG Version: 6.00 Build 0)  -->
<svg version="1.1" id="Layer_1" xmlns="http://www.w3.org/2000/svg" xmlns:xlink="http://www.w3.org/1999/xlink" x="0px" y="0px"
	 viewBox="0 0 501 352" enable-background="new 0 0 501 352" xml:space="preserve">
<linearGradient id="SVGID_1_" gradientUnits="userSpaceOnUse" x1="340.2979" y1="350.8194" x2="182.9029" y2="44.4014">
	<stop  offset="0" style="stop-color:#E6F1F8"/>
	<stop  offset="1" style="stop-color:#4799D0"/>
</linearGradient>
<circle fill="url(#SVGID_1_)" cx="250.5" cy="176" r="167"/>
<g>
	<defs>
		<circle id="SVGID_30_" cx="250.5" cy="176" r="167"/>
	</defs>
	<clipPath id="SVGID_2_">
		<use xlink:href="#SVGID_30_"  overflow="visible"/>
	</clipPath>
	<g clip-path="url(#SVGID_2_)">
		<linearGradient id="SVGID_3_" gradientUnits="userSpaceOnUse" x1="247.1883" y1="243.3297" x2="252.7697" y2="367.2365">
			<stop  offset="0" style="stop-color:#4799D0"/>
			<stop  offset="0.2147" style="stop-color:#3E8DC2"/>
			<stop  offset="0.7123" style="stop-color:#2C76A6"/>
			<stop  offset="1" style="stop-color:#256D9B"/>
		</linearGradient>
		<path fill="url(#SVGID_3_)" d="M473.5,340.7H21.9c0,0-5.8-24.5-3.1-46.5c1.9-15.6-14.8-24.4,23.6-33.3c22.7-5.2,49.6-8.5,80.8-8.5
			c82.5,0,134.4,30.6,161.6,30.6c27.1,0,71.2-16.7,120.9-16.7c30,0,52.7,5,75.1,9.8c0.4,0.1,0.3,6.2,0.2,13.3
			C480.4,308.3,473.5,340.7,473.5,340.7z"/>
		<linearGradient id="SVGID_4_" gradientUnits="userSpaceOnUse" x1="256.391" y1="270.957" x2="259.7399" y2="371.4219">
			<stop  offset="0" style="stop-color:#4799D0"/>
			<stop  offset="0.2543" style="stop-color:#4495CB"/>
			<stop  offset="0.5677" style="stop-color:#3A88BC"/>
			<stop  offset="0.9111" style="stop-color:#2A73A3"/>
			<stop  offset="1" style="stop-color:#256D9B"/>
		</linearGradient>
		<path fill="url(#SVGID_4_)" d="M40.9,347.3h433.8c0,0,9.1-46.3,5.5-62.9c-0.5-2.3-9.6-0.6-18.1,4.1
			c-36.3,19.9-64.8,36.1-83.7,36.1c-37.8,0-99.2-39.5-168.6-39.5s-107.4,43.2-169.6,39.5C27,323.9,40.9,347.3,40.9,347.3z"/>
	</g>
</g>
<g opacity="0.53">
	<circle fill="#FFFFFF" cx="161.9" cy="28.6" r="1.2"/>
</g>
<g>
	<g>
		<g opacity="0.2">
			
				<image overflow="visible" opacity="0.75" width="650" height="650" xlink:href="A0A9FE290640BC00.png"  transform="matrix(0.24 0 0 0.24 246.28 25.08)">
			</image>
			<g>
				<circle fill="#FFFFFF" cx="324.2" cy="103.1" r="56.9"/>
			</g>
		</g>
		<g opacity="8.000000e-02">
			<circle fill="#FFFFFF" cx="324.2" cy="103.1" r="39.2"/>
		</g>
		<g opacity="8.000000e-02">
			<circle fill="#FFFFFF" cx="324.2" cy="103.1" r="18.1"/>
		</g>
		<g>
			<circle fill="#FFFFFF" cx="324.2" cy="103.1" r="12.2"/>
		</g>
	</g>
	<circle fill="#FFFFFF" cx="324.3" cy="103.3" r="9.5"/>
</g>
<g>
	<g opacity="0.34">
		<circle fill="#FFFFFF" cx="141.7" cy="139.8" r="2.4"/>
		<circle fill="#FFFFFF" cx="302.4" cy="149.5" r="1.2"/>
		<circle fill="#FFFFFF" cx="315.5" cy="155.6" r="1.2"/>
	</g>
	<g opacity="0.76">
		<circle fill="#FFFFFF" cx="326.4" cy="103.6" r="1.8"/>
		<circle fill="#FFFFFF" cx="322.7" cy="77.9" r="0.9"/>
		<circle fill="#FFFFFF" cx="342.9" cy="117.7" r="0.9"/>
		<circle fill="#FFFFFF" cx="314.6" cy="97.9" r="0.9"/>
	</g>
	<g opacity="0.36">
		<circle fill="#FFFFFF" cx="170.5" cy="130.5" r="0.7"/>
		<circle fill="#FFFFFF" cx="219.4" cy="125.1" r="0.7"/>
		<circle fill="#FFFFFF" cx="203.4" cy="88.4" r="0.7"/>
		<circle fill="#FFFFFF" cx="248.2" cy="184.6" r="0.7"/>
		<circle fill="#FFFFFF" cx="184.5" cy="106.2" r="0.7"/>
		<circle fill="#FFFFFF" cx="216.7" cy="154.2" r="0.7"/>
		<circle fill="#FFFFFF" cx="194.6" cy="127.4" r="0.7"/>
		<circle fill="#FFFFFF" cx="147.2" cy="79.9" r="0.7"/>
		<circle fill="#FFFFFF" cx="233.9" cy="81.5" r="0.7"/>
		<circle fill="#FFFFFF" cx="204.9" cy="101.4" r="0.7"/>
		<circle fill="#FFFFFF" cx="169.9" cy="99.2" r="0.7"/>
		<circle fill="#FFFFFF" cx="197.2" cy="164.9" r="1.3"/>
		<circle fill="#FFFFFF" cx="226.9" cy="136.6" r="1.3"/>
	</g>
	<g opacity="0.76">
		<circle fill="#FFFFFF" cx="258.2" cy="101.4" r="0.7"/>
		<circle fill="#FFFFFF" cx="300.3" cy="186.7" r="0.7"/>
		<circle fill="#FFFFFF" cx="255.7" cy="202.1" r="0.7"/>
		<circle fill="#FFFFFF" cx="346" cy="172.6" r="0.7"/>
	</g>
</g>
<g>
	<g>
		<linearGradient id="SVGID_5_" gradientUnits="userSpaceOnUse" x1="204.6273" y1="333.5441" x2="162.7669" y2="226.3815">
			<stop  offset="0" style="stop-color:#4799D0"/>
			<stop  offset="6.853080e-02" style="stop-color:#3D8CC0"/>
			<stop  offset="0.1739" style="stop-color:#327EAF"/>
			<stop  offset="0.305" style="stop-color:#2B74A4"/>
			<stop  offset="0.4891" style="stop-color:#266F9D"/>
			<stop  offset="1" style="stop-color:#256D9B"/>
		</linearGradient>
		<polygon fill="url(#SVGID_5_)" points="200.7,336 206.9,333.8 165.5,220.9 159.3,223.2 		"/>
		<linearGradient id="SVGID_6_" gradientUnits="userSpaceOnUse" x1="101.9346" y1="348.7919" x2="146.5856" y2="232.6991">
			<stop  offset="0" style="stop-color:#4799D0"/>
			<stop  offset="1" style="stop-color:#256D9B"/>
		</linearGradient>
		<polygon fill="url(#SVGID_6_)" points="111.4,336 105.2,333.8 146.6,220.9 152.8,223.2 		"/>
		<linearGradient id="SVGID_7_" gradientUnits="userSpaceOnUse" x1="156.3667" y1="344.6789" x2="155.8086" y2="232.4931">
			<stop  offset="0" style="stop-color:#4799D0"/>
			<stop  offset="1" style="stop-color:#256D9B"/>
		</linearGradient>
		<rect x="152.7" y="223.2" fill="url(#SVGID_7_)" width="6.6" height="114.8"/>
		<polygon fill="#256D9B" points="168.7,194.8 133,209.8 130.5,204 166.2,189 		"/>
		<polygon fill="#256D9B" points="166.1,202.8 140.6,213.3 138.1,207.6 163.6,196.9 		"/>
		<circle fill="#256D9B" cx="156" cy="213.4" r="13.6"/>
		<g>
			<linearGradient id="SVGID_8_" gradientUnits="userSpaceOnUse" x1="143.7516" y1="192.6258" x2="154.6353" y2="211.0444">
				<stop  offset="0" style="stop-color:#256D9B"/>
				<stop  offset="1" style="stop-color:#4799D0"/>
			</linearGradient>
			<circle fill="url(#SVGID_8_)" cx="156" cy="213.4" r="9.7"/>
		</g>
	</g>
	<g>
		<linearGradient id="SVGID_9_" gradientUnits="userSpaceOnUse" x1="131.7287" y1="134.1735" x2="159.3566" y2="186.9176">
			<stop  offset="0" style="stop-color:#256D9B"/>
			<stop  offset="1" style="stop-color:#4799D0"/>
		</linearGradient>
		<polygon fill="url(#SVGID_9_)" points="236,163.7 217.8,124.1 166.6,147.5 168.1,150.8 98,183.2 100.7,189.1 94.9,192.1 
			93.9,189.7 74.9,198.4 80.7,211.1 99.6,202.4 95.9,194.2 101.9,191.7 112.9,215.9 183.1,183.4 184.8,187.2 		"/>
		<path fill="#0075AF" d="M221.5,121.8c11.1-5.2,24.3-0.3,29.5,10.8c5.2,11.1,0.3,24.3-10.8,29.5L221.5,121.8z"/>
		<linearGradient id="SVGID_10_" gradientUnits="userSpaceOnUse" x1="244.2062" y1="145.1635" x2="251.037" y2="145.1635">
			<stop  offset="0" style="stop-color:#4799D0"/>
			<stop  offset="1" style="stop-color:#ABD0E9"/>
		</linearGradient>
		<path fill="url(#SVGID_10_)" d="M250.2,134.9c1,3.3,1.2,6.9,0.5,10.3c-0.6,3.5-2.1,6.8-4.3,9.7l0,0c-0.4,0.5-1.2,0.6-1.7,0.2
			s-0.6-1.2-0.2-1.7c0,0,0.1-0.1,0.1-0.1c2.2-2.3,4-5.2,4.9-8.4C250.5,141.8,250.7,138.3,250.2,134.9z"/>
		<linearGradient id="SVGID_11_" gradientUnits="userSpaceOnUse" x1="222.7196" y1="132.8963" x2="248.0582" y2="132.8963">
			<stop  offset="0" style="stop-color:#4799D0"/>
			<stop  offset="1" style="stop-color:#ABD0E9"/>
		</linearGradient>
		<path fill="url(#SVGID_11_)" d="M231.5,140.6c-1.5-3.3-8.8-19-8.8-19c1.5-0.5,3.1-0.8,4.7-0.9c8.9-0.7,18.2,4.6,20.4,13.7
			C250,143.9,236.9,149.7,231.5,140.6z"/>
		<path fill="#FFFFFF" d="M233.4,136.4c-1.7-3.6-6.6-14.3-6.6-14.3c6.7-0.5,15.2,3.4,16.5,11C244.3,139.4,236.2,142.2,233.4,136.4z"
			/>
		
			<rect x="226.3" y="117.1" transform="matrix(-0.9093 0.4161 -0.4161 -0.9093 500.1942 174.1919)" fill="#256D9B" width="9.6" height="49"/>
		<polygon fill="#256D9B" points="159.7,154.7 168.1,150.8 183.1,183.4 174.5,187.4 		"/>
		<polygon fill="#256D9B" points="93.2,190.1 99.8,187.1 111,211.7 104.4,214.7 		"/>
		<polygon opacity="0.3" fill="#395A9F" points="77.3,203.7 104.8,198 105.5,199.7 80.6,211.1 		"/>
		<polygon fill="#256D9B" points="175,165.8 231.6,154.2 236,163.7 184.7,187.2 		"/>
		<polygon fill="#256D9B" points="103.2,194.6 180.8,178.6 183.1,183.4 112.9,215.9 		"/>
	</g>
</g>
</svg>
